<mxfile host="app.diagrams.net" modified="2024-01-19T04:28:23.890Z" agent="Mozilla/5.0 (Windows NT 10.0; Win64; x64) AppleWebKit/537.36 (KHTML, like Gecko) Chrome/120.0.0.0 Safari/537.36" etag="4VBR4pAEN8zSbAB8wtqJ" version="22.1.20" type="device">
  <diagram name="Page-1" id="rc0uClVn3gRNKsO3K7OQ">
    <mxGraphModel dx="1434" dy="746" grid="1" gridSize="10" guides="1" tooltips="1" connect="1" arrows="1" fold="1" page="1" pageScale="1" pageWidth="850" pageHeight="1100" math="0" shadow="0">
      <root>
        <mxCell id="0" />
        <mxCell id="1" parent="0" />
        <mxCell id="uB74LkE4q_bYTzbur5KE-3" value="O1&lt;br&gt;G_OLD" style="rounded=0;whiteSpace=wrap;html=1;fillColor=#647687;fontColor=#ffffff;strokeColor=#314354;" vertex="1" parent="1">
          <mxGeometry x="40" y="120" width="100" height="60" as="geometry" />
        </mxCell>
        <mxCell id="uB74LkE4q_bYTzbur5KE-7" style="edgeStyle=orthogonalEdgeStyle;rounded=0;orthogonalLoop=1;jettySize=auto;html=1;exitX=0;exitY=0.5;exitDx=0;exitDy=0;" edge="1" parent="1" source="uB74LkE4q_bYTzbur5KE-6" target="uB74LkE4q_bYTzbur5KE-3">
          <mxGeometry relative="1" as="geometry" />
        </mxCell>
        <mxCell id="uB74LkE4q_bYTzbur5KE-6" value="O2&lt;br&gt;G_OLD" style="rounded=0;whiteSpace=wrap;html=1;fillColor=#647687;fontColor=#ffffff;strokeColor=#314354;" vertex="1" parent="1">
          <mxGeometry x="190" y="120" width="100" height="60" as="geometry" />
        </mxCell>
        <mxCell id="uB74LkE4q_bYTzbur5KE-9" style="edgeStyle=orthogonalEdgeStyle;rounded=0;orthogonalLoop=1;jettySize=auto;html=1;exitX=0.5;exitY=1;exitDx=0;exitDy=0;entryX=0.5;entryY=0;entryDx=0;entryDy=0;" edge="1" parent="1" source="uB74LkE4q_bYTzbur5KE-8" target="uB74LkE4q_bYTzbur5KE-6">
          <mxGeometry relative="1" as="geometry" />
        </mxCell>
        <mxCell id="uB74LkE4q_bYTzbur5KE-8" value="&lt;font style=&quot;font-size: 16px;&quot;&gt;g-&amp;gt;allgc&lt;/font&gt;" style="rounded=1;whiteSpace=wrap;html=1;" vertex="1" parent="1">
          <mxGeometry x="180" y="20" width="120" height="60" as="geometry" />
        </mxCell>
        <mxCell id="uB74LkE4q_bYTzbur5KE-97" style="edgeStyle=orthogonalEdgeStyle;rounded=0;orthogonalLoop=1;jettySize=auto;html=1;exitX=0.5;exitY=0;exitDx=0;exitDy=0;entryX=0.75;entryY=1;entryDx=0;entryDy=0;" edge="1" parent="1" source="uB74LkE4q_bYTzbur5KE-86" target="uB74LkE4q_bYTzbur5KE-6">
          <mxGeometry relative="1" as="geometry" />
        </mxCell>
        <mxCell id="uB74LkE4q_bYTzbur5KE-86" value="g-&amp;gt;survival" style="rounded=1;whiteSpace=wrap;html=1;" vertex="1" parent="1">
          <mxGeometry x="290" y="230" width="80" height="30" as="geometry" />
        </mxCell>
        <mxCell id="uB74LkE4q_bYTzbur5KE-95" style="edgeStyle=orthogonalEdgeStyle;rounded=0;orthogonalLoop=1;jettySize=auto;html=1;exitX=0.5;exitY=0;exitDx=0;exitDy=0;entryX=0.5;entryY=1;entryDx=0;entryDy=0;" edge="1" parent="1" source="uB74LkE4q_bYTzbur5KE-87" target="uB74LkE4q_bYTzbur5KE-6">
          <mxGeometry relative="1" as="geometry" />
        </mxCell>
        <mxCell id="uB74LkE4q_bYTzbur5KE-87" value="g-&amp;gt;old1" style="rounded=1;whiteSpace=wrap;html=1;" vertex="1" parent="1">
          <mxGeometry x="200" y="230" width="80" height="30" as="geometry" />
        </mxCell>
        <mxCell id="uB74LkE4q_bYTzbur5KE-96" style="edgeStyle=orthogonalEdgeStyle;rounded=0;orthogonalLoop=1;jettySize=auto;html=1;exitX=0.5;exitY=0;exitDx=0;exitDy=0;entryX=0.25;entryY=1;entryDx=0;entryDy=0;" edge="1" parent="1" source="uB74LkE4q_bYTzbur5KE-88" target="uB74LkE4q_bYTzbur5KE-6">
          <mxGeometry relative="1" as="geometry" />
        </mxCell>
        <mxCell id="uB74LkE4q_bYTzbur5KE-88" value="g-&amp;gt;reallyold" style="rounded=1;whiteSpace=wrap;html=1;" vertex="1" parent="1">
          <mxGeometry x="110" y="230" width="80" height="30" as="geometry" />
        </mxCell>
        <mxCell id="uB74LkE4q_bYTzbur5KE-118" value="O1&lt;br&gt;G_OLD" style="rounded=0;whiteSpace=wrap;html=1;fillColor=#647687;fontColor=#ffffff;strokeColor=#314354;" vertex="1" parent="1">
          <mxGeometry x="40" y="410" width="100" height="60" as="geometry" />
        </mxCell>
        <mxCell id="uB74LkE4q_bYTzbur5KE-119" style="edgeStyle=orthogonalEdgeStyle;rounded=0;orthogonalLoop=1;jettySize=auto;html=1;exitX=0;exitY=0.5;exitDx=0;exitDy=0;" edge="1" parent="1" source="uB74LkE4q_bYTzbur5KE-120" target="uB74LkE4q_bYTzbur5KE-118">
          <mxGeometry relative="1" as="geometry" />
        </mxCell>
        <mxCell id="uB74LkE4q_bYTzbur5KE-120" value="O2&lt;br&gt;G_OLD" style="rounded=0;whiteSpace=wrap;html=1;fillColor=#647687;fontColor=#ffffff;strokeColor=#314354;" vertex="1" parent="1">
          <mxGeometry x="190" y="410" width="100" height="60" as="geometry" />
        </mxCell>
        <mxCell id="uB74LkE4q_bYTzbur5KE-135" style="edgeStyle=orthogonalEdgeStyle;rounded=0;orthogonalLoop=1;jettySize=auto;html=1;exitX=1;exitY=0.5;exitDx=0;exitDy=0;entryX=0.5;entryY=0;entryDx=0;entryDy=0;" edge="1" parent="1" source="uB74LkE4q_bYTzbur5KE-122" target="uB74LkE4q_bYTzbur5KE-131">
          <mxGeometry relative="1" as="geometry" />
        </mxCell>
        <mxCell id="uB74LkE4q_bYTzbur5KE-122" value="&lt;font style=&quot;font-size: 16px;&quot;&gt;g-&amp;gt;allgc&lt;/font&gt;" style="rounded=1;whiteSpace=wrap;html=1;" vertex="1" parent="1">
          <mxGeometry x="180" y="310" width="120" height="60" as="geometry" />
        </mxCell>
        <mxCell id="uB74LkE4q_bYTzbur5KE-123" style="edgeStyle=orthogonalEdgeStyle;rounded=0;orthogonalLoop=1;jettySize=auto;html=1;exitX=0.5;exitY=0;exitDx=0;exitDy=0;entryX=0.75;entryY=1;entryDx=0;entryDy=0;" edge="1" parent="1" source="uB74LkE4q_bYTzbur5KE-124" target="uB74LkE4q_bYTzbur5KE-120">
          <mxGeometry relative="1" as="geometry" />
        </mxCell>
        <mxCell id="uB74LkE4q_bYTzbur5KE-124" value="g-&amp;gt;survival" style="rounded=1;whiteSpace=wrap;html=1;" vertex="1" parent="1">
          <mxGeometry x="290" y="520" width="80" height="30" as="geometry" />
        </mxCell>
        <mxCell id="uB74LkE4q_bYTzbur5KE-125" style="edgeStyle=orthogonalEdgeStyle;rounded=0;orthogonalLoop=1;jettySize=auto;html=1;exitX=0.5;exitY=0;exitDx=0;exitDy=0;entryX=0.5;entryY=1;entryDx=0;entryDy=0;" edge="1" parent="1" source="uB74LkE4q_bYTzbur5KE-126" target="uB74LkE4q_bYTzbur5KE-120">
          <mxGeometry relative="1" as="geometry" />
        </mxCell>
        <mxCell id="uB74LkE4q_bYTzbur5KE-126" value="g-&amp;gt;old1" style="rounded=1;whiteSpace=wrap;html=1;" vertex="1" parent="1">
          <mxGeometry x="200" y="520" width="80" height="30" as="geometry" />
        </mxCell>
        <mxCell id="uB74LkE4q_bYTzbur5KE-127" style="edgeStyle=orthogonalEdgeStyle;rounded=0;orthogonalLoop=1;jettySize=auto;html=1;exitX=0.5;exitY=0;exitDx=0;exitDy=0;entryX=0.25;entryY=1;entryDx=0;entryDy=0;" edge="1" parent="1" source="uB74LkE4q_bYTzbur5KE-128" target="uB74LkE4q_bYTzbur5KE-120">
          <mxGeometry relative="1" as="geometry" />
        </mxCell>
        <mxCell id="uB74LkE4q_bYTzbur5KE-128" value="g-&amp;gt;reallyold" style="rounded=1;whiteSpace=wrap;html=1;" vertex="1" parent="1">
          <mxGeometry x="110" y="520" width="80" height="30" as="geometry" />
        </mxCell>
        <mxCell id="uB74LkE4q_bYTzbur5KE-132" style="edgeStyle=orthogonalEdgeStyle;rounded=0;orthogonalLoop=1;jettySize=auto;html=1;exitX=0;exitY=0.5;exitDx=0;exitDy=0;entryX=1;entryY=0.5;entryDx=0;entryDy=0;" edge="1" parent="1" source="uB74LkE4q_bYTzbur5KE-129" target="uB74LkE4q_bYTzbur5KE-120">
          <mxGeometry relative="1" as="geometry" />
        </mxCell>
        <mxCell id="uB74LkE4q_bYTzbur5KE-129" value="O3&lt;br&gt;G_NEW" style="rounded=0;whiteSpace=wrap;html=1;" vertex="1" parent="1">
          <mxGeometry x="340" y="410" width="100" height="60" as="geometry" />
        </mxCell>
        <mxCell id="uB74LkE4q_bYTzbur5KE-133" style="edgeStyle=orthogonalEdgeStyle;rounded=0;orthogonalLoop=1;jettySize=auto;html=1;exitX=0;exitY=0.5;exitDx=0;exitDy=0;entryX=1;entryY=0.5;entryDx=0;entryDy=0;" edge="1" parent="1" source="uB74LkE4q_bYTzbur5KE-130" target="uB74LkE4q_bYTzbur5KE-129">
          <mxGeometry relative="1" as="geometry" />
        </mxCell>
        <mxCell id="uB74LkE4q_bYTzbur5KE-130" value="O4&lt;br&gt;G_NEW" style="rounded=0;whiteSpace=wrap;html=1;" vertex="1" parent="1">
          <mxGeometry x="490" y="410" width="100" height="60" as="geometry" />
        </mxCell>
        <mxCell id="uB74LkE4q_bYTzbur5KE-134" style="edgeStyle=orthogonalEdgeStyle;rounded=0;orthogonalLoop=1;jettySize=auto;html=1;exitX=0;exitY=0.5;exitDx=0;exitDy=0;entryX=1;entryY=0.5;entryDx=0;entryDy=0;" edge="1" parent="1" source="uB74LkE4q_bYTzbur5KE-131" target="uB74LkE4q_bYTzbur5KE-130">
          <mxGeometry relative="1" as="geometry" />
        </mxCell>
        <mxCell id="uB74LkE4q_bYTzbur5KE-131" value="O5&lt;br&gt;G_NEW" style="rounded=0;whiteSpace=wrap;html=1;" vertex="1" parent="1">
          <mxGeometry x="640" y="410" width="100" height="60" as="geometry" />
        </mxCell>
        <mxCell id="uB74LkE4q_bYTzbur5KE-136" value="O1&lt;br&gt;G_OLD" style="rounded=0;whiteSpace=wrap;html=1;fillColor=#647687;fontColor=#ffffff;strokeColor=#314354;" vertex="1" parent="1">
          <mxGeometry x="40" y="740" width="100" height="60" as="geometry" />
        </mxCell>
        <mxCell id="uB74LkE4q_bYTzbur5KE-137" style="edgeStyle=orthogonalEdgeStyle;rounded=0;orthogonalLoop=1;jettySize=auto;html=1;exitX=0;exitY=0.5;exitDx=0;exitDy=0;" edge="1" parent="1" source="uB74LkE4q_bYTzbur5KE-138" target="uB74LkE4q_bYTzbur5KE-136">
          <mxGeometry relative="1" as="geometry" />
        </mxCell>
        <mxCell id="uB74LkE4q_bYTzbur5KE-138" value="O2&lt;br&gt;G_OLD" style="rounded=0;whiteSpace=wrap;html=1;fillColor=#647687;fontColor=#ffffff;strokeColor=#314354;" vertex="1" parent="1">
          <mxGeometry x="190" y="740" width="100" height="60" as="geometry" />
        </mxCell>
        <mxCell id="uB74LkE4q_bYTzbur5KE-139" style="edgeStyle=orthogonalEdgeStyle;rounded=0;orthogonalLoop=1;jettySize=auto;html=1;exitX=1;exitY=0.5;exitDx=0;exitDy=0;entryX=0.5;entryY=0;entryDx=0;entryDy=0;" edge="1" parent="1" source="uB74LkE4q_bYTzbur5KE-140" target="uB74LkE4q_bYTzbur5KE-152">
          <mxGeometry relative="1" as="geometry" />
        </mxCell>
        <mxCell id="uB74LkE4q_bYTzbur5KE-140" value="&lt;font style=&quot;font-size: 16px;&quot;&gt;g-&amp;gt;allgc&lt;/font&gt;" style="rounded=1;whiteSpace=wrap;html=1;" vertex="1" parent="1">
          <mxGeometry x="180" y="640" width="120" height="60" as="geometry" />
        </mxCell>
        <mxCell id="uB74LkE4q_bYTzbur5KE-141" style="edgeStyle=orthogonalEdgeStyle;rounded=0;orthogonalLoop=1;jettySize=auto;html=1;exitX=0.5;exitY=0;exitDx=0;exitDy=0;entryX=0.75;entryY=1;entryDx=0;entryDy=0;" edge="1" parent="1" source="uB74LkE4q_bYTzbur5KE-142" target="uB74LkE4q_bYTzbur5KE-138">
          <mxGeometry relative="1" as="geometry" />
        </mxCell>
        <mxCell id="uB74LkE4q_bYTzbur5KE-142" value="g-&amp;gt;survival" style="rounded=1;whiteSpace=wrap;html=1;" vertex="1" parent="1">
          <mxGeometry x="290" y="850" width="80" height="30" as="geometry" />
        </mxCell>
        <mxCell id="uB74LkE4q_bYTzbur5KE-143" style="edgeStyle=orthogonalEdgeStyle;rounded=0;orthogonalLoop=1;jettySize=auto;html=1;exitX=0.5;exitY=0;exitDx=0;exitDy=0;entryX=0.5;entryY=1;entryDx=0;entryDy=0;" edge="1" parent="1" source="uB74LkE4q_bYTzbur5KE-144" target="uB74LkE4q_bYTzbur5KE-138">
          <mxGeometry relative="1" as="geometry" />
        </mxCell>
        <mxCell id="uB74LkE4q_bYTzbur5KE-144" value="g-&amp;gt;old1" style="rounded=1;whiteSpace=wrap;html=1;" vertex="1" parent="1">
          <mxGeometry x="200" y="850" width="80" height="30" as="geometry" />
        </mxCell>
        <mxCell id="uB74LkE4q_bYTzbur5KE-145" style="edgeStyle=orthogonalEdgeStyle;rounded=0;orthogonalLoop=1;jettySize=auto;html=1;exitX=0.5;exitY=0;exitDx=0;exitDy=0;entryX=0.25;entryY=1;entryDx=0;entryDy=0;" edge="1" parent="1" source="uB74LkE4q_bYTzbur5KE-146" target="uB74LkE4q_bYTzbur5KE-138">
          <mxGeometry relative="1" as="geometry" />
        </mxCell>
        <mxCell id="uB74LkE4q_bYTzbur5KE-146" value="g-&amp;gt;reallyold" style="rounded=1;whiteSpace=wrap;html=1;" vertex="1" parent="1">
          <mxGeometry x="110" y="850" width="80" height="30" as="geometry" />
        </mxCell>
        <mxCell id="uB74LkE4q_bYTzbur5KE-147" style="edgeStyle=orthogonalEdgeStyle;rounded=0;orthogonalLoop=1;jettySize=auto;html=1;exitX=0;exitY=0.5;exitDx=0;exitDy=0;entryX=1;entryY=0.5;entryDx=0;entryDy=0;" edge="1" parent="1" source="uB74LkE4q_bYTzbur5KE-148" target="uB74LkE4q_bYTzbur5KE-138">
          <mxGeometry relative="1" as="geometry" />
        </mxCell>
        <mxCell id="uB74LkE4q_bYTzbur5KE-148" value="O3&lt;br&gt;G_NEW" style="rounded=0;whiteSpace=wrap;html=1;" vertex="1" parent="1">
          <mxGeometry x="340" y="740" width="100" height="60" as="geometry" />
        </mxCell>
        <mxCell id="uB74LkE4q_bYTzbur5KE-149" style="edgeStyle=orthogonalEdgeStyle;rounded=0;orthogonalLoop=1;jettySize=auto;html=1;exitX=0;exitY=0.5;exitDx=0;exitDy=0;entryX=1;entryY=0.5;entryDx=0;entryDy=0;" edge="1" parent="1" source="uB74LkE4q_bYTzbur5KE-150" target="uB74LkE4q_bYTzbur5KE-148">
          <mxGeometry relative="1" as="geometry" />
        </mxCell>
        <mxCell id="uB74LkE4q_bYTzbur5KE-150" value="O4&lt;br&gt;G_SURVIVAL" style="rounded=0;whiteSpace=wrap;html=1;fillColor=#647687;strokeColor=#314354;fontColor=#ffffff;" vertex="1" parent="1">
          <mxGeometry x="490" y="740" width="100" height="60" as="geometry" />
        </mxCell>
        <mxCell id="uB74LkE4q_bYTzbur5KE-151" style="edgeStyle=orthogonalEdgeStyle;rounded=0;orthogonalLoop=1;jettySize=auto;html=1;exitX=0;exitY=0.5;exitDx=0;exitDy=0;entryX=1;entryY=0.5;entryDx=0;entryDy=0;" edge="1" parent="1" source="uB74LkE4q_bYTzbur5KE-152" target="uB74LkE4q_bYTzbur5KE-150">
          <mxGeometry relative="1" as="geometry" />
        </mxCell>
        <mxCell id="uB74LkE4q_bYTzbur5KE-152" value="O5&lt;br&gt;G_NEW" style="rounded=0;whiteSpace=wrap;html=1;" vertex="1" parent="1">
          <mxGeometry x="640" y="740" width="100" height="60" as="geometry" />
        </mxCell>
        <mxCell id="uB74LkE4q_bYTzbur5KE-153" value="&lt;span style=&quot;font-size: 16px;&quot;&gt;minor collection&lt;/span&gt;" style="shape=crossbar;whiteSpace=wrap;html=1;rounded=1;labelPosition=center;verticalLabelPosition=top;align=center;verticalAlign=bottom;" vertex="1" parent="1">
          <mxGeometry x="340" y="493" width="400" height="20" as="geometry" />
        </mxCell>
        <mxCell id="uB74LkE4q_bYTzbur5KE-154" value="O1&lt;br&gt;G_OLD" style="rounded=0;whiteSpace=wrap;html=1;fillColor=#647687;fontColor=#ffffff;strokeColor=#314354;" vertex="1" parent="1">
          <mxGeometry x="40" y="1090" width="100" height="60" as="geometry" />
        </mxCell>
        <mxCell id="uB74LkE4q_bYTzbur5KE-155" style="edgeStyle=orthogonalEdgeStyle;rounded=0;orthogonalLoop=1;jettySize=auto;html=1;exitX=0;exitY=0.5;exitDx=0;exitDy=0;" edge="1" parent="1" source="uB74LkE4q_bYTzbur5KE-156" target="uB74LkE4q_bYTzbur5KE-154">
          <mxGeometry relative="1" as="geometry" />
        </mxCell>
        <mxCell id="uB74LkE4q_bYTzbur5KE-156" value="O2&lt;br&gt;G_OLD" style="rounded=0;whiteSpace=wrap;html=1;fillColor=#647687;fontColor=#ffffff;strokeColor=#314354;" vertex="1" parent="1">
          <mxGeometry x="190" y="1090" width="100" height="60" as="geometry" />
        </mxCell>
        <mxCell id="uB74LkE4q_bYTzbur5KE-172" style="edgeStyle=orthogonalEdgeStyle;rounded=0;orthogonalLoop=1;jettySize=auto;html=1;exitX=1;exitY=0.5;exitDx=0;exitDy=0;entryX=0.5;entryY=0;entryDx=0;entryDy=0;" edge="1" parent="1" source="uB74LkE4q_bYTzbur5KE-158" target="uB74LkE4q_bYTzbur5KE-168">
          <mxGeometry relative="1" as="geometry" />
        </mxCell>
        <mxCell id="uB74LkE4q_bYTzbur5KE-158" value="&lt;font style=&quot;font-size: 16px;&quot;&gt;g-&amp;gt;allgc&lt;/font&gt;" style="rounded=1;whiteSpace=wrap;html=1;" vertex="1" parent="1">
          <mxGeometry x="180" y="990" width="120" height="60" as="geometry" />
        </mxCell>
        <mxCell id="uB74LkE4q_bYTzbur5KE-173" style="edgeStyle=orthogonalEdgeStyle;rounded=0;orthogonalLoop=1;jettySize=auto;html=1;exitX=0.5;exitY=0;exitDx=0;exitDy=0;entryX=0.5;entryY=1;entryDx=0;entryDy=0;" edge="1" parent="1" source="uB74LkE4q_bYTzbur5KE-160" target="uB74LkE4q_bYTzbur5KE-168">
          <mxGeometry relative="1" as="geometry" />
        </mxCell>
        <mxCell id="uB74LkE4q_bYTzbur5KE-160" value="g-&amp;gt;survival" style="rounded=1;whiteSpace=wrap;html=1;" vertex="1" parent="1">
          <mxGeometry x="290" y="1200" width="80" height="30" as="geometry" />
        </mxCell>
        <mxCell id="uB74LkE4q_bYTzbur5KE-161" style="edgeStyle=orthogonalEdgeStyle;rounded=0;orthogonalLoop=1;jettySize=auto;html=1;exitX=0.5;exitY=0;exitDx=0;exitDy=0;entryX=0.5;entryY=1;entryDx=0;entryDy=0;" edge="1" parent="1" source="uB74LkE4q_bYTzbur5KE-162" target="uB74LkE4q_bYTzbur5KE-156">
          <mxGeometry relative="1" as="geometry" />
        </mxCell>
        <mxCell id="uB74LkE4q_bYTzbur5KE-162" value="g-&amp;gt;old1" style="rounded=1;whiteSpace=wrap;html=1;" vertex="1" parent="1">
          <mxGeometry x="200" y="1200" width="80" height="30" as="geometry" />
        </mxCell>
        <mxCell id="uB74LkE4q_bYTzbur5KE-163" style="edgeStyle=orthogonalEdgeStyle;rounded=0;orthogonalLoop=1;jettySize=auto;html=1;exitX=0.5;exitY=0;exitDx=0;exitDy=0;entryX=0.25;entryY=1;entryDx=0;entryDy=0;" edge="1" parent="1" source="uB74LkE4q_bYTzbur5KE-164" target="uB74LkE4q_bYTzbur5KE-156">
          <mxGeometry relative="1" as="geometry" />
        </mxCell>
        <mxCell id="uB74LkE4q_bYTzbur5KE-164" value="g-&amp;gt;reallyold" style="rounded=1;whiteSpace=wrap;html=1;" vertex="1" parent="1">
          <mxGeometry x="110" y="1200" width="80" height="30" as="geometry" />
        </mxCell>
        <mxCell id="uB74LkE4q_bYTzbur5KE-171" style="edgeStyle=orthogonalEdgeStyle;rounded=0;orthogonalLoop=1;jettySize=auto;html=1;exitX=0;exitY=0.5;exitDx=0;exitDy=0;entryX=1;entryY=0.5;entryDx=0;entryDy=0;" edge="1" parent="1" source="uB74LkE4q_bYTzbur5KE-168" target="uB74LkE4q_bYTzbur5KE-156">
          <mxGeometry relative="1" as="geometry" />
        </mxCell>
        <mxCell id="uB74LkE4q_bYTzbur5KE-168" value="O4&lt;br&gt;G_SURVIVAL" style="rounded=0;whiteSpace=wrap;html=1;" vertex="1" parent="1">
          <mxGeometry x="490" y="1090" width="100" height="60" as="geometry" />
        </mxCell>
        <mxCell id="uB74LkE4q_bYTzbur5KE-174" value="O1&lt;br&gt;G_OLD" style="rounded=0;whiteSpace=wrap;html=1;fillColor=#647687;fontColor=#ffffff;strokeColor=#314354;" vertex="1" parent="1">
          <mxGeometry x="40" y="1440" width="100" height="60" as="geometry" />
        </mxCell>
        <mxCell id="uB74LkE4q_bYTzbur5KE-175" style="edgeStyle=orthogonalEdgeStyle;rounded=0;orthogonalLoop=1;jettySize=auto;html=1;exitX=0;exitY=0.5;exitDx=0;exitDy=0;" edge="1" parent="1" source="uB74LkE4q_bYTzbur5KE-176" target="uB74LkE4q_bYTzbur5KE-174">
          <mxGeometry relative="1" as="geometry" />
        </mxCell>
        <mxCell id="uB74LkE4q_bYTzbur5KE-176" value="O2&lt;br&gt;G_OLD" style="rounded=0;whiteSpace=wrap;html=1;fillColor=#647687;fontColor=#ffffff;strokeColor=#314354;" vertex="1" parent="1">
          <mxGeometry x="190" y="1440" width="100" height="60" as="geometry" />
        </mxCell>
        <mxCell id="uB74LkE4q_bYTzbur5KE-177" style="edgeStyle=orthogonalEdgeStyle;rounded=0;orthogonalLoop=1;jettySize=auto;html=1;exitX=1;exitY=0.5;exitDx=0;exitDy=0;entryX=0.5;entryY=0;entryDx=0;entryDy=0;" edge="1" parent="1" source="uB74LkE4q_bYTzbur5KE-178" target="uB74LkE4q_bYTzbur5KE-188">
          <mxGeometry relative="1" as="geometry" />
        </mxCell>
        <mxCell id="uB74LkE4q_bYTzbur5KE-178" value="&lt;font style=&quot;font-size: 16px;&quot;&gt;g-&amp;gt;allgc&lt;/font&gt;" style="rounded=1;whiteSpace=wrap;html=1;" vertex="1" parent="1">
          <mxGeometry x="180" y="1340" width="120" height="60" as="geometry" />
        </mxCell>
        <mxCell id="uB74LkE4q_bYTzbur5KE-179" style="edgeStyle=orthogonalEdgeStyle;rounded=0;orthogonalLoop=1;jettySize=auto;html=1;exitX=0.5;exitY=0;exitDx=0;exitDy=0;entryX=0.5;entryY=1;entryDx=0;entryDy=0;" edge="1" parent="1" source="uB74LkE4q_bYTzbur5KE-180" target="uB74LkE4q_bYTzbur5KE-186">
          <mxGeometry relative="1" as="geometry" />
        </mxCell>
        <mxCell id="uB74LkE4q_bYTzbur5KE-180" value="g-&amp;gt;survival" style="rounded=1;whiteSpace=wrap;html=1;" vertex="1" parent="1">
          <mxGeometry x="290" y="1550" width="80" height="30" as="geometry" />
        </mxCell>
        <mxCell id="uB74LkE4q_bYTzbur5KE-181" style="edgeStyle=orthogonalEdgeStyle;rounded=0;orthogonalLoop=1;jettySize=auto;html=1;exitX=0.5;exitY=0;exitDx=0;exitDy=0;entryX=0.5;entryY=1;entryDx=0;entryDy=0;" edge="1" parent="1" source="uB74LkE4q_bYTzbur5KE-182" target="uB74LkE4q_bYTzbur5KE-176">
          <mxGeometry relative="1" as="geometry" />
        </mxCell>
        <mxCell id="uB74LkE4q_bYTzbur5KE-182" value="g-&amp;gt;old1" style="rounded=1;whiteSpace=wrap;html=1;" vertex="1" parent="1">
          <mxGeometry x="200" y="1550" width="80" height="30" as="geometry" />
        </mxCell>
        <mxCell id="uB74LkE4q_bYTzbur5KE-183" style="edgeStyle=orthogonalEdgeStyle;rounded=0;orthogonalLoop=1;jettySize=auto;html=1;exitX=0.5;exitY=0;exitDx=0;exitDy=0;entryX=0.25;entryY=1;entryDx=0;entryDy=0;" edge="1" parent="1" source="uB74LkE4q_bYTzbur5KE-184" target="uB74LkE4q_bYTzbur5KE-176">
          <mxGeometry relative="1" as="geometry" />
        </mxCell>
        <mxCell id="uB74LkE4q_bYTzbur5KE-184" value="g-&amp;gt;reallyold" style="rounded=1;whiteSpace=wrap;html=1;" vertex="1" parent="1">
          <mxGeometry x="110" y="1550" width="80" height="30" as="geometry" />
        </mxCell>
        <mxCell id="uB74LkE4q_bYTzbur5KE-185" style="edgeStyle=orthogonalEdgeStyle;rounded=0;orthogonalLoop=1;jettySize=auto;html=1;exitX=0;exitY=0.5;exitDx=0;exitDy=0;entryX=1;entryY=0.5;entryDx=0;entryDy=0;" edge="1" parent="1" source="uB74LkE4q_bYTzbur5KE-186" target="uB74LkE4q_bYTzbur5KE-176">
          <mxGeometry relative="1" as="geometry" />
        </mxCell>
        <mxCell id="uB74LkE4q_bYTzbur5KE-186" value="O4&lt;br&gt;G_SURVIVAL" style="rounded=0;whiteSpace=wrap;html=1;" vertex="1" parent="1">
          <mxGeometry x="340" y="1440" width="100" height="60" as="geometry" />
        </mxCell>
        <mxCell id="uB74LkE4q_bYTzbur5KE-189" style="edgeStyle=orthogonalEdgeStyle;rounded=0;orthogonalLoop=1;jettySize=auto;html=1;exitX=0;exitY=0.5;exitDx=0;exitDy=0;entryX=1;entryY=0.5;entryDx=0;entryDy=0;" edge="1" parent="1" source="uB74LkE4q_bYTzbur5KE-187" target="uB74LkE4q_bYTzbur5KE-186">
          <mxGeometry relative="1" as="geometry" />
        </mxCell>
        <mxCell id="uB74LkE4q_bYTzbur5KE-187" value="O5&lt;br&gt;G_NEW" style="rounded=0;whiteSpace=wrap;html=1;" vertex="1" parent="1">
          <mxGeometry x="490" y="1440" width="100" height="60" as="geometry" />
        </mxCell>
        <mxCell id="uB74LkE4q_bYTzbur5KE-190" style="edgeStyle=orthogonalEdgeStyle;rounded=0;orthogonalLoop=1;jettySize=auto;html=1;exitX=0;exitY=0.5;exitDx=0;exitDy=0;entryX=1;entryY=0.5;entryDx=0;entryDy=0;" edge="1" parent="1" source="uB74LkE4q_bYTzbur5KE-188" target="uB74LkE4q_bYTzbur5KE-187">
          <mxGeometry relative="1" as="geometry" />
        </mxCell>
        <mxCell id="uB74LkE4q_bYTzbur5KE-188" value="O6&lt;br&gt;G_NEW" style="rounded=0;whiteSpace=wrap;html=1;" vertex="1" parent="1">
          <mxGeometry x="640" y="1440" width="100" height="60" as="geometry" />
        </mxCell>
        <mxCell id="uB74LkE4q_bYTzbur5KE-191" value="O1&lt;br&gt;G_OLD" style="rounded=0;whiteSpace=wrap;html=1;fillColor=#647687;fontColor=#ffffff;strokeColor=#314354;" vertex="1" parent="1">
          <mxGeometry x="40" y="1770" width="100" height="60" as="geometry" />
        </mxCell>
        <mxCell id="uB74LkE4q_bYTzbur5KE-192" style="edgeStyle=orthogonalEdgeStyle;rounded=0;orthogonalLoop=1;jettySize=auto;html=1;exitX=0;exitY=0.5;exitDx=0;exitDy=0;" edge="1" parent="1" source="uB74LkE4q_bYTzbur5KE-193" target="uB74LkE4q_bYTzbur5KE-191">
          <mxGeometry relative="1" as="geometry" />
        </mxCell>
        <mxCell id="uB74LkE4q_bYTzbur5KE-193" value="O2&lt;br&gt;G_OLD" style="rounded=0;whiteSpace=wrap;html=1;fillColor=#647687;fontColor=#ffffff;strokeColor=#314354;" vertex="1" parent="1">
          <mxGeometry x="190" y="1770" width="100" height="60" as="geometry" />
        </mxCell>
        <mxCell id="uB74LkE4q_bYTzbur5KE-194" style="edgeStyle=orthogonalEdgeStyle;rounded=0;orthogonalLoop=1;jettySize=auto;html=1;exitX=1;exitY=0.5;exitDx=0;exitDy=0;entryX=0.5;entryY=0;entryDx=0;entryDy=0;" edge="1" parent="1" source="uB74LkE4q_bYTzbur5KE-195" target="uB74LkE4q_bYTzbur5KE-207">
          <mxGeometry relative="1" as="geometry" />
        </mxCell>
        <mxCell id="uB74LkE4q_bYTzbur5KE-195" value="&lt;font style=&quot;font-size: 16px;&quot;&gt;g-&amp;gt;allgc&lt;/font&gt;" style="rounded=1;whiteSpace=wrap;html=1;" vertex="1" parent="1">
          <mxGeometry x="180" y="1670" width="120" height="60" as="geometry" />
        </mxCell>
        <mxCell id="uB74LkE4q_bYTzbur5KE-196" style="edgeStyle=orthogonalEdgeStyle;rounded=0;orthogonalLoop=1;jettySize=auto;html=1;exitX=0.5;exitY=0;exitDx=0;exitDy=0;entryX=0.5;entryY=1;entryDx=0;entryDy=0;" edge="1" parent="1" source="uB74LkE4q_bYTzbur5KE-197" target="uB74LkE4q_bYTzbur5KE-203">
          <mxGeometry relative="1" as="geometry" />
        </mxCell>
        <mxCell id="uB74LkE4q_bYTzbur5KE-197" value="g-&amp;gt;survival" style="rounded=1;whiteSpace=wrap;html=1;" vertex="1" parent="1">
          <mxGeometry x="290" y="1880" width="80" height="30" as="geometry" />
        </mxCell>
        <mxCell id="uB74LkE4q_bYTzbur5KE-198" style="edgeStyle=orthogonalEdgeStyle;rounded=0;orthogonalLoop=1;jettySize=auto;html=1;exitX=0.5;exitY=0;exitDx=0;exitDy=0;entryX=0.5;entryY=1;entryDx=0;entryDy=0;" edge="1" parent="1" source="uB74LkE4q_bYTzbur5KE-199" target="uB74LkE4q_bYTzbur5KE-193">
          <mxGeometry relative="1" as="geometry" />
        </mxCell>
        <mxCell id="uB74LkE4q_bYTzbur5KE-199" value="g-&amp;gt;old1" style="rounded=1;whiteSpace=wrap;html=1;" vertex="1" parent="1">
          <mxGeometry x="200" y="1880" width="80" height="30" as="geometry" />
        </mxCell>
        <mxCell id="uB74LkE4q_bYTzbur5KE-200" style="edgeStyle=orthogonalEdgeStyle;rounded=0;orthogonalLoop=1;jettySize=auto;html=1;exitX=0.5;exitY=0;exitDx=0;exitDy=0;entryX=0.25;entryY=1;entryDx=0;entryDy=0;" edge="1" parent="1" source="uB74LkE4q_bYTzbur5KE-201" target="uB74LkE4q_bYTzbur5KE-193">
          <mxGeometry relative="1" as="geometry" />
        </mxCell>
        <mxCell id="uB74LkE4q_bYTzbur5KE-201" value="g-&amp;gt;reallyold" style="rounded=1;whiteSpace=wrap;html=1;" vertex="1" parent="1">
          <mxGeometry x="110" y="1880" width="80" height="30" as="geometry" />
        </mxCell>
        <mxCell id="uB74LkE4q_bYTzbur5KE-202" style="edgeStyle=orthogonalEdgeStyle;rounded=0;orthogonalLoop=1;jettySize=auto;html=1;exitX=0;exitY=0.5;exitDx=0;exitDy=0;entryX=1;entryY=0.5;entryDx=0;entryDy=0;" edge="1" parent="1" source="uB74LkE4q_bYTzbur5KE-203" target="uB74LkE4q_bYTzbur5KE-193">
          <mxGeometry relative="1" as="geometry" />
        </mxCell>
        <mxCell id="uB74LkE4q_bYTzbur5KE-203" value="O4&lt;br&gt;G_SURVIVAL" style="rounded=0;whiteSpace=wrap;html=1;fillColor=#647687;fontColor=#ffffff;strokeColor=#314354;" vertex="1" parent="1">
          <mxGeometry x="340" y="1770" width="100" height="60" as="geometry" />
        </mxCell>
        <mxCell id="uB74LkE4q_bYTzbur5KE-204" style="edgeStyle=orthogonalEdgeStyle;rounded=0;orthogonalLoop=1;jettySize=auto;html=1;exitX=0;exitY=0.5;exitDx=0;exitDy=0;entryX=1;entryY=0.5;entryDx=0;entryDy=0;" edge="1" parent="1" source="uB74LkE4q_bYTzbur5KE-205" target="uB74LkE4q_bYTzbur5KE-203">
          <mxGeometry relative="1" as="geometry" />
        </mxCell>
        <mxCell id="uB74LkE4q_bYTzbur5KE-205" value="O5&lt;br&gt;G_NEW" style="rounded=0;whiteSpace=wrap;html=1;" vertex="1" parent="1">
          <mxGeometry x="490" y="1770" width="100" height="60" as="geometry" />
        </mxCell>
        <mxCell id="uB74LkE4q_bYTzbur5KE-206" style="edgeStyle=orthogonalEdgeStyle;rounded=0;orthogonalLoop=1;jettySize=auto;html=1;exitX=0;exitY=0.5;exitDx=0;exitDy=0;entryX=1;entryY=0.5;entryDx=0;entryDy=0;" edge="1" parent="1" source="uB74LkE4q_bYTzbur5KE-207" target="uB74LkE4q_bYTzbur5KE-205">
          <mxGeometry relative="1" as="geometry" />
        </mxCell>
        <mxCell id="uB74LkE4q_bYTzbur5KE-207" value="O6&lt;br&gt;G_SURVIVAL" style="rounded=0;whiteSpace=wrap;html=1;fillColor=#647687;strokeColor=#314354;fontColor=#ffffff;" vertex="1" parent="1">
          <mxGeometry x="640" y="1770" width="100" height="60" as="geometry" />
        </mxCell>
        <mxCell id="uB74LkE4q_bYTzbur5KE-208" value="&lt;font style=&quot;font-size: 16px;&quot;&gt;处理对象&lt;/font&gt;" style="shape=crossbar;whiteSpace=wrap;html=1;rounded=1;labelPosition=center;verticalLabelPosition=top;align=center;verticalAlign=bottom;" vertex="1" parent="1">
          <mxGeometry x="490" y="1555" width="250" height="20" as="geometry" />
        </mxCell>
        <mxCell id="uB74LkE4q_bYTzbur5KE-210" value="O1&lt;br&gt;G_OLD" style="rounded=0;whiteSpace=wrap;html=1;fillColor=#647687;fontColor=#ffffff;strokeColor=#314354;" vertex="1" parent="1">
          <mxGeometry x="40" y="2100" width="100" height="60" as="geometry" />
        </mxCell>
        <mxCell id="uB74LkE4q_bYTzbur5KE-211" style="edgeStyle=orthogonalEdgeStyle;rounded=0;orthogonalLoop=1;jettySize=auto;html=1;exitX=0;exitY=0.5;exitDx=0;exitDy=0;" edge="1" parent="1" source="uB74LkE4q_bYTzbur5KE-212" target="uB74LkE4q_bYTzbur5KE-210">
          <mxGeometry relative="1" as="geometry" />
        </mxCell>
        <mxCell id="uB74LkE4q_bYTzbur5KE-212" value="O2&lt;br&gt;G_OLD" style="rounded=0;whiteSpace=wrap;html=1;fillColor=#647687;fontColor=#ffffff;strokeColor=#314354;" vertex="1" parent="1">
          <mxGeometry x="190" y="2100" width="100" height="60" as="geometry" />
        </mxCell>
        <mxCell id="uB74LkE4q_bYTzbur5KE-213" style="edgeStyle=orthogonalEdgeStyle;rounded=0;orthogonalLoop=1;jettySize=auto;html=1;exitX=1;exitY=0.5;exitDx=0;exitDy=0;entryX=0.5;entryY=0;entryDx=0;entryDy=0;" edge="1" parent="1" source="uB74LkE4q_bYTzbur5KE-214" target="uB74LkE4q_bYTzbur5KE-226">
          <mxGeometry relative="1" as="geometry" />
        </mxCell>
        <mxCell id="uB74LkE4q_bYTzbur5KE-214" value="&lt;font style=&quot;font-size: 16px;&quot;&gt;g-&amp;gt;allgc&lt;/font&gt;" style="rounded=1;whiteSpace=wrap;html=1;" vertex="1" parent="1">
          <mxGeometry x="180" y="2000" width="120" height="60" as="geometry" />
        </mxCell>
        <mxCell id="uB74LkE4q_bYTzbur5KE-215" style="edgeStyle=orthogonalEdgeStyle;rounded=0;orthogonalLoop=1;jettySize=auto;html=1;exitX=0.5;exitY=0;exitDx=0;exitDy=0;entryX=0.5;entryY=1;entryDx=0;entryDy=0;" edge="1" parent="1" source="uB74LkE4q_bYTzbur5KE-216" target="uB74LkE4q_bYTzbur5KE-222">
          <mxGeometry relative="1" as="geometry" />
        </mxCell>
        <mxCell id="uB74LkE4q_bYTzbur5KE-216" value="g-&amp;gt;survival" style="rounded=1;whiteSpace=wrap;html=1;" vertex="1" parent="1">
          <mxGeometry x="290" y="2210" width="80" height="30" as="geometry" />
        </mxCell>
        <mxCell id="uB74LkE4q_bYTzbur5KE-217" style="edgeStyle=orthogonalEdgeStyle;rounded=0;orthogonalLoop=1;jettySize=auto;html=1;exitX=0.5;exitY=0;exitDx=0;exitDy=0;entryX=0.5;entryY=1;entryDx=0;entryDy=0;" edge="1" parent="1" source="uB74LkE4q_bYTzbur5KE-218" target="uB74LkE4q_bYTzbur5KE-212">
          <mxGeometry relative="1" as="geometry" />
        </mxCell>
        <mxCell id="uB74LkE4q_bYTzbur5KE-218" value="g-&amp;gt;old1" style="rounded=1;whiteSpace=wrap;html=1;" vertex="1" parent="1">
          <mxGeometry x="200" y="2210" width="80" height="30" as="geometry" />
        </mxCell>
        <mxCell id="uB74LkE4q_bYTzbur5KE-219" style="edgeStyle=orthogonalEdgeStyle;rounded=0;orthogonalLoop=1;jettySize=auto;html=1;exitX=0.5;exitY=0;exitDx=0;exitDy=0;entryX=0.25;entryY=1;entryDx=0;entryDy=0;" edge="1" parent="1" source="uB74LkE4q_bYTzbur5KE-220" target="uB74LkE4q_bYTzbur5KE-212">
          <mxGeometry relative="1" as="geometry" />
        </mxCell>
        <mxCell id="uB74LkE4q_bYTzbur5KE-220" value="g-&amp;gt;reallyold" style="rounded=1;whiteSpace=wrap;html=1;" vertex="1" parent="1">
          <mxGeometry x="110" y="2210" width="80" height="30" as="geometry" />
        </mxCell>
        <mxCell id="uB74LkE4q_bYTzbur5KE-221" style="edgeStyle=orthogonalEdgeStyle;rounded=0;orthogonalLoop=1;jettySize=auto;html=1;exitX=0;exitY=0.5;exitDx=0;exitDy=0;entryX=1;entryY=0.5;entryDx=0;entryDy=0;" edge="1" parent="1" source="uB74LkE4q_bYTzbur5KE-222" target="uB74LkE4q_bYTzbur5KE-212">
          <mxGeometry relative="1" as="geometry" />
        </mxCell>
        <mxCell id="uB74LkE4q_bYTzbur5KE-222" value="O4&lt;br&gt;G_SURVIVAL" style="rounded=0;whiteSpace=wrap;html=1;fillColor=#647687;fontColor=#ffffff;strokeColor=#314354;" vertex="1" parent="1">
          <mxGeometry x="340" y="2100" width="100" height="60" as="geometry" />
        </mxCell>
        <mxCell id="uB74LkE4q_bYTzbur5KE-225" style="edgeStyle=orthogonalEdgeStyle;rounded=0;orthogonalLoop=1;jettySize=auto;html=1;exitX=0;exitY=0.5;exitDx=0;exitDy=0;entryX=1;entryY=0.5;entryDx=0;entryDy=0;" edge="1" parent="1" source="uB74LkE4q_bYTzbur5KE-226" target="uB74LkE4q_bYTzbur5KE-222">
          <mxGeometry relative="1" as="geometry">
            <mxPoint x="590" y="2130" as="targetPoint" />
          </mxGeometry>
        </mxCell>
        <mxCell id="uB74LkE4q_bYTzbur5KE-226" value="O6&lt;br&gt;G_SURVIVAL" style="rounded=0;whiteSpace=wrap;html=1;" vertex="1" parent="1">
          <mxGeometry x="640" y="2100" width="100" height="60" as="geometry" />
        </mxCell>
        <mxCell id="uB74LkE4q_bYTzbur5KE-227" value="O1&lt;br&gt;G_OLD" style="rounded=0;whiteSpace=wrap;html=1;fillColor=#647687;fontColor=#ffffff;strokeColor=#314354;" vertex="1" parent="1">
          <mxGeometry x="40" y="2420" width="100" height="60" as="geometry" />
        </mxCell>
        <mxCell id="uB74LkE4q_bYTzbur5KE-228" style="edgeStyle=orthogonalEdgeStyle;rounded=0;orthogonalLoop=1;jettySize=auto;html=1;exitX=0;exitY=0.5;exitDx=0;exitDy=0;" edge="1" parent="1" source="uB74LkE4q_bYTzbur5KE-229" target="uB74LkE4q_bYTzbur5KE-227">
          <mxGeometry relative="1" as="geometry" />
        </mxCell>
        <mxCell id="uB74LkE4q_bYTzbur5KE-229" value="O2&lt;br&gt;G_OLD" style="rounded=0;whiteSpace=wrap;html=1;fillColor=#647687;fontColor=#ffffff;strokeColor=#314354;" vertex="1" parent="1">
          <mxGeometry x="190" y="2420" width="100" height="60" as="geometry" />
        </mxCell>
        <mxCell id="uB74LkE4q_bYTzbur5KE-230" style="edgeStyle=orthogonalEdgeStyle;rounded=0;orthogonalLoop=1;jettySize=auto;html=1;exitX=1;exitY=0.5;exitDx=0;exitDy=0;entryX=0.5;entryY=0;entryDx=0;entryDy=0;" edge="1" parent="1" source="uB74LkE4q_bYTzbur5KE-231" target="uB74LkE4q_bYTzbur5KE-241">
          <mxGeometry relative="1" as="geometry" />
        </mxCell>
        <mxCell id="uB74LkE4q_bYTzbur5KE-231" value="&lt;font style=&quot;font-size: 16px;&quot;&gt;g-&amp;gt;allgc&lt;/font&gt;" style="rounded=1;whiteSpace=wrap;html=1;" vertex="1" parent="1">
          <mxGeometry x="180" y="2320" width="120" height="60" as="geometry" />
        </mxCell>
        <mxCell id="uB74LkE4q_bYTzbur5KE-242" style="edgeStyle=orthogonalEdgeStyle;rounded=0;orthogonalLoop=1;jettySize=auto;html=1;exitX=0.5;exitY=0;exitDx=0;exitDy=0;entryX=0.5;entryY=1;entryDx=0;entryDy=0;" edge="1" parent="1" source="uB74LkE4q_bYTzbur5KE-233" target="uB74LkE4q_bYTzbur5KE-241">
          <mxGeometry relative="1" as="geometry">
            <Array as="points">
              <mxPoint x="330" y="2520" />
              <mxPoint x="690" y="2520" />
            </Array>
          </mxGeometry>
        </mxCell>
        <mxCell id="uB74LkE4q_bYTzbur5KE-233" value="g-&amp;gt;survival" style="rounded=1;whiteSpace=wrap;html=1;" vertex="1" parent="1">
          <mxGeometry x="290" y="2530" width="80" height="30" as="geometry" />
        </mxCell>
        <mxCell id="uB74LkE4q_bYTzbur5KE-243" style="edgeStyle=orthogonalEdgeStyle;rounded=0;orthogonalLoop=1;jettySize=auto;html=1;exitX=0.5;exitY=0;exitDx=0;exitDy=0;" edge="1" parent="1" source="uB74LkE4q_bYTzbur5KE-235" target="uB74LkE4q_bYTzbur5KE-239">
          <mxGeometry relative="1" as="geometry">
            <Array as="points">
              <mxPoint x="240" y="2500" />
              <mxPoint x="390" y="2500" />
            </Array>
          </mxGeometry>
        </mxCell>
        <mxCell id="uB74LkE4q_bYTzbur5KE-235" value="g-&amp;gt;old1" style="rounded=1;whiteSpace=wrap;html=1;" vertex="1" parent="1">
          <mxGeometry x="200" y="2530" width="80" height="30" as="geometry" />
        </mxCell>
        <mxCell id="uB74LkE4q_bYTzbur5KE-236" style="edgeStyle=orthogonalEdgeStyle;rounded=0;orthogonalLoop=1;jettySize=auto;html=1;exitX=0.5;exitY=0;exitDx=0;exitDy=0;entryX=0.25;entryY=1;entryDx=0;entryDy=0;" edge="1" parent="1" source="uB74LkE4q_bYTzbur5KE-237" target="uB74LkE4q_bYTzbur5KE-229">
          <mxGeometry relative="1" as="geometry" />
        </mxCell>
        <mxCell id="uB74LkE4q_bYTzbur5KE-237" value="g-&amp;gt;reallyold" style="rounded=1;whiteSpace=wrap;html=1;" vertex="1" parent="1">
          <mxGeometry x="110" y="2530" width="80" height="30" as="geometry" />
        </mxCell>
        <mxCell id="uB74LkE4q_bYTzbur5KE-238" style="edgeStyle=orthogonalEdgeStyle;rounded=0;orthogonalLoop=1;jettySize=auto;html=1;exitX=0;exitY=0.5;exitDx=0;exitDy=0;entryX=1;entryY=0.5;entryDx=0;entryDy=0;" edge="1" parent="1" source="uB74LkE4q_bYTzbur5KE-239" target="uB74LkE4q_bYTzbur5KE-229">
          <mxGeometry relative="1" as="geometry" />
        </mxCell>
        <mxCell id="uB74LkE4q_bYTzbur5KE-239" value="O4&lt;br&gt;G_OLD1" style="rounded=0;whiteSpace=wrap;html=1;fillColor=#647687;fontColor=#ffffff;strokeColor=#314354;" vertex="1" parent="1">
          <mxGeometry x="340" y="2420" width="100" height="60" as="geometry" />
        </mxCell>
        <mxCell id="uB74LkE4q_bYTzbur5KE-240" style="edgeStyle=orthogonalEdgeStyle;rounded=0;orthogonalLoop=1;jettySize=auto;html=1;exitX=0;exitY=0.5;exitDx=0;exitDy=0;entryX=1;entryY=0.5;entryDx=0;entryDy=0;" edge="1" parent="1" source="uB74LkE4q_bYTzbur5KE-241" target="uB74LkE4q_bYTzbur5KE-239">
          <mxGeometry relative="1" as="geometry">
            <mxPoint x="590" y="2450" as="targetPoint" />
          </mxGeometry>
        </mxCell>
        <mxCell id="uB74LkE4q_bYTzbur5KE-241" value="O6&lt;br&gt;G_SURVIVAL" style="rounded=0;whiteSpace=wrap;html=1;" vertex="1" parent="1">
          <mxGeometry x="640" y="2420" width="100" height="60" as="geometry" />
        </mxCell>
        <mxCell id="uB74LkE4q_bYTzbur5KE-244" value="O1&lt;br&gt;G_OLD" style="rounded=0;whiteSpace=wrap;html=1;fillColor=#647687;fontColor=#ffffff;strokeColor=#314354;" vertex="1" parent="1">
          <mxGeometry x="40" y="2730" width="100" height="60" as="geometry" />
        </mxCell>
        <mxCell id="uB74LkE4q_bYTzbur5KE-245" style="edgeStyle=orthogonalEdgeStyle;rounded=0;orthogonalLoop=1;jettySize=auto;html=1;exitX=0;exitY=0.5;exitDx=0;exitDy=0;" edge="1" parent="1" source="uB74LkE4q_bYTzbur5KE-246" target="uB74LkE4q_bYTzbur5KE-244">
          <mxGeometry relative="1" as="geometry" />
        </mxCell>
        <mxCell id="uB74LkE4q_bYTzbur5KE-246" value="O2&lt;br&gt;G_OLD" style="rounded=0;whiteSpace=wrap;html=1;fillColor=#647687;fontColor=#ffffff;strokeColor=#314354;" vertex="1" parent="1">
          <mxGeometry x="190" y="2730" width="100" height="60" as="geometry" />
        </mxCell>
        <mxCell id="uB74LkE4q_bYTzbur5KE-247" style="edgeStyle=orthogonalEdgeStyle;rounded=0;orthogonalLoop=1;jettySize=auto;html=1;exitX=1;exitY=0.5;exitDx=0;exitDy=0;entryX=0.5;entryY=0;entryDx=0;entryDy=0;" edge="1" parent="1" source="uB74LkE4q_bYTzbur5KE-248" target="uB74LkE4q_bYTzbur5KE-263">
          <mxGeometry relative="1" as="geometry" />
        </mxCell>
        <mxCell id="uB74LkE4q_bYTzbur5KE-248" value="&lt;font style=&quot;font-size: 16px;&quot;&gt;g-&amp;gt;allgc&lt;/font&gt;" style="rounded=1;whiteSpace=wrap;html=1;" vertex="1" parent="1">
          <mxGeometry x="180" y="2630" width="120" height="60" as="geometry" />
        </mxCell>
        <mxCell id="uB74LkE4q_bYTzbur5KE-249" style="edgeStyle=orthogonalEdgeStyle;rounded=0;orthogonalLoop=1;jettySize=auto;html=1;exitX=0.5;exitY=0;exitDx=0;exitDy=0;entryX=0.5;entryY=1;entryDx=0;entryDy=0;" edge="1" parent="1" source="uB74LkE4q_bYTzbur5KE-250" target="uB74LkE4q_bYTzbur5KE-258">
          <mxGeometry relative="1" as="geometry">
            <Array as="points">
              <mxPoint x="330" y="2830" />
              <mxPoint x="540" y="2830" />
            </Array>
          </mxGeometry>
        </mxCell>
        <mxCell id="uB74LkE4q_bYTzbur5KE-250" value="g-&amp;gt;survival" style="rounded=1;whiteSpace=wrap;html=1;" vertex="1" parent="1">
          <mxGeometry x="290" y="2840" width="80" height="30" as="geometry" />
        </mxCell>
        <mxCell id="uB74LkE4q_bYTzbur5KE-251" style="edgeStyle=orthogonalEdgeStyle;rounded=0;orthogonalLoop=1;jettySize=auto;html=1;exitX=0.5;exitY=0;exitDx=0;exitDy=0;" edge="1" parent="1" source="uB74LkE4q_bYTzbur5KE-252" target="uB74LkE4q_bYTzbur5KE-256">
          <mxGeometry relative="1" as="geometry">
            <Array as="points">
              <mxPoint x="240" y="2810" />
              <mxPoint x="390" y="2810" />
            </Array>
          </mxGeometry>
        </mxCell>
        <mxCell id="uB74LkE4q_bYTzbur5KE-252" value="g-&amp;gt;old1" style="rounded=1;whiteSpace=wrap;html=1;" vertex="1" parent="1">
          <mxGeometry x="200" y="2840" width="80" height="30" as="geometry" />
        </mxCell>
        <mxCell id="uB74LkE4q_bYTzbur5KE-253" style="edgeStyle=orthogonalEdgeStyle;rounded=0;orthogonalLoop=1;jettySize=auto;html=1;exitX=0.5;exitY=0;exitDx=0;exitDy=0;entryX=0.25;entryY=1;entryDx=0;entryDy=0;" edge="1" parent="1" source="uB74LkE4q_bYTzbur5KE-254" target="uB74LkE4q_bYTzbur5KE-246">
          <mxGeometry relative="1" as="geometry" />
        </mxCell>
        <mxCell id="uB74LkE4q_bYTzbur5KE-254" value="g-&amp;gt;reallyold" style="rounded=1;whiteSpace=wrap;html=1;" vertex="1" parent="1">
          <mxGeometry x="110" y="2840" width="80" height="30" as="geometry" />
        </mxCell>
        <mxCell id="uB74LkE4q_bYTzbur5KE-255" style="edgeStyle=orthogonalEdgeStyle;rounded=0;orthogonalLoop=1;jettySize=auto;html=1;exitX=0;exitY=0.5;exitDx=0;exitDy=0;entryX=1;entryY=0.5;entryDx=0;entryDy=0;" edge="1" parent="1" source="uB74LkE4q_bYTzbur5KE-256" target="uB74LkE4q_bYTzbur5KE-246">
          <mxGeometry relative="1" as="geometry" />
        </mxCell>
        <mxCell id="uB74LkE4q_bYTzbur5KE-256" value="O4&lt;br&gt;G_OLD" style="rounded=0;whiteSpace=wrap;html=1;fillColor=#647687;strokeColor=#314354;fontColor=#ffffff;" vertex="1" parent="1">
          <mxGeometry x="340" y="2730" width="100" height="60" as="geometry" />
        </mxCell>
        <mxCell id="uB74LkE4q_bYTzbur5KE-257" style="edgeStyle=orthogonalEdgeStyle;rounded=0;orthogonalLoop=1;jettySize=auto;html=1;exitX=0;exitY=0.5;exitDx=0;exitDy=0;entryX=1;entryY=0.5;entryDx=0;entryDy=0;" edge="1" parent="1" source="uB74LkE4q_bYTzbur5KE-258" target="uB74LkE4q_bYTzbur5KE-256">
          <mxGeometry relative="1" as="geometry">
            <mxPoint x="590" y="2760" as="targetPoint" />
          </mxGeometry>
        </mxCell>
        <mxCell id="uB74LkE4q_bYTzbur5KE-258" value="O6&lt;br&gt;G_SURVIVAL" style="rounded=0;whiteSpace=wrap;html=1;" vertex="1" parent="1">
          <mxGeometry x="490" y="2730" width="100" height="60" as="geometry" />
        </mxCell>
        <mxCell id="uB74LkE4q_bYTzbur5KE-261" style="edgeStyle=orthogonalEdgeStyle;rounded=0;orthogonalLoop=1;jettySize=auto;html=1;exitX=0;exitY=0.5;exitDx=0;exitDy=0;entryX=1;entryY=0.5;entryDx=0;entryDy=0;" edge="1" parent="1" source="uB74LkE4q_bYTzbur5KE-259" target="uB74LkE4q_bYTzbur5KE-258">
          <mxGeometry relative="1" as="geometry" />
        </mxCell>
        <mxCell id="uB74LkE4q_bYTzbur5KE-259" value="O7&lt;br&gt;G_NEW" style="rounded=0;whiteSpace=wrap;html=1;" vertex="1" parent="1">
          <mxGeometry x="640" y="2730" width="100" height="60" as="geometry" />
        </mxCell>
        <mxCell id="uB74LkE4q_bYTzbur5KE-262" style="edgeStyle=orthogonalEdgeStyle;rounded=0;orthogonalLoop=1;jettySize=auto;html=1;exitX=0;exitY=0.5;exitDx=0;exitDy=0;entryX=1;entryY=0.5;entryDx=0;entryDy=0;" edge="1" parent="1" source="uB74LkE4q_bYTzbur5KE-260" target="uB74LkE4q_bYTzbur5KE-259">
          <mxGeometry relative="1" as="geometry" />
        </mxCell>
        <mxCell id="uB74LkE4q_bYTzbur5KE-260" value="O8&lt;br&gt;G_NEW" style="rounded=0;whiteSpace=wrap;html=1;" vertex="1" parent="1">
          <mxGeometry x="790" y="2730" width="100" height="60" as="geometry" />
        </mxCell>
        <mxCell id="uB74LkE4q_bYTzbur5KE-264" style="edgeStyle=orthogonalEdgeStyle;rounded=0;orthogonalLoop=1;jettySize=auto;html=1;exitX=0;exitY=0.5;exitDx=0;exitDy=0;entryX=1;entryY=0.5;entryDx=0;entryDy=0;" edge="1" parent="1" source="uB74LkE4q_bYTzbur5KE-263" target="uB74LkE4q_bYTzbur5KE-260">
          <mxGeometry relative="1" as="geometry" />
        </mxCell>
        <mxCell id="uB74LkE4q_bYTzbur5KE-263" value="O9&lt;br&gt;G_NEW" style="rounded=0;whiteSpace=wrap;html=1;" vertex="1" parent="1">
          <mxGeometry x="940" y="2730" width="100" height="60" as="geometry" />
        </mxCell>
        <mxCell id="uB74LkE4q_bYTzbur5KE-265" value="O1&lt;br&gt;G_OLD" style="rounded=0;whiteSpace=wrap;html=1;fillColor=#647687;fontColor=#ffffff;strokeColor=#314354;" vertex="1" parent="1">
          <mxGeometry x="40" y="3050" width="100" height="60" as="geometry" />
        </mxCell>
        <mxCell id="uB74LkE4q_bYTzbur5KE-266" style="edgeStyle=orthogonalEdgeStyle;rounded=0;orthogonalLoop=1;jettySize=auto;html=1;exitX=0;exitY=0.5;exitDx=0;exitDy=0;" edge="1" parent="1" source="uB74LkE4q_bYTzbur5KE-267" target="uB74LkE4q_bYTzbur5KE-265">
          <mxGeometry relative="1" as="geometry" />
        </mxCell>
        <mxCell id="uB74LkE4q_bYTzbur5KE-267" value="O2&lt;br&gt;G_OLD" style="rounded=0;whiteSpace=wrap;html=1;fillColor=#647687;fontColor=#ffffff;strokeColor=#314354;" vertex="1" parent="1">
          <mxGeometry x="190" y="3050" width="100" height="60" as="geometry" />
        </mxCell>
        <mxCell id="uB74LkE4q_bYTzbur5KE-268" style="edgeStyle=orthogonalEdgeStyle;rounded=0;orthogonalLoop=1;jettySize=auto;html=1;exitX=1;exitY=0.5;exitDx=0;exitDy=0;entryX=0.5;entryY=0;entryDx=0;entryDy=0;" edge="1" parent="1" source="uB74LkE4q_bYTzbur5KE-269" target="uB74LkE4q_bYTzbur5KE-285">
          <mxGeometry relative="1" as="geometry" />
        </mxCell>
        <mxCell id="uB74LkE4q_bYTzbur5KE-269" value="&lt;font style=&quot;font-size: 16px;&quot;&gt;g-&amp;gt;allgc&lt;/font&gt;" style="rounded=1;whiteSpace=wrap;html=1;" vertex="1" parent="1">
          <mxGeometry x="180" y="2950" width="120" height="60" as="geometry" />
        </mxCell>
        <mxCell id="uB74LkE4q_bYTzbur5KE-270" style="edgeStyle=orthogonalEdgeStyle;rounded=0;orthogonalLoop=1;jettySize=auto;html=1;exitX=0.5;exitY=0;exitDx=0;exitDy=0;entryX=0.5;entryY=1;entryDx=0;entryDy=0;" edge="1" parent="1" source="uB74LkE4q_bYTzbur5KE-271" target="uB74LkE4q_bYTzbur5KE-279">
          <mxGeometry relative="1" as="geometry">
            <Array as="points">
              <mxPoint x="330" y="3150" />
              <mxPoint x="540" y="3150" />
            </Array>
          </mxGeometry>
        </mxCell>
        <mxCell id="uB74LkE4q_bYTzbur5KE-271" value="g-&amp;gt;survival" style="rounded=1;whiteSpace=wrap;html=1;" vertex="1" parent="1">
          <mxGeometry x="290" y="3160" width="80" height="30" as="geometry" />
        </mxCell>
        <mxCell id="uB74LkE4q_bYTzbur5KE-272" style="edgeStyle=orthogonalEdgeStyle;rounded=0;orthogonalLoop=1;jettySize=auto;html=1;exitX=0.5;exitY=0;exitDx=0;exitDy=0;" edge="1" parent="1" source="uB74LkE4q_bYTzbur5KE-273" target="uB74LkE4q_bYTzbur5KE-277">
          <mxGeometry relative="1" as="geometry">
            <Array as="points">
              <mxPoint x="240" y="3130" />
              <mxPoint x="390" y="3130" />
            </Array>
          </mxGeometry>
        </mxCell>
        <mxCell id="uB74LkE4q_bYTzbur5KE-273" value="g-&amp;gt;old1" style="rounded=1;whiteSpace=wrap;html=1;" vertex="1" parent="1">
          <mxGeometry x="200" y="3160" width="80" height="30" as="geometry" />
        </mxCell>
        <mxCell id="uB74LkE4q_bYTzbur5KE-274" style="edgeStyle=orthogonalEdgeStyle;rounded=0;orthogonalLoop=1;jettySize=auto;html=1;exitX=0.5;exitY=0;exitDx=0;exitDy=0;entryX=0.25;entryY=1;entryDx=0;entryDy=0;" edge="1" parent="1" source="uB74LkE4q_bYTzbur5KE-275" target="uB74LkE4q_bYTzbur5KE-267">
          <mxGeometry relative="1" as="geometry" />
        </mxCell>
        <mxCell id="uB74LkE4q_bYTzbur5KE-275" value="g-&amp;gt;reallyold" style="rounded=1;whiteSpace=wrap;html=1;" vertex="1" parent="1">
          <mxGeometry x="110" y="3160" width="80" height="30" as="geometry" />
        </mxCell>
        <mxCell id="uB74LkE4q_bYTzbur5KE-276" style="edgeStyle=orthogonalEdgeStyle;rounded=0;orthogonalLoop=1;jettySize=auto;html=1;exitX=0;exitY=0.5;exitDx=0;exitDy=0;entryX=1;entryY=0.5;entryDx=0;entryDy=0;" edge="1" parent="1" source="uB74LkE4q_bYTzbur5KE-277" target="uB74LkE4q_bYTzbur5KE-267">
          <mxGeometry relative="1" as="geometry" />
        </mxCell>
        <mxCell id="uB74LkE4q_bYTzbur5KE-277" value="O4&lt;br&gt;G_OLD" style="rounded=0;whiteSpace=wrap;html=1;fillColor=#647687;fontColor=#ffffff;strokeColor=#314354;" vertex="1" parent="1">
          <mxGeometry x="340" y="3050" width="100" height="60" as="geometry" />
        </mxCell>
        <mxCell id="uB74LkE4q_bYTzbur5KE-278" style="edgeStyle=orthogonalEdgeStyle;rounded=0;orthogonalLoop=1;jettySize=auto;html=1;exitX=0;exitY=0.5;exitDx=0;exitDy=0;entryX=1;entryY=0.5;entryDx=0;entryDy=0;" edge="1" parent="1" source="uB74LkE4q_bYTzbur5KE-279" target="uB74LkE4q_bYTzbur5KE-277">
          <mxGeometry relative="1" as="geometry">
            <mxPoint x="590" y="3080" as="targetPoint" />
          </mxGeometry>
        </mxCell>
        <mxCell id="uB74LkE4q_bYTzbur5KE-279" value="O6&lt;br&gt;G_SURVIVAL" style="rounded=0;whiteSpace=wrap;html=1;" vertex="1" parent="1">
          <mxGeometry x="490" y="3050" width="100" height="60" as="geometry" />
        </mxCell>
        <mxCell id="uB74LkE4q_bYTzbur5KE-280" style="edgeStyle=orthogonalEdgeStyle;rounded=0;orthogonalLoop=1;jettySize=auto;html=1;exitX=0;exitY=0.5;exitDx=0;exitDy=0;entryX=1;entryY=0.5;entryDx=0;entryDy=0;" edge="1" parent="1" source="uB74LkE4q_bYTzbur5KE-281" target="uB74LkE4q_bYTzbur5KE-279">
          <mxGeometry relative="1" as="geometry" />
        </mxCell>
        <mxCell id="uB74LkE4q_bYTzbur5KE-281" value="O7&lt;br&gt;G_SURVIVAL" style="rounded=0;whiteSpace=wrap;html=1;fillColor=#647687;strokeColor=#314354;fontColor=#ffffff;" vertex="1" parent="1">
          <mxGeometry x="640" y="3050" width="100" height="60" as="geometry" />
        </mxCell>
        <mxCell id="uB74LkE4q_bYTzbur5KE-282" style="edgeStyle=orthogonalEdgeStyle;rounded=0;orthogonalLoop=1;jettySize=auto;html=1;exitX=0;exitY=0.5;exitDx=0;exitDy=0;entryX=1;entryY=0.5;entryDx=0;entryDy=0;" edge="1" parent="1" source="uB74LkE4q_bYTzbur5KE-283" target="uB74LkE4q_bYTzbur5KE-281">
          <mxGeometry relative="1" as="geometry" />
        </mxCell>
        <mxCell id="uB74LkE4q_bYTzbur5KE-283" value="O8&lt;br&gt;G_SURVIVAL" style="rounded=0;whiteSpace=wrap;html=1;fillColor=#647687;strokeColor=#314354;fontColor=#ffffff;" vertex="1" parent="1">
          <mxGeometry x="790" y="3050" width="100" height="60" as="geometry" />
        </mxCell>
        <mxCell id="uB74LkE4q_bYTzbur5KE-284" style="edgeStyle=orthogonalEdgeStyle;rounded=0;orthogonalLoop=1;jettySize=auto;html=1;exitX=0;exitY=0.5;exitDx=0;exitDy=0;entryX=1;entryY=0.5;entryDx=0;entryDy=0;" edge="1" parent="1" source="uB74LkE4q_bYTzbur5KE-285" target="uB74LkE4q_bYTzbur5KE-283">
          <mxGeometry relative="1" as="geometry" />
        </mxCell>
        <mxCell id="uB74LkE4q_bYTzbur5KE-285" value="O9&lt;br&gt;G_NEW" style="rounded=0;whiteSpace=wrap;html=1;" vertex="1" parent="1">
          <mxGeometry x="940" y="3050" width="100" height="60" as="geometry" />
        </mxCell>
        <mxCell id="uB74LkE4q_bYTzbur5KE-286" value="&lt;font style=&quot;font-size: 16px;&quot;&gt;处理对象&lt;/font&gt;" style="shape=crossbar;whiteSpace=wrap;html=1;rounded=1;labelPosition=center;verticalLabelPosition=top;align=center;verticalAlign=bottom;" vertex="1" parent="1">
          <mxGeometry x="640" y="2820" width="400" height="20" as="geometry" />
        </mxCell>
        <mxCell id="uB74LkE4q_bYTzbur5KE-287" value="O1&lt;br&gt;G_OLD" style="rounded=0;whiteSpace=wrap;html=1;fillColor=#647687;fontColor=#ffffff;strokeColor=#314354;" vertex="1" parent="1">
          <mxGeometry x="40" y="3370" width="100" height="60" as="geometry" />
        </mxCell>
        <mxCell id="uB74LkE4q_bYTzbur5KE-288" style="edgeStyle=orthogonalEdgeStyle;rounded=0;orthogonalLoop=1;jettySize=auto;html=1;exitX=0;exitY=0.5;exitDx=0;exitDy=0;" edge="1" parent="1" source="uB74LkE4q_bYTzbur5KE-289" target="uB74LkE4q_bYTzbur5KE-287">
          <mxGeometry relative="1" as="geometry" />
        </mxCell>
        <mxCell id="uB74LkE4q_bYTzbur5KE-289" value="O2&lt;br&gt;G_OLD" style="rounded=0;whiteSpace=wrap;html=1;fillColor=#647687;fontColor=#ffffff;strokeColor=#314354;" vertex="1" parent="1">
          <mxGeometry x="190" y="3370" width="100" height="60" as="geometry" />
        </mxCell>
        <mxCell id="uB74LkE4q_bYTzbur5KE-290" style="edgeStyle=orthogonalEdgeStyle;rounded=0;orthogonalLoop=1;jettySize=auto;html=1;exitX=1;exitY=0.5;exitDx=0;exitDy=0;entryX=0.5;entryY=0;entryDx=0;entryDy=0;" edge="1" parent="1" source="uB74LkE4q_bYTzbur5KE-291" target="uB74LkE4q_bYTzbur5KE-305">
          <mxGeometry relative="1" as="geometry">
            <mxPoint x="990" y="3370" as="targetPoint" />
          </mxGeometry>
        </mxCell>
        <mxCell id="uB74LkE4q_bYTzbur5KE-291" value="&lt;font style=&quot;font-size: 16px;&quot;&gt;g-&amp;gt;allgc&lt;/font&gt;" style="rounded=1;whiteSpace=wrap;html=1;" vertex="1" parent="1">
          <mxGeometry x="180" y="3270" width="120" height="60" as="geometry" />
        </mxCell>
        <mxCell id="uB74LkE4q_bYTzbur5KE-292" style="edgeStyle=orthogonalEdgeStyle;rounded=0;orthogonalLoop=1;jettySize=auto;html=1;exitX=0.5;exitY=0;exitDx=0;exitDy=0;entryX=0.5;entryY=1;entryDx=0;entryDy=0;" edge="1" parent="1" source="uB74LkE4q_bYTzbur5KE-293" target="uB74LkE4q_bYTzbur5KE-301">
          <mxGeometry relative="1" as="geometry">
            <Array as="points">
              <mxPoint x="330" y="3470" />
              <mxPoint x="540" y="3470" />
            </Array>
          </mxGeometry>
        </mxCell>
        <mxCell id="uB74LkE4q_bYTzbur5KE-293" value="g-&amp;gt;survival" style="rounded=1;whiteSpace=wrap;html=1;" vertex="1" parent="1">
          <mxGeometry x="290" y="3480" width="80" height="30" as="geometry" />
        </mxCell>
        <mxCell id="uB74LkE4q_bYTzbur5KE-294" style="edgeStyle=orthogonalEdgeStyle;rounded=0;orthogonalLoop=1;jettySize=auto;html=1;exitX=0.5;exitY=0;exitDx=0;exitDy=0;" edge="1" parent="1" source="uB74LkE4q_bYTzbur5KE-295" target="uB74LkE4q_bYTzbur5KE-299">
          <mxGeometry relative="1" as="geometry">
            <Array as="points">
              <mxPoint x="240" y="3450" />
              <mxPoint x="390" y="3450" />
            </Array>
          </mxGeometry>
        </mxCell>
        <mxCell id="uB74LkE4q_bYTzbur5KE-295" value="g-&amp;gt;old1" style="rounded=1;whiteSpace=wrap;html=1;" vertex="1" parent="1">
          <mxGeometry x="200" y="3480" width="80" height="30" as="geometry" />
        </mxCell>
        <mxCell id="uB74LkE4q_bYTzbur5KE-296" style="edgeStyle=orthogonalEdgeStyle;rounded=0;orthogonalLoop=1;jettySize=auto;html=1;exitX=0.5;exitY=0;exitDx=0;exitDy=0;entryX=0.25;entryY=1;entryDx=0;entryDy=0;" edge="1" parent="1" source="uB74LkE4q_bYTzbur5KE-297" target="uB74LkE4q_bYTzbur5KE-289">
          <mxGeometry relative="1" as="geometry" />
        </mxCell>
        <mxCell id="uB74LkE4q_bYTzbur5KE-297" value="g-&amp;gt;reallyold" style="rounded=1;whiteSpace=wrap;html=1;" vertex="1" parent="1">
          <mxGeometry x="110" y="3480" width="80" height="30" as="geometry" />
        </mxCell>
        <mxCell id="uB74LkE4q_bYTzbur5KE-298" style="edgeStyle=orthogonalEdgeStyle;rounded=0;orthogonalLoop=1;jettySize=auto;html=1;exitX=0;exitY=0.5;exitDx=0;exitDy=0;entryX=1;entryY=0.5;entryDx=0;entryDy=0;" edge="1" parent="1" source="uB74LkE4q_bYTzbur5KE-299" target="uB74LkE4q_bYTzbur5KE-289">
          <mxGeometry relative="1" as="geometry" />
        </mxCell>
        <mxCell id="uB74LkE4q_bYTzbur5KE-299" value="O4&lt;br&gt;G_OLD" style="rounded=0;whiteSpace=wrap;html=1;fillColor=#647687;fontColor=#ffffff;strokeColor=#314354;" vertex="1" parent="1">
          <mxGeometry x="340" y="3370" width="100" height="60" as="geometry" />
        </mxCell>
        <mxCell id="uB74LkE4q_bYTzbur5KE-300" style="edgeStyle=orthogonalEdgeStyle;rounded=0;orthogonalLoop=1;jettySize=auto;html=1;exitX=0;exitY=0.5;exitDx=0;exitDy=0;entryX=1;entryY=0.5;entryDx=0;entryDy=0;" edge="1" parent="1" source="uB74LkE4q_bYTzbur5KE-301" target="uB74LkE4q_bYTzbur5KE-299">
          <mxGeometry relative="1" as="geometry">
            <mxPoint x="590" y="3400" as="targetPoint" />
          </mxGeometry>
        </mxCell>
        <mxCell id="uB74LkE4q_bYTzbur5KE-301" value="O6&lt;br&gt;G_SURVIVAL" style="rounded=0;whiteSpace=wrap;html=1;" vertex="1" parent="1">
          <mxGeometry x="490" y="3370" width="100" height="60" as="geometry" />
        </mxCell>
        <mxCell id="uB74LkE4q_bYTzbur5KE-302" style="edgeStyle=orthogonalEdgeStyle;rounded=0;orthogonalLoop=1;jettySize=auto;html=1;exitX=0;exitY=0.5;exitDx=0;exitDy=0;entryX=1;entryY=0.5;entryDx=0;entryDy=0;" edge="1" parent="1" source="uB74LkE4q_bYTzbur5KE-303" target="uB74LkE4q_bYTzbur5KE-301">
          <mxGeometry relative="1" as="geometry" />
        </mxCell>
        <mxCell id="uB74LkE4q_bYTzbur5KE-303" value="O7&lt;br&gt;G_SURVIVAL" style="rounded=0;whiteSpace=wrap;html=1;" vertex="1" parent="1">
          <mxGeometry x="640" y="3370" width="100" height="60" as="geometry" />
        </mxCell>
        <mxCell id="uB74LkE4q_bYTzbur5KE-304" style="edgeStyle=orthogonalEdgeStyle;rounded=0;orthogonalLoop=1;jettySize=auto;html=1;exitX=0;exitY=0.5;exitDx=0;exitDy=0;entryX=1;entryY=0.5;entryDx=0;entryDy=0;" edge="1" parent="1" source="uB74LkE4q_bYTzbur5KE-305" target="uB74LkE4q_bYTzbur5KE-303">
          <mxGeometry relative="1" as="geometry" />
        </mxCell>
        <mxCell id="uB74LkE4q_bYTzbur5KE-305" value="O8&lt;br&gt;G_SURVIVAL" style="rounded=0;whiteSpace=wrap;html=1;" vertex="1" parent="1">
          <mxGeometry x="790" y="3370" width="100" height="60" as="geometry" />
        </mxCell>
        <mxCell id="uB74LkE4q_bYTzbur5KE-308" value="O1&lt;br&gt;G_OLD" style="rounded=0;whiteSpace=wrap;html=1;fillColor=#647687;fontColor=#ffffff;strokeColor=#314354;" vertex="1" parent="1">
          <mxGeometry x="40" y="3700" width="100" height="60" as="geometry" />
        </mxCell>
        <mxCell id="uB74LkE4q_bYTzbur5KE-309" style="edgeStyle=orthogonalEdgeStyle;rounded=0;orthogonalLoop=1;jettySize=auto;html=1;exitX=0;exitY=0.5;exitDx=0;exitDy=0;" edge="1" parent="1" source="uB74LkE4q_bYTzbur5KE-310" target="uB74LkE4q_bYTzbur5KE-308">
          <mxGeometry relative="1" as="geometry" />
        </mxCell>
        <mxCell id="uB74LkE4q_bYTzbur5KE-310" value="O2&lt;br&gt;G_OLD" style="rounded=0;whiteSpace=wrap;html=1;fillColor=#647687;fontColor=#ffffff;strokeColor=#314354;" vertex="1" parent="1">
          <mxGeometry x="190" y="3700" width="100" height="60" as="geometry" />
        </mxCell>
        <mxCell id="uB74LkE4q_bYTzbur5KE-311" style="edgeStyle=orthogonalEdgeStyle;rounded=0;orthogonalLoop=1;jettySize=auto;html=1;exitX=1;exitY=0.5;exitDx=0;exitDy=0;entryX=0.5;entryY=0;entryDx=0;entryDy=0;" edge="1" parent="1" source="uB74LkE4q_bYTzbur5KE-312" target="uB74LkE4q_bYTzbur5KE-326">
          <mxGeometry relative="1" as="geometry">
            <mxPoint x="990" y="3700" as="targetPoint" />
          </mxGeometry>
        </mxCell>
        <mxCell id="uB74LkE4q_bYTzbur5KE-312" value="&lt;font style=&quot;font-size: 16px;&quot;&gt;g-&amp;gt;allgc&lt;/font&gt;" style="rounded=1;whiteSpace=wrap;html=1;" vertex="1" parent="1">
          <mxGeometry x="180" y="3600" width="120" height="60" as="geometry" />
        </mxCell>
        <mxCell id="uB74LkE4q_bYTzbur5KE-313" style="edgeStyle=orthogonalEdgeStyle;rounded=0;orthogonalLoop=1;jettySize=auto;html=1;exitX=0.5;exitY=0;exitDx=0;exitDy=0;entryX=0.5;entryY=1;entryDx=0;entryDy=0;" edge="1" parent="1" source="uB74LkE4q_bYTzbur5KE-314" target="uB74LkE4q_bYTzbur5KE-326">
          <mxGeometry relative="1" as="geometry">
            <Array as="points">
              <mxPoint x="330" y="3800" />
              <mxPoint x="840" y="3800" />
            </Array>
            <mxPoint x="540" y="3760" as="targetPoint" />
          </mxGeometry>
        </mxCell>
        <mxCell id="uB74LkE4q_bYTzbur5KE-314" value="g-&amp;gt;survival" style="rounded=1;whiteSpace=wrap;html=1;" vertex="1" parent="1">
          <mxGeometry x="290" y="3810" width="80" height="30" as="geometry" />
        </mxCell>
        <mxCell id="uB74LkE4q_bYTzbur5KE-315" style="edgeStyle=orthogonalEdgeStyle;rounded=0;orthogonalLoop=1;jettySize=auto;html=1;exitX=0.5;exitY=0;exitDx=0;exitDy=0;" edge="1" parent="1" source="uB74LkE4q_bYTzbur5KE-316" target="uB74LkE4q_bYTzbur5KE-320">
          <mxGeometry relative="1" as="geometry">
            <Array as="points">
              <mxPoint x="240" y="3790" />
              <mxPoint x="390" y="3790" />
            </Array>
          </mxGeometry>
        </mxCell>
        <mxCell id="uB74LkE4q_bYTzbur5KE-316" value="g-&amp;gt;old1" style="rounded=1;whiteSpace=wrap;html=1;" vertex="1" parent="1">
          <mxGeometry x="200" y="3810" width="80" height="30" as="geometry" />
        </mxCell>
        <mxCell id="uB74LkE4q_bYTzbur5KE-403" style="edgeStyle=orthogonalEdgeStyle;rounded=0;orthogonalLoop=1;jettySize=auto;html=1;exitX=0.5;exitY=0;exitDx=0;exitDy=0;entryX=0.25;entryY=1;entryDx=0;entryDy=0;" edge="1" parent="1" source="uB74LkE4q_bYTzbur5KE-318" target="uB74LkE4q_bYTzbur5KE-320">
          <mxGeometry relative="1" as="geometry">
            <Array as="points">
              <mxPoint x="150" y="3780" />
              <mxPoint x="365" y="3780" />
            </Array>
          </mxGeometry>
        </mxCell>
        <mxCell id="uB74LkE4q_bYTzbur5KE-318" value="g-&amp;gt;reallyold" style="rounded=1;whiteSpace=wrap;html=1;" vertex="1" parent="1">
          <mxGeometry x="110" y="3810" width="80" height="30" as="geometry" />
        </mxCell>
        <mxCell id="uB74LkE4q_bYTzbur5KE-319" style="edgeStyle=orthogonalEdgeStyle;rounded=0;orthogonalLoop=1;jettySize=auto;html=1;exitX=0;exitY=0.5;exitDx=0;exitDy=0;entryX=1;entryY=0.5;entryDx=0;entryDy=0;" edge="1" parent="1" source="uB74LkE4q_bYTzbur5KE-320" target="uB74LkE4q_bYTzbur5KE-310">
          <mxGeometry relative="1" as="geometry" />
        </mxCell>
        <mxCell id="uB74LkE4q_bYTzbur5KE-320" value="O4&lt;br&gt;G_OLD" style="rounded=0;whiteSpace=wrap;html=1;fillColor=#647687;fontColor=#ffffff;strokeColor=#314354;" vertex="1" parent="1">
          <mxGeometry x="340" y="3700" width="100" height="60" as="geometry" />
        </mxCell>
        <mxCell id="uB74LkE4q_bYTzbur5KE-323" style="edgeStyle=orthogonalEdgeStyle;rounded=0;orthogonalLoop=1;jettySize=auto;html=1;exitX=0;exitY=0.5;exitDx=0;exitDy=0;entryX=1;entryY=0.5;entryDx=0;entryDy=0;" edge="1" parent="1" source="uB74LkE4q_bYTzbur5KE-324" target="uB74LkE4q_bYTzbur5KE-320">
          <mxGeometry relative="1" as="geometry">
            <mxPoint x="590" y="3730" as="targetPoint" />
          </mxGeometry>
        </mxCell>
        <mxCell id="uB74LkE4q_bYTzbur5KE-324" value="O7&lt;br&gt;G_SURVIVAL" style="rounded=0;whiteSpace=wrap;html=1;" vertex="1" parent="1">
          <mxGeometry x="640" y="3700" width="100" height="60" as="geometry" />
        </mxCell>
        <mxCell id="uB74LkE4q_bYTzbur5KE-325" style="edgeStyle=orthogonalEdgeStyle;rounded=0;orthogonalLoop=1;jettySize=auto;html=1;exitX=0;exitY=0.5;exitDx=0;exitDy=0;entryX=1;entryY=0.5;entryDx=0;entryDy=0;" edge="1" parent="1" source="uB74LkE4q_bYTzbur5KE-326" target="uB74LkE4q_bYTzbur5KE-324">
          <mxGeometry relative="1" as="geometry" />
        </mxCell>
        <mxCell id="uB74LkE4q_bYTzbur5KE-326" value="O8&lt;br&gt;G_SURVIVAL" style="rounded=0;whiteSpace=wrap;html=1;" vertex="1" parent="1">
          <mxGeometry x="790" y="3700" width="100" height="60" as="geometry" />
        </mxCell>
        <mxCell id="uB74LkE4q_bYTzbur5KE-327" value="O1&lt;br&gt;G_OLD" style="rounded=0;whiteSpace=wrap;html=1;fillColor=#647687;fontColor=#ffffff;strokeColor=#314354;" vertex="1" parent="1">
          <mxGeometry x="40" y="4050" width="100" height="60" as="geometry" />
        </mxCell>
        <mxCell id="uB74LkE4q_bYTzbur5KE-328" style="edgeStyle=orthogonalEdgeStyle;rounded=0;orthogonalLoop=1;jettySize=auto;html=1;exitX=0;exitY=0.5;exitDx=0;exitDy=0;" edge="1" parent="1" source="uB74LkE4q_bYTzbur5KE-329" target="uB74LkE4q_bYTzbur5KE-327">
          <mxGeometry relative="1" as="geometry" />
        </mxCell>
        <mxCell id="uB74LkE4q_bYTzbur5KE-329" value="O2&lt;br&gt;G_OLD" style="rounded=0;whiteSpace=wrap;html=1;fillColor=#647687;fontColor=#ffffff;strokeColor=#314354;" vertex="1" parent="1">
          <mxGeometry x="190" y="4050" width="100" height="60" as="geometry" />
        </mxCell>
        <mxCell id="uB74LkE4q_bYTzbur5KE-330" style="edgeStyle=orthogonalEdgeStyle;rounded=0;orthogonalLoop=1;jettySize=auto;html=1;exitX=1;exitY=0.5;exitDx=0;exitDy=0;entryX=0.5;entryY=0;entryDx=0;entryDy=0;" edge="1" parent="1" source="uB74LkE4q_bYTzbur5KE-331" target="uB74LkE4q_bYTzbur5KE-344">
          <mxGeometry relative="1" as="geometry">
            <mxPoint x="990" y="4050" as="targetPoint" />
          </mxGeometry>
        </mxCell>
        <mxCell id="uB74LkE4q_bYTzbur5KE-331" value="&lt;font style=&quot;font-size: 16px;&quot;&gt;g-&amp;gt;allgc&lt;/font&gt;" style="rounded=1;whiteSpace=wrap;html=1;" vertex="1" parent="1">
          <mxGeometry x="180" y="3950" width="120" height="60" as="geometry" />
        </mxCell>
        <mxCell id="uB74LkE4q_bYTzbur5KE-332" style="edgeStyle=orthogonalEdgeStyle;rounded=0;orthogonalLoop=1;jettySize=auto;html=1;exitX=0.5;exitY=0;exitDx=0;exitDy=0;entryX=0.5;entryY=1;entryDx=0;entryDy=0;" edge="1" parent="1" source="uB74LkE4q_bYTzbur5KE-333" target="uB74LkE4q_bYTzbur5KE-343">
          <mxGeometry relative="1" as="geometry">
            <Array as="points">
              <mxPoint x="330" y="4150" />
              <mxPoint x="690" y="4150" />
            </Array>
            <mxPoint x="540" y="4110" as="targetPoint" />
          </mxGeometry>
        </mxCell>
        <mxCell id="uB74LkE4q_bYTzbur5KE-333" value="g-&amp;gt;survival" style="rounded=1;whiteSpace=wrap;html=1;" vertex="1" parent="1">
          <mxGeometry x="290" y="4160" width="80" height="30" as="geometry" />
        </mxCell>
        <mxCell id="uB74LkE4q_bYTzbur5KE-334" style="edgeStyle=orthogonalEdgeStyle;rounded=0;orthogonalLoop=1;jettySize=auto;html=1;exitX=0.5;exitY=0;exitDx=0;exitDy=0;" edge="1" parent="1" source="uB74LkE4q_bYTzbur5KE-335" target="uB74LkE4q_bYTzbur5KE-339">
          <mxGeometry relative="1" as="geometry">
            <Array as="points">
              <mxPoint x="240" y="4140" />
              <mxPoint x="390" y="4140" />
            </Array>
          </mxGeometry>
        </mxCell>
        <mxCell id="uB74LkE4q_bYTzbur5KE-335" value="g-&amp;gt;old1" style="rounded=1;whiteSpace=wrap;html=1;" vertex="1" parent="1">
          <mxGeometry x="200" y="4160" width="80" height="30" as="geometry" />
        </mxCell>
        <mxCell id="uB74LkE4q_bYTzbur5KE-336" style="edgeStyle=orthogonalEdgeStyle;rounded=0;orthogonalLoop=1;jettySize=auto;html=1;exitX=0.5;exitY=0;exitDx=0;exitDy=0;entryX=0.25;entryY=1;entryDx=0;entryDy=0;" edge="1" parent="1" source="uB74LkE4q_bYTzbur5KE-337" target="uB74LkE4q_bYTzbur5KE-339">
          <mxGeometry relative="1" as="geometry" />
        </mxCell>
        <mxCell id="uB74LkE4q_bYTzbur5KE-337" value="g-&amp;gt;reallyold" style="rounded=1;whiteSpace=wrap;html=1;" vertex="1" parent="1">
          <mxGeometry x="110" y="4160" width="80" height="30" as="geometry" />
        </mxCell>
        <mxCell id="uB74LkE4q_bYTzbur5KE-338" style="edgeStyle=orthogonalEdgeStyle;rounded=0;orthogonalLoop=1;jettySize=auto;html=1;exitX=0;exitY=0.5;exitDx=0;exitDy=0;entryX=1;entryY=0.5;entryDx=0;entryDy=0;" edge="1" parent="1" source="uB74LkE4q_bYTzbur5KE-339" target="uB74LkE4q_bYTzbur5KE-329">
          <mxGeometry relative="1" as="geometry" />
        </mxCell>
        <mxCell id="uB74LkE4q_bYTzbur5KE-339" value="O4&lt;br&gt;G_OLD" style="rounded=0;whiteSpace=wrap;html=1;fillColor=#647687;fontColor=#ffffff;strokeColor=#314354;" vertex="1" parent="1">
          <mxGeometry x="340" y="4050" width="100" height="60" as="geometry" />
        </mxCell>
        <mxCell id="uB74LkE4q_bYTzbur5KE-340" style="edgeStyle=orthogonalEdgeStyle;rounded=0;orthogonalLoop=1;jettySize=auto;html=1;exitX=0;exitY=0.5;exitDx=0;exitDy=0;entryX=1;entryY=0.5;entryDx=0;entryDy=0;" edge="1" parent="1" source="uB74LkE4q_bYTzbur5KE-341" target="uB74LkE4q_bYTzbur5KE-339">
          <mxGeometry relative="1" as="geometry">
            <mxPoint x="590" y="4080" as="targetPoint" />
          </mxGeometry>
        </mxCell>
        <mxCell id="uB74LkE4q_bYTzbur5KE-341" value="O7&lt;br&gt;G_SURVIVAL" style="rounded=0;whiteSpace=wrap;html=1;" vertex="1" parent="1">
          <mxGeometry x="490" y="4050" width="100" height="60" as="geometry" />
        </mxCell>
        <mxCell id="uB74LkE4q_bYTzbur5KE-342" style="edgeStyle=orthogonalEdgeStyle;rounded=0;orthogonalLoop=1;jettySize=auto;html=1;exitX=0;exitY=0.5;exitDx=0;exitDy=0;entryX=1;entryY=0.5;entryDx=0;entryDy=0;" edge="1" parent="1" source="uB74LkE4q_bYTzbur5KE-343" target="uB74LkE4q_bYTzbur5KE-341">
          <mxGeometry relative="1" as="geometry" />
        </mxCell>
        <mxCell id="uB74LkE4q_bYTzbur5KE-343" value="O8&lt;br&gt;G_SURVIVAL" style="rounded=0;whiteSpace=wrap;html=1;" vertex="1" parent="1">
          <mxGeometry x="640" y="4050" width="100" height="60" as="geometry" />
        </mxCell>
        <mxCell id="uB74LkE4q_bYTzbur5KE-345" style="edgeStyle=orthogonalEdgeStyle;rounded=0;orthogonalLoop=1;jettySize=auto;html=1;exitX=0;exitY=0.5;exitDx=0;exitDy=0;entryX=1;entryY=0.5;entryDx=0;entryDy=0;" edge="1" parent="1" source="uB74LkE4q_bYTzbur5KE-344" target="uB74LkE4q_bYTzbur5KE-343">
          <mxGeometry relative="1" as="geometry" />
        </mxCell>
        <mxCell id="uB74LkE4q_bYTzbur5KE-344" value="O10&lt;br&gt;G_NEW" style="rounded=0;whiteSpace=wrap;html=1;" vertex="1" parent="1">
          <mxGeometry x="790" y="4050" width="100" height="60" as="geometry" />
        </mxCell>
        <mxCell id="uB74LkE4q_bYTzbur5KE-346" value="O1&lt;br&gt;G_OLD" style="rounded=0;whiteSpace=wrap;html=1;fillColor=#647687;fontColor=#ffffff;strokeColor=#314354;" vertex="1" parent="1">
          <mxGeometry x="40" y="4390" width="100" height="60" as="geometry" />
        </mxCell>
        <mxCell id="uB74LkE4q_bYTzbur5KE-347" style="edgeStyle=orthogonalEdgeStyle;rounded=0;orthogonalLoop=1;jettySize=auto;html=1;exitX=0;exitY=0.5;exitDx=0;exitDy=0;" edge="1" parent="1" source="uB74LkE4q_bYTzbur5KE-348" target="uB74LkE4q_bYTzbur5KE-346">
          <mxGeometry relative="1" as="geometry" />
        </mxCell>
        <mxCell id="uB74LkE4q_bYTzbur5KE-348" value="O2&lt;br&gt;G_OLD" style="rounded=0;whiteSpace=wrap;html=1;fillColor=#647687;fontColor=#ffffff;strokeColor=#314354;" vertex="1" parent="1">
          <mxGeometry x="190" y="4390" width="100" height="60" as="geometry" />
        </mxCell>
        <mxCell id="uB74LkE4q_bYTzbur5KE-349" style="edgeStyle=orthogonalEdgeStyle;rounded=0;orthogonalLoop=1;jettySize=auto;html=1;exitX=1;exitY=0.5;exitDx=0;exitDy=0;entryX=0.5;entryY=0;entryDx=0;entryDy=0;" edge="1" parent="1" source="uB74LkE4q_bYTzbur5KE-350" target="uB74LkE4q_bYTzbur5KE-364">
          <mxGeometry relative="1" as="geometry">
            <mxPoint x="990" y="4390" as="targetPoint" />
          </mxGeometry>
        </mxCell>
        <mxCell id="uB74LkE4q_bYTzbur5KE-350" value="&lt;font style=&quot;font-size: 16px;&quot;&gt;g-&amp;gt;allgc&lt;/font&gt;" style="rounded=1;whiteSpace=wrap;html=1;" vertex="1" parent="1">
          <mxGeometry x="180" y="4290" width="120" height="60" as="geometry" />
        </mxCell>
        <mxCell id="uB74LkE4q_bYTzbur5KE-351" style="edgeStyle=orthogonalEdgeStyle;rounded=0;orthogonalLoop=1;jettySize=auto;html=1;exitX=0.5;exitY=0;exitDx=0;exitDy=0;entryX=0.5;entryY=1;entryDx=0;entryDy=0;" edge="1" parent="1" source="uB74LkE4q_bYTzbur5KE-352" target="uB74LkE4q_bYTzbur5KE-362">
          <mxGeometry relative="1" as="geometry">
            <Array as="points">
              <mxPoint x="330" y="4490" />
              <mxPoint x="690" y="4490" />
            </Array>
            <mxPoint x="540" y="4450" as="targetPoint" />
          </mxGeometry>
        </mxCell>
        <mxCell id="uB74LkE4q_bYTzbur5KE-352" value="g-&amp;gt;survival" style="rounded=1;whiteSpace=wrap;html=1;" vertex="1" parent="1">
          <mxGeometry x="290" y="4500" width="80" height="30" as="geometry" />
        </mxCell>
        <mxCell id="uB74LkE4q_bYTzbur5KE-353" style="edgeStyle=orthogonalEdgeStyle;rounded=0;orthogonalLoop=1;jettySize=auto;html=1;exitX=0.5;exitY=0;exitDx=0;exitDy=0;" edge="1" parent="1" source="uB74LkE4q_bYTzbur5KE-354" target="uB74LkE4q_bYTzbur5KE-358">
          <mxGeometry relative="1" as="geometry">
            <Array as="points">
              <mxPoint x="240" y="4480" />
              <mxPoint x="390" y="4480" />
            </Array>
          </mxGeometry>
        </mxCell>
        <mxCell id="uB74LkE4q_bYTzbur5KE-354" value="g-&amp;gt;old1" style="rounded=1;whiteSpace=wrap;html=1;" vertex="1" parent="1">
          <mxGeometry x="200" y="4500" width="80" height="30" as="geometry" />
        </mxCell>
        <mxCell id="uB74LkE4q_bYTzbur5KE-355" style="edgeStyle=orthogonalEdgeStyle;rounded=0;orthogonalLoop=1;jettySize=auto;html=1;exitX=0.5;exitY=0;exitDx=0;exitDy=0;entryX=0.25;entryY=1;entryDx=0;entryDy=0;" edge="1" parent="1" source="uB74LkE4q_bYTzbur5KE-356" target="uB74LkE4q_bYTzbur5KE-358">
          <mxGeometry relative="1" as="geometry">
            <Array as="points">
              <mxPoint x="150" y="4470" />
              <mxPoint x="365" y="4470" />
            </Array>
          </mxGeometry>
        </mxCell>
        <mxCell id="uB74LkE4q_bYTzbur5KE-356" value="g-&amp;gt;reallyold" style="rounded=1;whiteSpace=wrap;html=1;" vertex="1" parent="1">
          <mxGeometry x="110" y="4500" width="80" height="30" as="geometry" />
        </mxCell>
        <mxCell id="uB74LkE4q_bYTzbur5KE-357" style="edgeStyle=orthogonalEdgeStyle;rounded=0;orthogonalLoop=1;jettySize=auto;html=1;exitX=0;exitY=0.5;exitDx=0;exitDy=0;entryX=1;entryY=0.5;entryDx=0;entryDy=0;" edge="1" parent="1" source="uB74LkE4q_bYTzbur5KE-358" target="uB74LkE4q_bYTzbur5KE-348">
          <mxGeometry relative="1" as="geometry" />
        </mxCell>
        <mxCell id="uB74LkE4q_bYTzbur5KE-358" value="O4&lt;br&gt;G_OLD" style="rounded=0;whiteSpace=wrap;html=1;fillColor=#647687;fontColor=#ffffff;strokeColor=#314354;" vertex="1" parent="1">
          <mxGeometry x="340" y="4390" width="100" height="60" as="geometry" />
        </mxCell>
        <mxCell id="uB74LkE4q_bYTzbur5KE-359" style="edgeStyle=orthogonalEdgeStyle;rounded=0;orthogonalLoop=1;jettySize=auto;html=1;exitX=0;exitY=0.5;exitDx=0;exitDy=0;entryX=1;entryY=0.5;entryDx=0;entryDy=0;" edge="1" parent="1" source="uB74LkE4q_bYTzbur5KE-360" target="uB74LkE4q_bYTzbur5KE-358">
          <mxGeometry relative="1" as="geometry">
            <mxPoint x="590" y="4420" as="targetPoint" />
          </mxGeometry>
        </mxCell>
        <mxCell id="uB74LkE4q_bYTzbur5KE-360" value="O7&lt;br&gt;G_SURVIVAL" style="rounded=0;whiteSpace=wrap;html=1;fillColor=#647687;strokeColor=#314354;fontColor=#ffffff;" vertex="1" parent="1">
          <mxGeometry x="490" y="4390" width="100" height="60" as="geometry" />
        </mxCell>
        <mxCell id="uB74LkE4q_bYTzbur5KE-361" style="edgeStyle=orthogonalEdgeStyle;rounded=0;orthogonalLoop=1;jettySize=auto;html=1;exitX=0;exitY=0.5;exitDx=0;exitDy=0;entryX=1;entryY=0.5;entryDx=0;entryDy=0;" edge="1" parent="1" source="uB74LkE4q_bYTzbur5KE-362" target="uB74LkE4q_bYTzbur5KE-360">
          <mxGeometry relative="1" as="geometry" />
        </mxCell>
        <mxCell id="uB74LkE4q_bYTzbur5KE-362" value="O8&lt;br&gt;G_SURVIVAL" style="rounded=0;whiteSpace=wrap;html=1;fillColor=#647687;strokeColor=#314354;fontColor=#ffffff;" vertex="1" parent="1">
          <mxGeometry x="640" y="4390" width="100" height="60" as="geometry" />
        </mxCell>
        <mxCell id="uB74LkE4q_bYTzbur5KE-363" style="edgeStyle=orthogonalEdgeStyle;rounded=0;orthogonalLoop=1;jettySize=auto;html=1;exitX=0;exitY=0.5;exitDx=0;exitDy=0;entryX=1;entryY=0.5;entryDx=0;entryDy=0;" edge="1" parent="1" source="uB74LkE4q_bYTzbur5KE-364" target="uB74LkE4q_bYTzbur5KE-362">
          <mxGeometry relative="1" as="geometry" />
        </mxCell>
        <mxCell id="uB74LkE4q_bYTzbur5KE-364" value="O10&lt;br&gt;G_SURVIVAL" style="rounded=0;whiteSpace=wrap;html=1;fillColor=#647687;strokeColor=#314354;fontColor=#ffffff;" vertex="1" parent="1">
          <mxGeometry x="790" y="4390" width="100" height="60" as="geometry" />
        </mxCell>
        <mxCell id="uB74LkE4q_bYTzbur5KE-365" value="O1&lt;br&gt;G_OLD" style="rounded=0;whiteSpace=wrap;html=1;fillColor=#647687;fontColor=#ffffff;strokeColor=#314354;" vertex="1" parent="1">
          <mxGeometry x="40" y="4750" width="100" height="60" as="geometry" />
        </mxCell>
        <mxCell id="uB74LkE4q_bYTzbur5KE-366" style="edgeStyle=orthogonalEdgeStyle;rounded=0;orthogonalLoop=1;jettySize=auto;html=1;exitX=0;exitY=0.5;exitDx=0;exitDy=0;" edge="1" parent="1" source="uB74LkE4q_bYTzbur5KE-367" target="uB74LkE4q_bYTzbur5KE-365">
          <mxGeometry relative="1" as="geometry" />
        </mxCell>
        <mxCell id="uB74LkE4q_bYTzbur5KE-367" value="O2&lt;br&gt;G_OLD" style="rounded=0;whiteSpace=wrap;html=1;fillColor=#647687;fontColor=#ffffff;strokeColor=#314354;" vertex="1" parent="1">
          <mxGeometry x="190" y="4750" width="100" height="60" as="geometry" />
        </mxCell>
        <mxCell id="uB74LkE4q_bYTzbur5KE-368" style="edgeStyle=orthogonalEdgeStyle;rounded=0;orthogonalLoop=1;jettySize=auto;html=1;exitX=1;exitY=0.5;exitDx=0;exitDy=0;entryX=0.5;entryY=0;entryDx=0;entryDy=0;" edge="1" parent="1" source="uB74LkE4q_bYTzbur5KE-369" target="uB74LkE4q_bYTzbur5KE-383">
          <mxGeometry relative="1" as="geometry">
            <mxPoint x="990" y="4750" as="targetPoint" />
          </mxGeometry>
        </mxCell>
        <mxCell id="uB74LkE4q_bYTzbur5KE-369" value="&lt;font style=&quot;font-size: 16px;&quot;&gt;g-&amp;gt;allgc&lt;/font&gt;" style="rounded=1;whiteSpace=wrap;html=1;" vertex="1" parent="1">
          <mxGeometry x="180" y="4650" width="120" height="60" as="geometry" />
        </mxCell>
        <mxCell id="uB74LkE4q_bYTzbur5KE-370" style="edgeStyle=orthogonalEdgeStyle;rounded=0;orthogonalLoop=1;jettySize=auto;html=1;exitX=0.5;exitY=0;exitDx=0;exitDy=0;entryX=0.5;entryY=1;entryDx=0;entryDy=0;" edge="1" parent="1" source="uB74LkE4q_bYTzbur5KE-371" target="uB74LkE4q_bYTzbur5KE-381">
          <mxGeometry relative="1" as="geometry">
            <Array as="points">
              <mxPoint x="330" y="4850" />
              <mxPoint x="690" y="4850" />
            </Array>
            <mxPoint x="540" y="4810" as="targetPoint" />
          </mxGeometry>
        </mxCell>
        <mxCell id="uB74LkE4q_bYTzbur5KE-371" value="g-&amp;gt;survival" style="rounded=1;whiteSpace=wrap;html=1;" vertex="1" parent="1">
          <mxGeometry x="290" y="4860" width="80" height="30" as="geometry" />
        </mxCell>
        <mxCell id="uB74LkE4q_bYTzbur5KE-372" style="edgeStyle=orthogonalEdgeStyle;rounded=0;orthogonalLoop=1;jettySize=auto;html=1;exitX=0.5;exitY=0;exitDx=0;exitDy=0;" edge="1" parent="1" source="uB74LkE4q_bYTzbur5KE-373" target="uB74LkE4q_bYTzbur5KE-377">
          <mxGeometry relative="1" as="geometry">
            <Array as="points">
              <mxPoint x="240" y="4840" />
              <mxPoint x="390" y="4840" />
            </Array>
          </mxGeometry>
        </mxCell>
        <mxCell id="uB74LkE4q_bYTzbur5KE-373" value="g-&amp;gt;old1" style="rounded=1;whiteSpace=wrap;html=1;" vertex="1" parent="1">
          <mxGeometry x="200" y="4860" width="80" height="30" as="geometry" />
        </mxCell>
        <mxCell id="uB74LkE4q_bYTzbur5KE-374" style="edgeStyle=orthogonalEdgeStyle;rounded=0;orthogonalLoop=1;jettySize=auto;html=1;exitX=0.5;exitY=0;exitDx=0;exitDy=0;entryX=0.25;entryY=1;entryDx=0;entryDy=0;" edge="1" parent="1" source="uB74LkE4q_bYTzbur5KE-375" target="uB74LkE4q_bYTzbur5KE-377">
          <mxGeometry relative="1" as="geometry" />
        </mxCell>
        <mxCell id="uB74LkE4q_bYTzbur5KE-375" value="g-&amp;gt;reallyold" style="rounded=1;whiteSpace=wrap;html=1;" vertex="1" parent="1">
          <mxGeometry x="110" y="4860" width="80" height="30" as="geometry" />
        </mxCell>
        <mxCell id="uB74LkE4q_bYTzbur5KE-376" style="edgeStyle=orthogonalEdgeStyle;rounded=0;orthogonalLoop=1;jettySize=auto;html=1;exitX=0;exitY=0.5;exitDx=0;exitDy=0;entryX=1;entryY=0.5;entryDx=0;entryDy=0;" edge="1" parent="1" source="uB74LkE4q_bYTzbur5KE-377" target="uB74LkE4q_bYTzbur5KE-367">
          <mxGeometry relative="1" as="geometry" />
        </mxCell>
        <mxCell id="uB74LkE4q_bYTzbur5KE-377" value="O4&lt;br&gt;G_OLD" style="rounded=0;whiteSpace=wrap;html=1;fillColor=#647687;fontColor=#ffffff;strokeColor=#314354;" vertex="1" parent="1">
          <mxGeometry x="340" y="4750" width="100" height="60" as="geometry" />
        </mxCell>
        <mxCell id="uB74LkE4q_bYTzbur5KE-378" style="edgeStyle=orthogonalEdgeStyle;rounded=0;orthogonalLoop=1;jettySize=auto;html=1;exitX=0;exitY=0.5;exitDx=0;exitDy=0;entryX=1;entryY=0.5;entryDx=0;entryDy=0;" edge="1" parent="1" source="uB74LkE4q_bYTzbur5KE-379" target="uB74LkE4q_bYTzbur5KE-377">
          <mxGeometry relative="1" as="geometry">
            <mxPoint x="590" y="4780" as="targetPoint" />
          </mxGeometry>
        </mxCell>
        <mxCell id="uB74LkE4q_bYTzbur5KE-379" value="O7&lt;br&gt;G_SURVIVAL" style="rounded=0;whiteSpace=wrap;html=1;fillColor=#647687;strokeColor=#314354;fontColor=#ffffff;" vertex="1" parent="1">
          <mxGeometry x="490" y="4750" width="100" height="60" as="geometry" />
        </mxCell>
        <mxCell id="uB74LkE4q_bYTzbur5KE-380" style="edgeStyle=orthogonalEdgeStyle;rounded=0;orthogonalLoop=1;jettySize=auto;html=1;exitX=0;exitY=0.5;exitDx=0;exitDy=0;entryX=1;entryY=0.5;entryDx=0;entryDy=0;" edge="1" parent="1" source="uB74LkE4q_bYTzbur5KE-381" target="uB74LkE4q_bYTzbur5KE-379">
          <mxGeometry relative="1" as="geometry" />
        </mxCell>
        <mxCell id="uB74LkE4q_bYTzbur5KE-381" value="O8&lt;br&gt;G_SURVIVAL" style="rounded=0;whiteSpace=wrap;html=1;fillColor=#647687;strokeColor=#314354;fontColor=#ffffff;" vertex="1" parent="1">
          <mxGeometry x="640" y="4750" width="100" height="60" as="geometry" />
        </mxCell>
        <mxCell id="uB74LkE4q_bYTzbur5KE-382" style="edgeStyle=orthogonalEdgeStyle;rounded=0;orthogonalLoop=1;jettySize=auto;html=1;exitX=0;exitY=0.5;exitDx=0;exitDy=0;entryX=1;entryY=0.5;entryDx=0;entryDy=0;" edge="1" parent="1" source="uB74LkE4q_bYTzbur5KE-383" target="uB74LkE4q_bYTzbur5KE-381">
          <mxGeometry relative="1" as="geometry" />
        </mxCell>
        <mxCell id="uB74LkE4q_bYTzbur5KE-383" value="O10&lt;br&gt;G_SURVIVAL" style="rounded=0;whiteSpace=wrap;html=1;" vertex="1" parent="1">
          <mxGeometry x="790" y="4750" width="100" height="60" as="geometry" />
        </mxCell>
        <mxCell id="uB74LkE4q_bYTzbur5KE-384" value="O1&lt;br&gt;G_OLD" style="rounded=0;whiteSpace=wrap;html=1;fillColor=#647687;fontColor=#ffffff;strokeColor=#314354;" vertex="1" parent="1">
          <mxGeometry x="40" y="5090" width="100" height="60" as="geometry" />
        </mxCell>
        <mxCell id="uB74LkE4q_bYTzbur5KE-385" style="edgeStyle=orthogonalEdgeStyle;rounded=0;orthogonalLoop=1;jettySize=auto;html=1;exitX=0;exitY=0.5;exitDx=0;exitDy=0;" edge="1" parent="1" source="uB74LkE4q_bYTzbur5KE-386" target="uB74LkE4q_bYTzbur5KE-384">
          <mxGeometry relative="1" as="geometry" />
        </mxCell>
        <mxCell id="uB74LkE4q_bYTzbur5KE-386" value="O2&lt;br&gt;G_OLD" style="rounded=0;whiteSpace=wrap;html=1;fillColor=#647687;fontColor=#ffffff;strokeColor=#314354;" vertex="1" parent="1">
          <mxGeometry x="190" y="5090" width="100" height="60" as="geometry" />
        </mxCell>
        <mxCell id="uB74LkE4q_bYTzbur5KE-387" style="edgeStyle=orthogonalEdgeStyle;rounded=0;orthogonalLoop=1;jettySize=auto;html=1;exitX=1;exitY=0.5;exitDx=0;exitDy=0;entryX=0.5;entryY=0;entryDx=0;entryDy=0;" edge="1" parent="1" source="uB74LkE4q_bYTzbur5KE-388" target="uB74LkE4q_bYTzbur5KE-402">
          <mxGeometry relative="1" as="geometry">
            <mxPoint x="990" y="5090" as="targetPoint" />
          </mxGeometry>
        </mxCell>
        <mxCell id="uB74LkE4q_bYTzbur5KE-388" value="&lt;font style=&quot;font-size: 16px;&quot;&gt;g-&amp;gt;allgc&lt;/font&gt;" style="rounded=1;whiteSpace=wrap;html=1;" vertex="1" parent="1">
          <mxGeometry x="180" y="4990" width="120" height="60" as="geometry" />
        </mxCell>
        <mxCell id="uB74LkE4q_bYTzbur5KE-389" style="edgeStyle=orthogonalEdgeStyle;rounded=0;orthogonalLoop=1;jettySize=auto;html=1;exitX=0.5;exitY=0;exitDx=0;exitDy=0;entryX=0.5;entryY=1;entryDx=0;entryDy=0;" edge="1" parent="1" source="uB74LkE4q_bYTzbur5KE-390" target="uB74LkE4q_bYTzbur5KE-402">
          <mxGeometry relative="1" as="geometry">
            <Array as="points">
              <mxPoint x="330" y="5190" />
              <mxPoint x="840" y="5190" />
            </Array>
            <mxPoint x="540" y="5150" as="targetPoint" />
          </mxGeometry>
        </mxCell>
        <mxCell id="uB74LkE4q_bYTzbur5KE-390" value="g-&amp;gt;survival" style="rounded=1;whiteSpace=wrap;html=1;" vertex="1" parent="1">
          <mxGeometry x="290" y="5200" width="80" height="30" as="geometry" />
        </mxCell>
        <mxCell id="uB74LkE4q_bYTzbur5KE-391" style="edgeStyle=orthogonalEdgeStyle;rounded=0;orthogonalLoop=1;jettySize=auto;html=1;exitX=0.5;exitY=0;exitDx=0;exitDy=0;entryX=0.5;entryY=1;entryDx=0;entryDy=0;" edge="1" parent="1" source="uB74LkE4q_bYTzbur5KE-392" target="uB74LkE4q_bYTzbur5KE-400">
          <mxGeometry relative="1" as="geometry">
            <Array as="points">
              <mxPoint x="240" y="5180" />
              <mxPoint x="690" y="5180" />
            </Array>
          </mxGeometry>
        </mxCell>
        <mxCell id="uB74LkE4q_bYTzbur5KE-392" value="g-&amp;gt;old1" style="rounded=1;whiteSpace=wrap;html=1;" vertex="1" parent="1">
          <mxGeometry x="200" y="5200" width="80" height="30" as="geometry" />
        </mxCell>
        <mxCell id="uB74LkE4q_bYTzbur5KE-393" style="edgeStyle=orthogonalEdgeStyle;rounded=0;orthogonalLoop=1;jettySize=auto;html=1;exitX=0.5;exitY=0;exitDx=0;exitDy=0;entryX=0.25;entryY=1;entryDx=0;entryDy=0;" edge="1" parent="1" source="uB74LkE4q_bYTzbur5KE-394" target="uB74LkE4q_bYTzbur5KE-396">
          <mxGeometry relative="1" as="geometry" />
        </mxCell>
        <mxCell id="uB74LkE4q_bYTzbur5KE-394" value="g-&amp;gt;reallyold" style="rounded=1;whiteSpace=wrap;html=1;" vertex="1" parent="1">
          <mxGeometry x="110" y="5200" width="80" height="30" as="geometry" />
        </mxCell>
        <mxCell id="uB74LkE4q_bYTzbur5KE-395" style="edgeStyle=orthogonalEdgeStyle;rounded=0;orthogonalLoop=1;jettySize=auto;html=1;exitX=0;exitY=0.5;exitDx=0;exitDy=0;entryX=1;entryY=0.5;entryDx=0;entryDy=0;" edge="1" parent="1" source="uB74LkE4q_bYTzbur5KE-396" target="uB74LkE4q_bYTzbur5KE-386">
          <mxGeometry relative="1" as="geometry" />
        </mxCell>
        <mxCell id="uB74LkE4q_bYTzbur5KE-396" value="O4&lt;br&gt;G_OLD" style="rounded=0;whiteSpace=wrap;html=1;fillColor=#647687;fontColor=#ffffff;strokeColor=#314354;" vertex="1" parent="1">
          <mxGeometry x="340" y="5090" width="100" height="60" as="geometry" />
        </mxCell>
        <mxCell id="uB74LkE4q_bYTzbur5KE-397" style="edgeStyle=orthogonalEdgeStyle;rounded=0;orthogonalLoop=1;jettySize=auto;html=1;exitX=0;exitY=0.5;exitDx=0;exitDy=0;entryX=1;entryY=0.5;entryDx=0;entryDy=0;" edge="1" parent="1" source="uB74LkE4q_bYTzbur5KE-398" target="uB74LkE4q_bYTzbur5KE-396">
          <mxGeometry relative="1" as="geometry">
            <mxPoint x="590" y="5120" as="targetPoint" />
          </mxGeometry>
        </mxCell>
        <mxCell id="uB74LkE4q_bYTzbur5KE-398" value="O7&lt;br&gt;G_OLD1" style="rounded=0;whiteSpace=wrap;html=1;fillColor=#647687;strokeColor=#314354;fontColor=#ffffff;" vertex="1" parent="1">
          <mxGeometry x="490" y="5090" width="100" height="60" as="geometry" />
        </mxCell>
        <mxCell id="uB74LkE4q_bYTzbur5KE-399" style="edgeStyle=orthogonalEdgeStyle;rounded=0;orthogonalLoop=1;jettySize=auto;html=1;exitX=0;exitY=0.5;exitDx=0;exitDy=0;entryX=1;entryY=0.5;entryDx=0;entryDy=0;" edge="1" parent="1" source="uB74LkE4q_bYTzbur5KE-400" target="uB74LkE4q_bYTzbur5KE-398">
          <mxGeometry relative="1" as="geometry" />
        </mxCell>
        <mxCell id="uB74LkE4q_bYTzbur5KE-400" value="O8&lt;br&gt;G_OLD1" style="rounded=0;whiteSpace=wrap;html=1;fillColor=#647687;strokeColor=#314354;fontColor=#ffffff;" vertex="1" parent="1">
          <mxGeometry x="640" y="5090" width="100" height="60" as="geometry" />
        </mxCell>
        <mxCell id="uB74LkE4q_bYTzbur5KE-401" style="edgeStyle=orthogonalEdgeStyle;rounded=0;orthogonalLoop=1;jettySize=auto;html=1;exitX=0;exitY=0.5;exitDx=0;exitDy=0;entryX=1;entryY=0.5;entryDx=0;entryDy=0;" edge="1" parent="1" source="uB74LkE4q_bYTzbur5KE-402" target="uB74LkE4q_bYTzbur5KE-400">
          <mxGeometry relative="1" as="geometry" />
        </mxCell>
        <mxCell id="uB74LkE4q_bYTzbur5KE-402" value="O10&lt;br&gt;G_SURVIVAL" style="rounded=0;whiteSpace=wrap;html=1;" vertex="1" parent="1">
          <mxGeometry x="790" y="5090" width="100" height="60" as="geometry" />
        </mxCell>
        <mxCell id="uB74LkE4q_bYTzbur5KE-404" value="O1&lt;br&gt;G_OLD" style="rounded=0;whiteSpace=wrap;html=1;fillColor=#647687;fontColor=#ffffff;strokeColor=#314354;" vertex="1" parent="1">
          <mxGeometry x="40" y="5410" width="100" height="60" as="geometry" />
        </mxCell>
        <mxCell id="uB74LkE4q_bYTzbur5KE-405" style="edgeStyle=orthogonalEdgeStyle;rounded=0;orthogonalLoop=1;jettySize=auto;html=1;exitX=0;exitY=0.5;exitDx=0;exitDy=0;" edge="1" parent="1" source="uB74LkE4q_bYTzbur5KE-406" target="uB74LkE4q_bYTzbur5KE-404">
          <mxGeometry relative="1" as="geometry" />
        </mxCell>
        <mxCell id="uB74LkE4q_bYTzbur5KE-406" value="O2&lt;br&gt;G_OLD" style="rounded=0;whiteSpace=wrap;html=1;fillColor=#647687;fontColor=#ffffff;strokeColor=#314354;" vertex="1" parent="1">
          <mxGeometry x="190" y="5410" width="100" height="60" as="geometry" />
        </mxCell>
        <mxCell id="uB74LkE4q_bYTzbur5KE-407" style="edgeStyle=orthogonalEdgeStyle;rounded=0;orthogonalLoop=1;jettySize=auto;html=1;exitX=1;exitY=0.5;exitDx=0;exitDy=0;entryX=0.5;entryY=0;entryDx=0;entryDy=0;" edge="1" parent="1" source="uB74LkE4q_bYTzbur5KE-408" target="uB74LkE4q_bYTzbur5KE-424">
          <mxGeometry relative="1" as="geometry">
            <mxPoint x="990" y="5410" as="targetPoint" />
          </mxGeometry>
        </mxCell>
        <mxCell id="uB74LkE4q_bYTzbur5KE-408" value="&lt;font style=&quot;font-size: 16px;&quot;&gt;g-&amp;gt;allgc&lt;/font&gt;" style="rounded=1;whiteSpace=wrap;html=1;" vertex="1" parent="1">
          <mxGeometry x="180" y="5310" width="120" height="60" as="geometry" />
        </mxCell>
        <mxCell id="uB74LkE4q_bYTzbur5KE-409" style="edgeStyle=orthogonalEdgeStyle;rounded=0;orthogonalLoop=1;jettySize=auto;html=1;exitX=0.5;exitY=0;exitDx=0;exitDy=0;entryX=0.5;entryY=1;entryDx=0;entryDy=0;" edge="1" parent="1" source="uB74LkE4q_bYTzbur5KE-410" target="uB74LkE4q_bYTzbur5KE-422">
          <mxGeometry relative="1" as="geometry">
            <Array as="points">
              <mxPoint x="330" y="5510" />
              <mxPoint x="840" y="5510" />
            </Array>
            <mxPoint x="540" y="5470" as="targetPoint" />
          </mxGeometry>
        </mxCell>
        <mxCell id="uB74LkE4q_bYTzbur5KE-410" value="g-&amp;gt;survival" style="rounded=1;whiteSpace=wrap;html=1;" vertex="1" parent="1">
          <mxGeometry x="290" y="5520" width="80" height="30" as="geometry" />
        </mxCell>
        <mxCell id="uB74LkE4q_bYTzbur5KE-411" style="edgeStyle=orthogonalEdgeStyle;rounded=0;orthogonalLoop=1;jettySize=auto;html=1;exitX=0.5;exitY=0;exitDx=0;exitDy=0;entryX=0.5;entryY=1;entryDx=0;entryDy=0;" edge="1" parent="1" source="uB74LkE4q_bYTzbur5KE-412" target="uB74LkE4q_bYTzbur5KE-420">
          <mxGeometry relative="1" as="geometry">
            <Array as="points">
              <mxPoint x="240" y="5500" />
              <mxPoint x="690" y="5500" />
            </Array>
          </mxGeometry>
        </mxCell>
        <mxCell id="uB74LkE4q_bYTzbur5KE-412" value="g-&amp;gt;old1" style="rounded=1;whiteSpace=wrap;html=1;" vertex="1" parent="1">
          <mxGeometry x="200" y="5520" width="80" height="30" as="geometry" />
        </mxCell>
        <mxCell id="uB74LkE4q_bYTzbur5KE-413" style="edgeStyle=orthogonalEdgeStyle;rounded=0;orthogonalLoop=1;jettySize=auto;html=1;exitX=0.5;exitY=0;exitDx=0;exitDy=0;entryX=0.25;entryY=1;entryDx=0;entryDy=0;" edge="1" parent="1" source="uB74LkE4q_bYTzbur5KE-414" target="uB74LkE4q_bYTzbur5KE-416">
          <mxGeometry relative="1" as="geometry" />
        </mxCell>
        <mxCell id="uB74LkE4q_bYTzbur5KE-414" value="g-&amp;gt;reallyold" style="rounded=1;whiteSpace=wrap;html=1;" vertex="1" parent="1">
          <mxGeometry x="110" y="5520" width="80" height="30" as="geometry" />
        </mxCell>
        <mxCell id="uB74LkE4q_bYTzbur5KE-415" style="edgeStyle=orthogonalEdgeStyle;rounded=0;orthogonalLoop=1;jettySize=auto;html=1;exitX=0;exitY=0.5;exitDx=0;exitDy=0;entryX=1;entryY=0.5;entryDx=0;entryDy=0;" edge="1" parent="1" source="uB74LkE4q_bYTzbur5KE-416" target="uB74LkE4q_bYTzbur5KE-406">
          <mxGeometry relative="1" as="geometry" />
        </mxCell>
        <mxCell id="uB74LkE4q_bYTzbur5KE-416" value="O4&lt;br&gt;G_OLD" style="rounded=0;whiteSpace=wrap;html=1;fillColor=#647687;fontColor=#ffffff;strokeColor=#314354;" vertex="1" parent="1">
          <mxGeometry x="340" y="5410" width="100" height="60" as="geometry" />
        </mxCell>
        <mxCell id="uB74LkE4q_bYTzbur5KE-417" style="edgeStyle=orthogonalEdgeStyle;rounded=0;orthogonalLoop=1;jettySize=auto;html=1;exitX=0;exitY=0.5;exitDx=0;exitDy=0;entryX=1;entryY=0.5;entryDx=0;entryDy=0;" edge="1" parent="1" source="uB74LkE4q_bYTzbur5KE-418" target="uB74LkE4q_bYTzbur5KE-416">
          <mxGeometry relative="1" as="geometry">
            <mxPoint x="590" y="5440" as="targetPoint" />
          </mxGeometry>
        </mxCell>
        <mxCell id="uB74LkE4q_bYTzbur5KE-418" value="O7&lt;br&gt;G_OLD" style="rounded=0;whiteSpace=wrap;html=1;fillColor=#647687;strokeColor=#314354;fontColor=#ffffff;" vertex="1" parent="1">
          <mxGeometry x="490" y="5410" width="100" height="60" as="geometry" />
        </mxCell>
        <mxCell id="uB74LkE4q_bYTzbur5KE-419" style="edgeStyle=orthogonalEdgeStyle;rounded=0;orthogonalLoop=1;jettySize=auto;html=1;exitX=0;exitY=0.5;exitDx=0;exitDy=0;entryX=1;entryY=0.5;entryDx=0;entryDy=0;" edge="1" parent="1" source="uB74LkE4q_bYTzbur5KE-420" target="uB74LkE4q_bYTzbur5KE-418">
          <mxGeometry relative="1" as="geometry" />
        </mxCell>
        <mxCell id="uB74LkE4q_bYTzbur5KE-420" value="O8&lt;br&gt;G_OLD" style="rounded=0;whiteSpace=wrap;html=1;fillColor=#647687;strokeColor=#314354;fontColor=#ffffff;" vertex="1" parent="1">
          <mxGeometry x="640" y="5410" width="100" height="60" as="geometry" />
        </mxCell>
        <mxCell id="uB74LkE4q_bYTzbur5KE-421" style="edgeStyle=orthogonalEdgeStyle;rounded=0;orthogonalLoop=1;jettySize=auto;html=1;exitX=0;exitY=0.5;exitDx=0;exitDy=0;entryX=1;entryY=0.5;entryDx=0;entryDy=0;" edge="1" parent="1" source="uB74LkE4q_bYTzbur5KE-422" target="uB74LkE4q_bYTzbur5KE-420">
          <mxGeometry relative="1" as="geometry" />
        </mxCell>
        <mxCell id="uB74LkE4q_bYTzbur5KE-422" value="O10&lt;br&gt;G_SURVIVAL" style="rounded=0;whiteSpace=wrap;html=1;" vertex="1" parent="1">
          <mxGeometry x="790" y="5410" width="100" height="60" as="geometry" />
        </mxCell>
        <mxCell id="uB74LkE4q_bYTzbur5KE-425" style="edgeStyle=orthogonalEdgeStyle;rounded=0;orthogonalLoop=1;jettySize=auto;html=1;exitX=0;exitY=0.5;exitDx=0;exitDy=0;entryX=1;entryY=0.5;entryDx=0;entryDy=0;" edge="1" parent="1" source="uB74LkE4q_bYTzbur5KE-423" target="uB74LkE4q_bYTzbur5KE-422">
          <mxGeometry relative="1" as="geometry" />
        </mxCell>
        <mxCell id="uB74LkE4q_bYTzbur5KE-423" value="O11&lt;br&gt;G_NEW" style="rounded=0;whiteSpace=wrap;html=1;" vertex="1" parent="1">
          <mxGeometry x="940" y="5410" width="100" height="60" as="geometry" />
        </mxCell>
        <mxCell id="uB74LkE4q_bYTzbur5KE-426" style="edgeStyle=orthogonalEdgeStyle;rounded=0;orthogonalLoop=1;jettySize=auto;html=1;exitX=0;exitY=0.5;exitDx=0;exitDy=0;entryX=1;entryY=0.5;entryDx=0;entryDy=0;" edge="1" parent="1" source="uB74LkE4q_bYTzbur5KE-424" target="uB74LkE4q_bYTzbur5KE-423">
          <mxGeometry relative="1" as="geometry" />
        </mxCell>
        <mxCell id="uB74LkE4q_bYTzbur5KE-424" value="O12&lt;br&gt;G_NEW" style="rounded=0;whiteSpace=wrap;html=1;" vertex="1" parent="1">
          <mxGeometry x="1090" y="5410" width="100" height="60" as="geometry" />
        </mxCell>
        <mxCell id="uB74LkE4q_bYTzbur5KE-427" value="O1&lt;br&gt;G_OLD" style="rounded=0;whiteSpace=wrap;html=1;fillColor=#647687;fontColor=#ffffff;strokeColor=#314354;" vertex="1" parent="1">
          <mxGeometry x="40" y="5730" width="100" height="60" as="geometry" />
        </mxCell>
        <mxCell id="uB74LkE4q_bYTzbur5KE-428" style="edgeStyle=orthogonalEdgeStyle;rounded=0;orthogonalLoop=1;jettySize=auto;html=1;exitX=0;exitY=0.5;exitDx=0;exitDy=0;" edge="1" parent="1" source="uB74LkE4q_bYTzbur5KE-429" target="uB74LkE4q_bYTzbur5KE-427">
          <mxGeometry relative="1" as="geometry" />
        </mxCell>
        <mxCell id="uB74LkE4q_bYTzbur5KE-429" value="O2&lt;br&gt;G_OLD" style="rounded=0;whiteSpace=wrap;html=1;fillColor=#647687;fontColor=#ffffff;strokeColor=#314354;" vertex="1" parent="1">
          <mxGeometry x="190" y="5730" width="100" height="60" as="geometry" />
        </mxCell>
        <mxCell id="uB74LkE4q_bYTzbur5KE-430" style="edgeStyle=orthogonalEdgeStyle;rounded=0;orthogonalLoop=1;jettySize=auto;html=1;exitX=1;exitY=0.5;exitDx=0;exitDy=0;entryX=0.5;entryY=0;entryDx=0;entryDy=0;" edge="1" parent="1" source="uB74LkE4q_bYTzbur5KE-431" target="uB74LkE4q_bYTzbur5KE-450">
          <mxGeometry relative="1" as="geometry">
            <mxPoint x="990" y="5730" as="targetPoint" />
          </mxGeometry>
        </mxCell>
        <mxCell id="uB74LkE4q_bYTzbur5KE-431" value="&lt;font style=&quot;font-size: 16px;&quot;&gt;g-&amp;gt;allgc&lt;/font&gt;" style="rounded=1;whiteSpace=wrap;html=1;" vertex="1" parent="1">
          <mxGeometry x="180" y="5630" width="120" height="60" as="geometry" />
        </mxCell>
        <mxCell id="uB74LkE4q_bYTzbur5KE-432" style="edgeStyle=orthogonalEdgeStyle;rounded=0;orthogonalLoop=1;jettySize=auto;html=1;exitX=0.5;exitY=0;exitDx=0;exitDy=0;entryX=0.5;entryY=1;entryDx=0;entryDy=0;" edge="1" parent="1" source="uB74LkE4q_bYTzbur5KE-433" target="uB74LkE4q_bYTzbur5KE-445">
          <mxGeometry relative="1" as="geometry">
            <Array as="points">
              <mxPoint x="330" y="5830" />
              <mxPoint x="840" y="5830" />
            </Array>
            <mxPoint x="540" y="5790" as="targetPoint" />
          </mxGeometry>
        </mxCell>
        <mxCell id="uB74LkE4q_bYTzbur5KE-433" value="g-&amp;gt;survival" style="rounded=1;whiteSpace=wrap;html=1;" vertex="1" parent="1">
          <mxGeometry x="290" y="5840" width="80" height="30" as="geometry" />
        </mxCell>
        <mxCell id="uB74LkE4q_bYTzbur5KE-434" style="edgeStyle=orthogonalEdgeStyle;rounded=0;orthogonalLoop=1;jettySize=auto;html=1;exitX=0.5;exitY=0;exitDx=0;exitDy=0;entryX=0.25;entryY=1;entryDx=0;entryDy=0;" edge="1" parent="1" source="uB74LkE4q_bYTzbur5KE-435" target="uB74LkE4q_bYTzbur5KE-445">
          <mxGeometry relative="1" as="geometry">
            <Array as="points">
              <mxPoint x="240" y="5820" />
              <mxPoint x="815" y="5820" />
            </Array>
          </mxGeometry>
        </mxCell>
        <mxCell id="uB74LkE4q_bYTzbur5KE-435" value="g-&amp;gt;old1" style="rounded=1;whiteSpace=wrap;html=1;" vertex="1" parent="1">
          <mxGeometry x="200" y="5840" width="80" height="30" as="geometry" />
        </mxCell>
        <mxCell id="uB74LkE4q_bYTzbur5KE-436" style="edgeStyle=orthogonalEdgeStyle;rounded=0;orthogonalLoop=1;jettySize=auto;html=1;exitX=0.5;exitY=0;exitDx=0;exitDy=0;entryX=0.25;entryY=1;entryDx=0;entryDy=0;" edge="1" parent="1" source="uB74LkE4q_bYTzbur5KE-437" target="uB74LkE4q_bYTzbur5KE-443">
          <mxGeometry relative="1" as="geometry" />
        </mxCell>
        <mxCell id="uB74LkE4q_bYTzbur5KE-437" value="g-&amp;gt;reallyold" style="rounded=1;whiteSpace=wrap;html=1;" vertex="1" parent="1">
          <mxGeometry x="110" y="5840" width="80" height="30" as="geometry" />
        </mxCell>
        <mxCell id="uB74LkE4q_bYTzbur5KE-438" style="edgeStyle=orthogonalEdgeStyle;rounded=0;orthogonalLoop=1;jettySize=auto;html=1;exitX=0;exitY=0.5;exitDx=0;exitDy=0;entryX=1;entryY=0.5;entryDx=0;entryDy=0;" edge="1" parent="1" source="uB74LkE4q_bYTzbur5KE-439" target="uB74LkE4q_bYTzbur5KE-429">
          <mxGeometry relative="1" as="geometry" />
        </mxCell>
        <mxCell id="uB74LkE4q_bYTzbur5KE-439" value="O4&lt;br&gt;G_OLD" style="rounded=0;whiteSpace=wrap;html=1;fillColor=#647687;fontColor=#ffffff;strokeColor=#314354;" vertex="1" parent="1">
          <mxGeometry x="340" y="5730" width="100" height="60" as="geometry" />
        </mxCell>
        <mxCell id="uB74LkE4q_bYTzbur5KE-440" style="edgeStyle=orthogonalEdgeStyle;rounded=0;orthogonalLoop=1;jettySize=auto;html=1;exitX=0;exitY=0.5;exitDx=0;exitDy=0;entryX=1;entryY=0.5;entryDx=0;entryDy=0;" edge="1" parent="1" source="uB74LkE4q_bYTzbur5KE-441" target="uB74LkE4q_bYTzbur5KE-439">
          <mxGeometry relative="1" as="geometry">
            <mxPoint x="590" y="5760" as="targetPoint" />
          </mxGeometry>
        </mxCell>
        <mxCell id="uB74LkE4q_bYTzbur5KE-441" value="O7&lt;br&gt;G_OLD" style="rounded=0;whiteSpace=wrap;html=1;fillColor=#647687;strokeColor=#314354;fontColor=#ffffff;" vertex="1" parent="1">
          <mxGeometry x="490" y="5730" width="100" height="60" as="geometry" />
        </mxCell>
        <mxCell id="uB74LkE4q_bYTzbur5KE-442" style="edgeStyle=orthogonalEdgeStyle;rounded=0;orthogonalLoop=1;jettySize=auto;html=1;exitX=0;exitY=0.5;exitDx=0;exitDy=0;entryX=1;entryY=0.5;entryDx=0;entryDy=0;" edge="1" parent="1" source="uB74LkE4q_bYTzbur5KE-443" target="uB74LkE4q_bYTzbur5KE-441">
          <mxGeometry relative="1" as="geometry" />
        </mxCell>
        <mxCell id="uB74LkE4q_bYTzbur5KE-443" value="O8&lt;br&gt;G_OLD" style="rounded=0;whiteSpace=wrap;html=1;fillColor=#647687;strokeColor=#314354;fontColor=#ffffff;" vertex="1" parent="1">
          <mxGeometry x="640" y="5730" width="100" height="60" as="geometry" />
        </mxCell>
        <mxCell id="uB74LkE4q_bYTzbur5KE-444" style="edgeStyle=orthogonalEdgeStyle;rounded=0;orthogonalLoop=1;jettySize=auto;html=1;exitX=0;exitY=0.5;exitDx=0;exitDy=0;entryX=1;entryY=0.5;entryDx=0;entryDy=0;" edge="1" parent="1" source="uB74LkE4q_bYTzbur5KE-445" target="uB74LkE4q_bYTzbur5KE-443">
          <mxGeometry relative="1" as="geometry" />
        </mxCell>
        <mxCell id="uB74LkE4q_bYTzbur5KE-445" value="O10&lt;br&gt;G_OLD1" style="rounded=0;whiteSpace=wrap;html=1;fillColor=#647687;fontColor=#ffffff;strokeColor=#314354;" vertex="1" parent="1">
          <mxGeometry x="790" y="5730" width="100" height="60" as="geometry" />
        </mxCell>
        <mxCell id="uB74LkE4q_bYTzbur5KE-451" style="edgeStyle=orthogonalEdgeStyle;rounded=0;orthogonalLoop=1;jettySize=auto;html=1;exitX=0;exitY=0.5;exitDx=0;exitDy=0;entryX=1;entryY=0.5;entryDx=0;entryDy=0;" edge="1" parent="1" source="uB74LkE4q_bYTzbur5KE-450" target="uB74LkE4q_bYTzbur5KE-445">
          <mxGeometry relative="1" as="geometry" />
        </mxCell>
        <mxCell id="uB74LkE4q_bYTzbur5KE-450" value="O13&lt;br&gt;G_NEW" style="rounded=0;whiteSpace=wrap;html=1;" vertex="1" parent="1">
          <mxGeometry x="940" y="5730" width="100" height="60" as="geometry" />
        </mxCell>
        <mxCell id="uB74LkE4q_bYTzbur5KE-473" value="" style="endArrow=none;html=1;rounded=0;" edge="1" parent="1">
          <mxGeometry width="50" height="50" relative="1" as="geometry">
            <mxPoint y="2600" as="sourcePoint" />
            <mxPoint x="1000" y="2600" as="targetPoint" />
          </mxGeometry>
        </mxCell>
        <mxCell id="uB74LkE4q_bYTzbur5KE-475" value="" style="endArrow=none;html=1;rounded=0;" edge="1" parent="1">
          <mxGeometry width="50" height="50" relative="1" as="geometry">
            <mxPoint y="1290" as="sourcePoint" />
            <mxPoint x="1000" y="1290" as="targetPoint" />
          </mxGeometry>
        </mxCell>
        <mxCell id="uB74LkE4q_bYTzbur5KE-476" value="" style="endArrow=none;html=1;rounded=0;" edge="1" parent="1">
          <mxGeometry width="50" height="50" relative="1" as="geometry">
            <mxPoint y="3910" as="sourcePoint" />
            <mxPoint x="1000" y="3910" as="targetPoint" />
          </mxGeometry>
        </mxCell>
        <mxCell id="uB74LkE4q_bYTzbur5KE-477" value="" style="endArrow=none;html=1;rounded=0;" edge="1" parent="1">
          <mxGeometry width="50" height="50" relative="1" as="geometry">
            <mxPoint y="5280" as="sourcePoint" />
            <mxPoint x="1000" y="5280" as="targetPoint" />
          </mxGeometry>
        </mxCell>
        <mxCell id="uB74LkE4q_bYTzbur5KE-478" value="" style="endArrow=none;html=1;rounded=0;" edge="1" parent="1">
          <mxGeometry width="50" height="50" relative="1" as="geometry">
            <mxPoint y="5600" as="sourcePoint" />
            <mxPoint x="1000" y="5600" as="targetPoint" />
          </mxGeometry>
        </mxCell>
        <mxCell id="uB74LkE4q_bYTzbur5KE-479" value="&lt;font style=&quot;font-size: 16px;&quot;&gt;关于G_OLD0、G_TOUCHED1和G_TOUCHED2的思考&lt;/font&gt;" style="endArrow=none;html=1;rounded=0;" edge="1" parent="1">
          <mxGeometry width="50" height="50" relative="1" as="geometry">
            <mxPoint y="5930" as="sourcePoint" />
            <mxPoint x="1000" y="5930" as="targetPoint" />
          </mxGeometry>
        </mxCell>
        <mxCell id="uB74LkE4q_bYTzbur5KE-501" value="O1&lt;br&gt;G_OLD" style="rounded=0;whiteSpace=wrap;html=1;fillColor=#647687;fontColor=#ffffff;strokeColor=#314354;" vertex="1" parent="1">
          <mxGeometry x="40" y="6090" width="100" height="60" as="geometry" />
        </mxCell>
        <mxCell id="uB74LkE4q_bYTzbur5KE-502" style="edgeStyle=orthogonalEdgeStyle;rounded=0;orthogonalLoop=1;jettySize=auto;html=1;exitX=0;exitY=0.5;exitDx=0;exitDy=0;" edge="1" parent="1" source="uB74LkE4q_bYTzbur5KE-503" target="uB74LkE4q_bYTzbur5KE-501">
          <mxGeometry relative="1" as="geometry" />
        </mxCell>
        <mxCell id="uB74LkE4q_bYTzbur5KE-503" value="O2&lt;br&gt;G_OLD" style="rounded=0;whiteSpace=wrap;html=1;fillColor=#647687;strokeColor=#314354;fontColor=#ffffff;" vertex="1" parent="1">
          <mxGeometry x="190" y="6090" width="100" height="60" as="geometry" />
        </mxCell>
        <mxCell id="uB74LkE4q_bYTzbur5KE-546" style="edgeStyle=orthogonalEdgeStyle;rounded=0;orthogonalLoop=1;jettySize=auto;html=1;exitX=0.5;exitY=1;exitDx=0;exitDy=0;entryX=0.5;entryY=0;entryDx=0;entryDy=0;" edge="1" parent="1" source="uB74LkE4q_bYTzbur5KE-505" target="uB74LkE4q_bYTzbur5KE-539">
          <mxGeometry relative="1" as="geometry" />
        </mxCell>
        <mxCell id="uB74LkE4q_bYTzbur5KE-505" value="&lt;font style=&quot;font-size: 16px;&quot;&gt;g-&amp;gt;allgc&lt;/font&gt;" style="rounded=1;whiteSpace=wrap;html=1;" vertex="1" parent="1">
          <mxGeometry x="930" y="5980" width="120" height="60" as="geometry" />
        </mxCell>
        <mxCell id="uB74LkE4q_bYTzbur5KE-506" style="edgeStyle=orthogonalEdgeStyle;rounded=0;orthogonalLoop=1;jettySize=auto;html=1;exitX=0.5;exitY=0;exitDx=0;exitDy=0;entryX=0.75;entryY=1;entryDx=0;entryDy=0;" edge="1" parent="1" source="uB74LkE4q_bYTzbur5KE-507" target="uB74LkE4q_bYTzbur5KE-503">
          <mxGeometry relative="1" as="geometry" />
        </mxCell>
        <mxCell id="uB74LkE4q_bYTzbur5KE-507" value="g-&amp;gt;survival" style="rounded=1;whiteSpace=wrap;html=1;" vertex="1" parent="1">
          <mxGeometry x="290" y="6200" width="80" height="30" as="geometry" />
        </mxCell>
        <mxCell id="uB74LkE4q_bYTzbur5KE-508" style="edgeStyle=orthogonalEdgeStyle;rounded=0;orthogonalLoop=1;jettySize=auto;html=1;exitX=0.5;exitY=0;exitDx=0;exitDy=0;entryX=0.5;entryY=1;entryDx=0;entryDy=0;" edge="1" parent="1" source="uB74LkE4q_bYTzbur5KE-509" target="uB74LkE4q_bYTzbur5KE-503">
          <mxGeometry relative="1" as="geometry" />
        </mxCell>
        <mxCell id="uB74LkE4q_bYTzbur5KE-509" value="g-&amp;gt;old1" style="rounded=1;whiteSpace=wrap;html=1;" vertex="1" parent="1">
          <mxGeometry x="200" y="6200" width="80" height="30" as="geometry" />
        </mxCell>
        <mxCell id="uB74LkE4q_bYTzbur5KE-510" style="edgeStyle=orthogonalEdgeStyle;rounded=0;orthogonalLoop=1;jettySize=auto;html=1;exitX=0.5;exitY=0;exitDx=0;exitDy=0;entryX=0.25;entryY=1;entryDx=0;entryDy=0;" edge="1" parent="1" source="uB74LkE4q_bYTzbur5KE-511" target="uB74LkE4q_bYTzbur5KE-503">
          <mxGeometry relative="1" as="geometry" />
        </mxCell>
        <mxCell id="uB74LkE4q_bYTzbur5KE-511" value="g-&amp;gt;reallyold" style="rounded=1;whiteSpace=wrap;html=1;" vertex="1" parent="1">
          <mxGeometry x="110" y="6200" width="80" height="30" as="geometry" />
        </mxCell>
        <mxCell id="uB74LkE4q_bYTzbur5KE-535" style="edgeStyle=orthogonalEdgeStyle;rounded=0;orthogonalLoop=1;jettySize=auto;html=1;exitX=0;exitY=0.5;exitDx=0;exitDy=0;" edge="1" parent="1" source="uB74LkE4q_bYTzbur5KE-531" target="uB74LkE4q_bYTzbur5KE-503">
          <mxGeometry relative="1" as="geometry" />
        </mxCell>
        <mxCell id="uB74LkE4q_bYTzbur5KE-531" value="O3&lt;br&gt;G_NEW" style="rounded=0;whiteSpace=wrap;html=1;" vertex="1" parent="1">
          <mxGeometry x="340" y="6090" width="100" height="60" as="geometry" />
        </mxCell>
        <mxCell id="uB74LkE4q_bYTzbur5KE-536" style="edgeStyle=orthogonalEdgeStyle;rounded=0;orthogonalLoop=1;jettySize=auto;html=1;exitX=0;exitY=0.5;exitDx=0;exitDy=0;entryX=1;entryY=0.5;entryDx=0;entryDy=0;" edge="1" parent="1" source="uB74LkE4q_bYTzbur5KE-532" target="uB74LkE4q_bYTzbur5KE-531">
          <mxGeometry relative="1" as="geometry" />
        </mxCell>
        <mxCell id="uB74LkE4q_bYTzbur5KE-532" value="O4&lt;br&gt;G_NEW" style="rounded=0;whiteSpace=wrap;html=1;" vertex="1" parent="1">
          <mxGeometry x="490" y="6090" width="100" height="60" as="geometry" />
        </mxCell>
        <mxCell id="uB74LkE4q_bYTzbur5KE-537" style="edgeStyle=orthogonalEdgeStyle;rounded=0;orthogonalLoop=1;jettySize=auto;html=1;exitX=0;exitY=0.5;exitDx=0;exitDy=0;entryX=1;entryY=0.5;entryDx=0;entryDy=0;" edge="1" parent="1" source="uB74LkE4q_bYTzbur5KE-533" target="uB74LkE4q_bYTzbur5KE-532">
          <mxGeometry relative="1" as="geometry" />
        </mxCell>
        <mxCell id="uB74LkE4q_bYTzbur5KE-533" value="O5&lt;br&gt;G_NEW" style="rounded=0;whiteSpace=wrap;html=1;" vertex="1" parent="1">
          <mxGeometry x="640" y="6090" width="100" height="60" as="geometry" />
        </mxCell>
        <mxCell id="uB74LkE4q_bYTzbur5KE-538" style="edgeStyle=orthogonalEdgeStyle;rounded=0;orthogonalLoop=1;jettySize=auto;html=1;exitX=0;exitY=0.5;exitDx=0;exitDy=0;" edge="1" parent="1" source="uB74LkE4q_bYTzbur5KE-534" target="uB74LkE4q_bYTzbur5KE-533">
          <mxGeometry relative="1" as="geometry" />
        </mxCell>
        <mxCell id="uB74LkE4q_bYTzbur5KE-534" value="O6&lt;br&gt;G_NEW" style="rounded=0;whiteSpace=wrap;html=1;" vertex="1" parent="1">
          <mxGeometry x="790" y="6090" width="100" height="60" as="geometry" />
        </mxCell>
        <mxCell id="uB74LkE4q_bYTzbur5KE-547" style="edgeStyle=orthogonalEdgeStyle;rounded=0;orthogonalLoop=1;jettySize=auto;html=1;exitX=0;exitY=0.5;exitDx=0;exitDy=0;" edge="1" parent="1" source="uB74LkE4q_bYTzbur5KE-539" target="uB74LkE4q_bYTzbur5KE-534">
          <mxGeometry relative="1" as="geometry" />
        </mxCell>
        <mxCell id="uB74LkE4q_bYTzbur5KE-539" value="O7&lt;br&gt;G_NEW" style="rounded=0;whiteSpace=wrap;html=1;" vertex="1" parent="1">
          <mxGeometry x="940" y="6090" width="100" height="60" as="geometry" />
        </mxCell>
        <mxCell id="uB74LkE4q_bYTzbur5KE-575" style="edgeStyle=orthogonalEdgeStyle;rounded=0;orthogonalLoop=1;jettySize=auto;html=1;exitX=0.5;exitY=0;exitDx=0;exitDy=0;entryX=0.5;entryY=0;entryDx=0;entryDy=0;curved=1;fillColor=#f8cecc;gradientColor=#ea6b66;strokeColor=#b85450;" edge="1" parent="1" source="uB74LkE4q_bYTzbur5KE-577" target="uB74LkE4q_bYTzbur5KE-598">
          <mxGeometry relative="1" as="geometry">
            <Array as="points">
              <mxPoint x="90" y="6330" />
              <mxPoint x="840" y="6330" />
            </Array>
          </mxGeometry>
        </mxCell>
        <mxCell id="uB74LkE4q_bYTzbur5KE-576" style="edgeStyle=orthogonalEdgeStyle;rounded=0;orthogonalLoop=1;jettySize=auto;html=1;exitX=0.5;exitY=0;exitDx=0;exitDy=0;entryX=0.5;entryY=0;entryDx=0;entryDy=0;curved=1;fillColor=#f8cecc;gradientColor=#ea6b66;strokeColor=#b85450;" edge="1" parent="1" source="uB74LkE4q_bYTzbur5KE-577" target="uB74LkE4q_bYTzbur5KE-596">
          <mxGeometry relative="1" as="geometry">
            <Array as="points">
              <mxPoint x="90" y="6390" />
              <mxPoint x="690" y="6390" />
            </Array>
          </mxGeometry>
        </mxCell>
        <mxCell id="uB74LkE4q_bYTzbur5KE-577" value="O1&lt;br&gt;G_OLD" style="rounded=0;whiteSpace=wrap;html=1;fillColor=#647687;fontColor=#ffffff;strokeColor=#314354;" vertex="1" parent="1">
          <mxGeometry x="40" y="6470" width="100" height="60" as="geometry" />
        </mxCell>
        <mxCell id="uB74LkE4q_bYTzbur5KE-578" style="edgeStyle=orthogonalEdgeStyle;rounded=0;orthogonalLoop=1;jettySize=auto;html=1;exitX=0;exitY=0.5;exitDx=0;exitDy=0;" edge="1" parent="1" source="uB74LkE4q_bYTzbur5KE-582" target="uB74LkE4q_bYTzbur5KE-577">
          <mxGeometry relative="1" as="geometry" />
        </mxCell>
        <mxCell id="uB74LkE4q_bYTzbur5KE-579" style="edgeStyle=orthogonalEdgeStyle;rounded=0;orthogonalLoop=1;jettySize=auto;html=1;exitX=0.5;exitY=0;exitDx=0;exitDy=0;entryX=0.5;entryY=0;entryDx=0;entryDy=0;curved=1;fillColor=#e51400;strokeColor=#B20000;" edge="1" parent="1" source="uB74LkE4q_bYTzbur5KE-582" target="uB74LkE4q_bYTzbur5KE-594">
          <mxGeometry relative="1" as="geometry" />
        </mxCell>
        <mxCell id="uB74LkE4q_bYTzbur5KE-580" style="edgeStyle=orthogonalEdgeStyle;rounded=0;orthogonalLoop=1;jettySize=auto;html=1;exitX=0.5;exitY=0;exitDx=0;exitDy=0;entryX=0.5;entryY=0;entryDx=0;entryDy=0;curved=1;fillColor=#f8cecc;gradientColor=#ea6b66;strokeColor=#b85450;" edge="1" parent="1" source="uB74LkE4q_bYTzbur5KE-582" target="uB74LkE4q_bYTzbur5KE-592">
          <mxGeometry relative="1" as="geometry" />
        </mxCell>
        <mxCell id="uB74LkE4q_bYTzbur5KE-581" style="edgeStyle=orthogonalEdgeStyle;rounded=0;orthogonalLoop=1;jettySize=auto;html=1;exitX=0.5;exitY=0;exitDx=0;exitDy=0;entryX=0.5;entryY=0;entryDx=0;entryDy=0;curved=1;fillColor=#f8cecc;gradientColor=#ea6b66;strokeColor=#b85450;" edge="1" parent="1" source="uB74LkE4q_bYTzbur5KE-582" target="uB74LkE4q_bYTzbur5KE-600">
          <mxGeometry relative="1" as="geometry">
            <Array as="points">
              <mxPoint x="240" y="6420" />
              <mxPoint x="990" y="6420" />
            </Array>
          </mxGeometry>
        </mxCell>
        <mxCell id="uB74LkE4q_bYTzbur5KE-582" value="O2&lt;br&gt;G_TOUCHED1" style="rounded=0;whiteSpace=wrap;html=1;fillColor=#f5f5f5;strokeColor=#666666;gradientColor=#b3b3b3;" vertex="1" parent="1">
          <mxGeometry x="190" y="6470" width="100" height="60" as="geometry" />
        </mxCell>
        <mxCell id="uB74LkE4q_bYTzbur5KE-583" style="edgeStyle=orthogonalEdgeStyle;rounded=0;orthogonalLoop=1;jettySize=auto;html=1;exitX=0.5;exitY=1;exitDx=0;exitDy=0;entryX=0.5;entryY=0;entryDx=0;entryDy=0;" edge="1" parent="1" source="uB74LkE4q_bYTzbur5KE-584" target="uB74LkE4q_bYTzbur5KE-600">
          <mxGeometry relative="1" as="geometry" />
        </mxCell>
        <mxCell id="uB74LkE4q_bYTzbur5KE-584" value="&lt;font style=&quot;font-size: 16px;&quot;&gt;g-&amp;gt;allgc&lt;/font&gt;" style="rounded=1;whiteSpace=wrap;html=1;" vertex="1" parent="1">
          <mxGeometry x="930" y="6360" width="120" height="60" as="geometry" />
        </mxCell>
        <mxCell id="uB74LkE4q_bYTzbur5KE-585" style="edgeStyle=orthogonalEdgeStyle;rounded=0;orthogonalLoop=1;jettySize=auto;html=1;exitX=0.5;exitY=0;exitDx=0;exitDy=0;entryX=0.75;entryY=1;entryDx=0;entryDy=0;" edge="1" parent="1" source="uB74LkE4q_bYTzbur5KE-586" target="uB74LkE4q_bYTzbur5KE-582">
          <mxGeometry relative="1" as="geometry" />
        </mxCell>
        <mxCell id="uB74LkE4q_bYTzbur5KE-586" value="g-&amp;gt;survival" style="rounded=1;whiteSpace=wrap;html=1;" vertex="1" parent="1">
          <mxGeometry x="290" y="6580" width="80" height="30" as="geometry" />
        </mxCell>
        <mxCell id="uB74LkE4q_bYTzbur5KE-587" style="edgeStyle=orthogonalEdgeStyle;rounded=0;orthogonalLoop=1;jettySize=auto;html=1;exitX=0.5;exitY=0;exitDx=0;exitDy=0;entryX=0.5;entryY=1;entryDx=0;entryDy=0;" edge="1" parent="1" source="uB74LkE4q_bYTzbur5KE-588" target="uB74LkE4q_bYTzbur5KE-582">
          <mxGeometry relative="1" as="geometry" />
        </mxCell>
        <mxCell id="uB74LkE4q_bYTzbur5KE-588" value="g-&amp;gt;old1" style="rounded=1;whiteSpace=wrap;html=1;" vertex="1" parent="1">
          <mxGeometry x="200" y="6580" width="80" height="30" as="geometry" />
        </mxCell>
        <mxCell id="uB74LkE4q_bYTzbur5KE-589" style="edgeStyle=orthogonalEdgeStyle;rounded=0;orthogonalLoop=1;jettySize=auto;html=1;exitX=0.5;exitY=0;exitDx=0;exitDy=0;entryX=0.25;entryY=1;entryDx=0;entryDy=0;" edge="1" parent="1" source="uB74LkE4q_bYTzbur5KE-590" target="uB74LkE4q_bYTzbur5KE-582">
          <mxGeometry relative="1" as="geometry" />
        </mxCell>
        <mxCell id="uB74LkE4q_bYTzbur5KE-590" value="g-&amp;gt;reallyold" style="rounded=1;whiteSpace=wrap;html=1;" vertex="1" parent="1">
          <mxGeometry x="110" y="6580" width="80" height="30" as="geometry" />
        </mxCell>
        <mxCell id="uB74LkE4q_bYTzbur5KE-591" style="edgeStyle=orthogonalEdgeStyle;rounded=0;orthogonalLoop=1;jettySize=auto;html=1;exitX=0;exitY=0.5;exitDx=0;exitDy=0;" edge="1" parent="1" source="uB74LkE4q_bYTzbur5KE-592" target="uB74LkE4q_bYTzbur5KE-582">
          <mxGeometry relative="1" as="geometry" />
        </mxCell>
        <mxCell id="uB74LkE4q_bYTzbur5KE-592" value="O3&lt;br&gt;G_NEW" style="rounded=0;whiteSpace=wrap;html=1;" vertex="1" parent="1">
          <mxGeometry x="340" y="6470" width="100" height="60" as="geometry" />
        </mxCell>
        <mxCell id="uB74LkE4q_bYTzbur5KE-593" style="edgeStyle=orthogonalEdgeStyle;rounded=0;orthogonalLoop=1;jettySize=auto;html=1;exitX=0;exitY=0.5;exitDx=0;exitDy=0;entryX=1;entryY=0.5;entryDx=0;entryDy=0;" edge="1" parent="1" source="uB74LkE4q_bYTzbur5KE-594" target="uB74LkE4q_bYTzbur5KE-592">
          <mxGeometry relative="1" as="geometry" />
        </mxCell>
        <mxCell id="uB74LkE4q_bYTzbur5KE-594" value="O4&lt;br&gt;G_NEW" style="rounded=0;whiteSpace=wrap;html=1;" vertex="1" parent="1">
          <mxGeometry x="490" y="6470" width="100" height="60" as="geometry" />
        </mxCell>
        <mxCell id="uB74LkE4q_bYTzbur5KE-595" style="edgeStyle=orthogonalEdgeStyle;rounded=0;orthogonalLoop=1;jettySize=auto;html=1;exitX=0;exitY=0.5;exitDx=0;exitDy=0;entryX=1;entryY=0.5;entryDx=0;entryDy=0;" edge="1" parent="1" source="uB74LkE4q_bYTzbur5KE-596" target="uB74LkE4q_bYTzbur5KE-594">
          <mxGeometry relative="1" as="geometry" />
        </mxCell>
        <mxCell id="uB74LkE4q_bYTzbur5KE-596" value="O5&lt;br&gt;G_OLD0" style="rounded=0;whiteSpace=wrap;html=1;fillColor=#f5f5f5;gradientColor=#b3b3b3;strokeColor=#666666;" vertex="1" parent="1">
          <mxGeometry x="640" y="6470" width="100" height="60" as="geometry" />
        </mxCell>
        <mxCell id="uB74LkE4q_bYTzbur5KE-597" style="edgeStyle=orthogonalEdgeStyle;rounded=0;orthogonalLoop=1;jettySize=auto;html=1;exitX=0;exitY=0.5;exitDx=0;exitDy=0;" edge="1" parent="1" source="uB74LkE4q_bYTzbur5KE-598" target="uB74LkE4q_bYTzbur5KE-596">
          <mxGeometry relative="1" as="geometry" />
        </mxCell>
        <mxCell id="uB74LkE4q_bYTzbur5KE-598" value="O6&lt;br&gt;G_OLD0" style="rounded=0;whiteSpace=wrap;html=1;fillColor=#f5f5f5;gradientColor=#b3b3b3;strokeColor=#666666;" vertex="1" parent="1">
          <mxGeometry x="790" y="6470" width="100" height="60" as="geometry" />
        </mxCell>
        <mxCell id="uB74LkE4q_bYTzbur5KE-599" style="edgeStyle=orthogonalEdgeStyle;rounded=0;orthogonalLoop=1;jettySize=auto;html=1;exitX=0;exitY=0.5;exitDx=0;exitDy=0;" edge="1" parent="1" source="uB74LkE4q_bYTzbur5KE-600" target="uB74LkE4q_bYTzbur5KE-598">
          <mxGeometry relative="1" as="geometry" />
        </mxCell>
        <mxCell id="uB74LkE4q_bYTzbur5KE-600" value="O7&lt;br&gt;G_NEW" style="rounded=0;whiteSpace=wrap;html=1;" vertex="1" parent="1">
          <mxGeometry x="940" y="6470" width="100" height="60" as="geometry" />
        </mxCell>
        <mxCell id="uB74LkE4q_bYTzbur5KE-601" style="edgeStyle=orthogonalEdgeStyle;rounded=0;orthogonalLoop=1;jettySize=auto;html=1;exitX=0.5;exitY=0;exitDx=0;exitDy=0;entryX=0.5;entryY=0;entryDx=0;entryDy=0;curved=1;fillColor=#f8cecc;gradientColor=#ea6b66;strokeColor=#b85450;" edge="1" parent="1" source="uB74LkE4q_bYTzbur5KE-603" target="uB74LkE4q_bYTzbur5KE-624">
          <mxGeometry relative="1" as="geometry">
            <Array as="points">
              <mxPoint x="90" y="6700" />
              <mxPoint x="840" y="6700" />
            </Array>
          </mxGeometry>
        </mxCell>
        <mxCell id="uB74LkE4q_bYTzbur5KE-602" style="edgeStyle=orthogonalEdgeStyle;rounded=0;orthogonalLoop=1;jettySize=auto;html=1;exitX=0.5;exitY=0;exitDx=0;exitDy=0;entryX=0.5;entryY=0;entryDx=0;entryDy=0;curved=1;fillColor=#f8cecc;gradientColor=#ea6b66;strokeColor=#b85450;" edge="1" parent="1" source="uB74LkE4q_bYTzbur5KE-603" target="uB74LkE4q_bYTzbur5KE-622">
          <mxGeometry relative="1" as="geometry">
            <Array as="points">
              <mxPoint x="90" y="6760" />
              <mxPoint x="690" y="6760" />
            </Array>
          </mxGeometry>
        </mxCell>
        <mxCell id="uB74LkE4q_bYTzbur5KE-603" value="O1&lt;br&gt;G_OLD" style="rounded=0;whiteSpace=wrap;html=1;fillColor=#647687;fontColor=#ffffff;strokeColor=#314354;" vertex="1" parent="1">
          <mxGeometry x="40" y="6840" width="100" height="60" as="geometry" />
        </mxCell>
        <mxCell id="uB74LkE4q_bYTzbur5KE-604" style="edgeStyle=orthogonalEdgeStyle;rounded=0;orthogonalLoop=1;jettySize=auto;html=1;exitX=0;exitY=0.5;exitDx=0;exitDy=0;" edge="1" parent="1" source="uB74LkE4q_bYTzbur5KE-608" target="uB74LkE4q_bYTzbur5KE-603">
          <mxGeometry relative="1" as="geometry" />
        </mxCell>
        <mxCell id="uB74LkE4q_bYTzbur5KE-605" style="edgeStyle=orthogonalEdgeStyle;rounded=0;orthogonalLoop=1;jettySize=auto;html=1;exitX=0.5;exitY=0;exitDx=0;exitDy=0;entryX=0.5;entryY=0;entryDx=0;entryDy=0;curved=1;fillColor=#e51400;strokeColor=#B20000;" edge="1" parent="1" source="uB74LkE4q_bYTzbur5KE-608" target="uB74LkE4q_bYTzbur5KE-620">
          <mxGeometry relative="1" as="geometry" />
        </mxCell>
        <mxCell id="uB74LkE4q_bYTzbur5KE-606" style="edgeStyle=orthogonalEdgeStyle;rounded=0;orthogonalLoop=1;jettySize=auto;html=1;exitX=0.5;exitY=0;exitDx=0;exitDy=0;entryX=0.5;entryY=0;entryDx=0;entryDy=0;curved=1;fillColor=#f8cecc;gradientColor=#ea6b66;strokeColor=#b85450;" edge="1" parent="1" source="uB74LkE4q_bYTzbur5KE-608" target="uB74LkE4q_bYTzbur5KE-618">
          <mxGeometry relative="1" as="geometry" />
        </mxCell>
        <mxCell id="uB74LkE4q_bYTzbur5KE-607" style="edgeStyle=orthogonalEdgeStyle;rounded=0;orthogonalLoop=1;jettySize=auto;html=1;exitX=0.5;exitY=0;exitDx=0;exitDy=0;entryX=0.5;entryY=0;entryDx=0;entryDy=0;curved=1;fillColor=#f8cecc;gradientColor=#ea6b66;strokeColor=#b85450;" edge="1" parent="1" source="uB74LkE4q_bYTzbur5KE-608" target="uB74LkE4q_bYTzbur5KE-626">
          <mxGeometry relative="1" as="geometry">
            <Array as="points">
              <mxPoint x="240" y="6790" />
              <mxPoint x="990" y="6790" />
            </Array>
          </mxGeometry>
        </mxCell>
        <mxCell id="uB74LkE4q_bYTzbur5KE-608" value="O2&lt;br&gt;G_TOUCHED1" style="rounded=0;whiteSpace=wrap;html=1;fillColor=#647687;strokeColor=#314354;fontColor=#ffffff;" vertex="1" parent="1">
          <mxGeometry x="190" y="6840" width="100" height="60" as="geometry" />
        </mxCell>
        <mxCell id="uB74LkE4q_bYTzbur5KE-609" style="edgeStyle=orthogonalEdgeStyle;rounded=0;orthogonalLoop=1;jettySize=auto;html=1;exitX=0.5;exitY=1;exitDx=0;exitDy=0;entryX=0.5;entryY=0;entryDx=0;entryDy=0;" edge="1" parent="1" source="uB74LkE4q_bYTzbur5KE-610" target="uB74LkE4q_bYTzbur5KE-626">
          <mxGeometry relative="1" as="geometry" />
        </mxCell>
        <mxCell id="uB74LkE4q_bYTzbur5KE-610" value="&lt;font style=&quot;font-size: 16px;&quot;&gt;g-&amp;gt;allgc&lt;/font&gt;" style="rounded=1;whiteSpace=wrap;html=1;" vertex="1" parent="1">
          <mxGeometry x="930" y="6730" width="120" height="60" as="geometry" />
        </mxCell>
        <mxCell id="uB74LkE4q_bYTzbur5KE-611" style="edgeStyle=orthogonalEdgeStyle;rounded=0;orthogonalLoop=1;jettySize=auto;html=1;exitX=0.5;exitY=0;exitDx=0;exitDy=0;entryX=0.75;entryY=1;entryDx=0;entryDy=0;" edge="1" parent="1" source="uB74LkE4q_bYTzbur5KE-612" target="uB74LkE4q_bYTzbur5KE-608">
          <mxGeometry relative="1" as="geometry" />
        </mxCell>
        <mxCell id="uB74LkE4q_bYTzbur5KE-612" value="g-&amp;gt;survival" style="rounded=1;whiteSpace=wrap;html=1;" vertex="1" parent="1">
          <mxGeometry x="290" y="6950" width="80" height="30" as="geometry" />
        </mxCell>
        <mxCell id="uB74LkE4q_bYTzbur5KE-613" style="edgeStyle=orthogonalEdgeStyle;rounded=0;orthogonalLoop=1;jettySize=auto;html=1;exitX=0.5;exitY=0;exitDx=0;exitDy=0;entryX=0.5;entryY=1;entryDx=0;entryDy=0;" edge="1" parent="1" source="uB74LkE4q_bYTzbur5KE-614" target="uB74LkE4q_bYTzbur5KE-608">
          <mxGeometry relative="1" as="geometry" />
        </mxCell>
        <mxCell id="uB74LkE4q_bYTzbur5KE-614" value="g-&amp;gt;old1" style="rounded=1;whiteSpace=wrap;html=1;" vertex="1" parent="1">
          <mxGeometry x="200" y="6950" width="80" height="30" as="geometry" />
        </mxCell>
        <mxCell id="uB74LkE4q_bYTzbur5KE-615" style="edgeStyle=orthogonalEdgeStyle;rounded=0;orthogonalLoop=1;jettySize=auto;html=1;exitX=0.5;exitY=0;exitDx=0;exitDy=0;entryX=0.25;entryY=1;entryDx=0;entryDy=0;" edge="1" parent="1" source="uB74LkE4q_bYTzbur5KE-616" target="uB74LkE4q_bYTzbur5KE-608">
          <mxGeometry relative="1" as="geometry" />
        </mxCell>
        <mxCell id="uB74LkE4q_bYTzbur5KE-616" value="g-&amp;gt;reallyold" style="rounded=1;whiteSpace=wrap;html=1;" vertex="1" parent="1">
          <mxGeometry x="110" y="6950" width="80" height="30" as="geometry" />
        </mxCell>
        <mxCell id="uB74LkE4q_bYTzbur5KE-617" style="edgeStyle=orthogonalEdgeStyle;rounded=0;orthogonalLoop=1;jettySize=auto;html=1;exitX=0;exitY=0.5;exitDx=0;exitDy=0;" edge="1" parent="1" source="uB74LkE4q_bYTzbur5KE-618" target="uB74LkE4q_bYTzbur5KE-608">
          <mxGeometry relative="1" as="geometry" />
        </mxCell>
        <mxCell id="uB74LkE4q_bYTzbur5KE-618" value="O3&lt;br&gt;G_SURVIVAL" style="rounded=0;whiteSpace=wrap;html=1;fillColor=#647687;fontColor=#ffffff;strokeColor=#314354;" vertex="1" parent="1">
          <mxGeometry x="340" y="6840" width="100" height="60" as="geometry" />
        </mxCell>
        <mxCell id="uB74LkE4q_bYTzbur5KE-619" style="edgeStyle=orthogonalEdgeStyle;rounded=0;orthogonalLoop=1;jettySize=auto;html=1;exitX=0;exitY=0.5;exitDx=0;exitDy=0;entryX=1;entryY=0.5;entryDx=0;entryDy=0;" edge="1" parent="1" source="uB74LkE4q_bYTzbur5KE-620" target="uB74LkE4q_bYTzbur5KE-618">
          <mxGeometry relative="1" as="geometry" />
        </mxCell>
        <mxCell id="uB74LkE4q_bYTzbur5KE-620" value="O4&lt;br&gt;G_SURVIVAL" style="rounded=0;whiteSpace=wrap;html=1;fillColor=#647687;fontColor=#ffffff;strokeColor=#314354;" vertex="1" parent="1">
          <mxGeometry x="490" y="6840" width="100" height="60" as="geometry" />
        </mxCell>
        <mxCell id="uB74LkE4q_bYTzbur5KE-621" style="edgeStyle=orthogonalEdgeStyle;rounded=0;orthogonalLoop=1;jettySize=auto;html=1;exitX=0;exitY=0.5;exitDx=0;exitDy=0;entryX=1;entryY=0.5;entryDx=0;entryDy=0;" edge="1" parent="1" source="uB74LkE4q_bYTzbur5KE-622" target="uB74LkE4q_bYTzbur5KE-620">
          <mxGeometry relative="1" as="geometry" />
        </mxCell>
        <mxCell id="uB74LkE4q_bYTzbur5KE-622" value="O5&lt;br&gt;G_OLD1" style="rounded=0;whiteSpace=wrap;html=1;fillColor=#647687;fontColor=#ffffff;strokeColor=#314354;" vertex="1" parent="1">
          <mxGeometry x="640" y="6840" width="100" height="60" as="geometry" />
        </mxCell>
        <mxCell id="uB74LkE4q_bYTzbur5KE-623" style="edgeStyle=orthogonalEdgeStyle;rounded=0;orthogonalLoop=1;jettySize=auto;html=1;exitX=0;exitY=0.5;exitDx=0;exitDy=0;" edge="1" parent="1" source="uB74LkE4q_bYTzbur5KE-624" target="uB74LkE4q_bYTzbur5KE-622">
          <mxGeometry relative="1" as="geometry" />
        </mxCell>
        <mxCell id="uB74LkE4q_bYTzbur5KE-624" value="O6&lt;br&gt;G_OLD1" style="rounded=0;whiteSpace=wrap;html=1;fillColor=#647687;fontColor=#ffffff;strokeColor=#314354;" vertex="1" parent="1">
          <mxGeometry x="790" y="6840" width="100" height="60" as="geometry" />
        </mxCell>
        <mxCell id="uB74LkE4q_bYTzbur5KE-625" style="edgeStyle=orthogonalEdgeStyle;rounded=0;orthogonalLoop=1;jettySize=auto;html=1;exitX=0;exitY=0.5;exitDx=0;exitDy=0;" edge="1" parent="1" source="uB74LkE4q_bYTzbur5KE-626" target="uB74LkE4q_bYTzbur5KE-624">
          <mxGeometry relative="1" as="geometry" />
        </mxCell>
        <mxCell id="uB74LkE4q_bYTzbur5KE-626" value="O7&lt;br&gt;G_SURVIVAL" style="rounded=0;whiteSpace=wrap;html=1;fillColor=#647687;fontColor=#ffffff;strokeColor=#314354;" vertex="1" parent="1">
          <mxGeometry x="940" y="6840" width="100" height="60" as="geometry" />
        </mxCell>
        <mxCell id="uB74LkE4q_bYTzbur5KE-627" style="edgeStyle=orthogonalEdgeStyle;rounded=0;orthogonalLoop=1;jettySize=auto;html=1;exitX=0.5;exitY=0;exitDx=0;exitDy=0;entryX=0.5;entryY=0;entryDx=0;entryDy=0;curved=1;fillColor=#f8cecc;gradientColor=#ea6b66;strokeColor=#b85450;" edge="1" parent="1" source="uB74LkE4q_bYTzbur5KE-629" target="uB74LkE4q_bYTzbur5KE-650">
          <mxGeometry relative="1" as="geometry">
            <Array as="points">
              <mxPoint x="90" y="7070" />
              <mxPoint x="840" y="7070" />
            </Array>
          </mxGeometry>
        </mxCell>
        <mxCell id="uB74LkE4q_bYTzbur5KE-628" style="edgeStyle=orthogonalEdgeStyle;rounded=0;orthogonalLoop=1;jettySize=auto;html=1;exitX=0.5;exitY=0;exitDx=0;exitDy=0;entryX=0.5;entryY=0;entryDx=0;entryDy=0;curved=1;fillColor=#f8cecc;gradientColor=#ea6b66;strokeColor=#b85450;" edge="1" parent="1" source="uB74LkE4q_bYTzbur5KE-629" target="uB74LkE4q_bYTzbur5KE-648">
          <mxGeometry relative="1" as="geometry">
            <Array as="points">
              <mxPoint x="90" y="7130" />
              <mxPoint x="690" y="7130" />
            </Array>
          </mxGeometry>
        </mxCell>
        <mxCell id="uB74LkE4q_bYTzbur5KE-629" value="O1&lt;br&gt;G_OLD" style="rounded=0;whiteSpace=wrap;html=1;fillColor=#647687;fontColor=#ffffff;strokeColor=#314354;" vertex="1" parent="1">
          <mxGeometry x="40" y="7210" width="100" height="60" as="geometry" />
        </mxCell>
        <mxCell id="uB74LkE4q_bYTzbur5KE-630" style="edgeStyle=orthogonalEdgeStyle;rounded=0;orthogonalLoop=1;jettySize=auto;html=1;exitX=0;exitY=0.5;exitDx=0;exitDy=0;" edge="1" parent="1" source="uB74LkE4q_bYTzbur5KE-634" target="uB74LkE4q_bYTzbur5KE-629">
          <mxGeometry relative="1" as="geometry" />
        </mxCell>
        <mxCell id="uB74LkE4q_bYTzbur5KE-631" style="edgeStyle=orthogonalEdgeStyle;rounded=0;orthogonalLoop=1;jettySize=auto;html=1;exitX=0.5;exitY=0;exitDx=0;exitDy=0;entryX=0.5;entryY=0;entryDx=0;entryDy=0;curved=1;fillColor=#e51400;strokeColor=#B20000;" edge="1" parent="1" source="uB74LkE4q_bYTzbur5KE-634" target="uB74LkE4q_bYTzbur5KE-646">
          <mxGeometry relative="1" as="geometry" />
        </mxCell>
        <mxCell id="uB74LkE4q_bYTzbur5KE-632" style="edgeStyle=orthogonalEdgeStyle;rounded=0;orthogonalLoop=1;jettySize=auto;html=1;exitX=0.5;exitY=0;exitDx=0;exitDy=0;entryX=0.5;entryY=0;entryDx=0;entryDy=0;curved=1;fillColor=#f8cecc;gradientColor=#ea6b66;strokeColor=#b85450;" edge="1" parent="1" source="uB74LkE4q_bYTzbur5KE-634" target="uB74LkE4q_bYTzbur5KE-644">
          <mxGeometry relative="1" as="geometry" />
        </mxCell>
        <mxCell id="uB74LkE4q_bYTzbur5KE-633" style="edgeStyle=orthogonalEdgeStyle;rounded=0;orthogonalLoop=1;jettySize=auto;html=1;exitX=0.5;exitY=0;exitDx=0;exitDy=0;entryX=0.5;entryY=0;entryDx=0;entryDy=0;curved=1;fillColor=#f8cecc;gradientColor=#ea6b66;strokeColor=#b85450;" edge="1" parent="1" source="uB74LkE4q_bYTzbur5KE-634" target="uB74LkE4q_bYTzbur5KE-652">
          <mxGeometry relative="1" as="geometry">
            <Array as="points">
              <mxPoint x="240" y="7160" />
              <mxPoint x="990" y="7160" />
            </Array>
          </mxGeometry>
        </mxCell>
        <mxCell id="uB74LkE4q_bYTzbur5KE-634" value="O2&lt;br&gt;G_TOUCHED2" style="rounded=0;whiteSpace=wrap;html=1;fillColor=#f5f5f5;strokeColor=#666666;gradientColor=#b3b3b3;" vertex="1" parent="1">
          <mxGeometry x="190" y="7210" width="100" height="60" as="geometry" />
        </mxCell>
        <mxCell id="uB74LkE4q_bYTzbur5KE-635" style="edgeStyle=orthogonalEdgeStyle;rounded=0;orthogonalLoop=1;jettySize=auto;html=1;exitX=0.5;exitY=1;exitDx=0;exitDy=0;entryX=0.5;entryY=0;entryDx=0;entryDy=0;" edge="1" parent="1" source="uB74LkE4q_bYTzbur5KE-636" target="uB74LkE4q_bYTzbur5KE-652">
          <mxGeometry relative="1" as="geometry" />
        </mxCell>
        <mxCell id="uB74LkE4q_bYTzbur5KE-636" value="&lt;font style=&quot;font-size: 16px;&quot;&gt;g-&amp;gt;allgc&lt;/font&gt;" style="rounded=1;whiteSpace=wrap;html=1;" vertex="1" parent="1">
          <mxGeometry x="930" y="7100" width="120" height="60" as="geometry" />
        </mxCell>
        <mxCell id="uB74LkE4q_bYTzbur5KE-637" style="edgeStyle=orthogonalEdgeStyle;rounded=0;orthogonalLoop=1;jettySize=auto;html=1;exitX=0.5;exitY=0;exitDx=0;exitDy=0;entryX=0.5;entryY=1;entryDx=0;entryDy=0;" edge="1" parent="1" source="uB74LkE4q_bYTzbur5KE-638" target="uB74LkE4q_bYTzbur5KE-652">
          <mxGeometry relative="1" as="geometry" />
        </mxCell>
        <mxCell id="uB74LkE4q_bYTzbur5KE-638" value="g-&amp;gt;survival" style="rounded=1;whiteSpace=wrap;html=1;" vertex="1" parent="1">
          <mxGeometry x="290" y="7320" width="80" height="30" as="geometry" />
        </mxCell>
        <mxCell id="uB74LkE4q_bYTzbur5KE-639" style="edgeStyle=orthogonalEdgeStyle;rounded=0;orthogonalLoop=1;jettySize=auto;html=1;exitX=0.5;exitY=0;exitDx=0;exitDy=0;entryX=0.5;entryY=1;entryDx=0;entryDy=0;" edge="1" parent="1" source="uB74LkE4q_bYTzbur5KE-640" target="uB74LkE4q_bYTzbur5KE-634">
          <mxGeometry relative="1" as="geometry" />
        </mxCell>
        <mxCell id="uB74LkE4q_bYTzbur5KE-640" value="g-&amp;gt;old1" style="rounded=1;whiteSpace=wrap;html=1;" vertex="1" parent="1">
          <mxGeometry x="200" y="7320" width="80" height="30" as="geometry" />
        </mxCell>
        <mxCell id="uB74LkE4q_bYTzbur5KE-641" style="edgeStyle=orthogonalEdgeStyle;rounded=0;orthogonalLoop=1;jettySize=auto;html=1;exitX=0.5;exitY=0;exitDx=0;exitDy=0;entryX=0.25;entryY=1;entryDx=0;entryDy=0;" edge="1" parent="1" source="uB74LkE4q_bYTzbur5KE-642" target="uB74LkE4q_bYTzbur5KE-634">
          <mxGeometry relative="1" as="geometry" />
        </mxCell>
        <mxCell id="uB74LkE4q_bYTzbur5KE-642" value="g-&amp;gt;reallyold" style="rounded=1;whiteSpace=wrap;html=1;" vertex="1" parent="1">
          <mxGeometry x="110" y="7320" width="80" height="30" as="geometry" />
        </mxCell>
        <mxCell id="uB74LkE4q_bYTzbur5KE-643" style="edgeStyle=orthogonalEdgeStyle;rounded=0;orthogonalLoop=1;jettySize=auto;html=1;exitX=0;exitY=0.5;exitDx=0;exitDy=0;" edge="1" parent="1" source="uB74LkE4q_bYTzbur5KE-644" target="uB74LkE4q_bYTzbur5KE-634">
          <mxGeometry relative="1" as="geometry" />
        </mxCell>
        <mxCell id="uB74LkE4q_bYTzbur5KE-644" value="O3&lt;br&gt;G_SURVIVAL" style="rounded=0;whiteSpace=wrap;html=1;" vertex="1" parent="1">
          <mxGeometry x="340" y="7210" width="100" height="60" as="geometry" />
        </mxCell>
        <mxCell id="uB74LkE4q_bYTzbur5KE-645" style="edgeStyle=orthogonalEdgeStyle;rounded=0;orthogonalLoop=1;jettySize=auto;html=1;exitX=0;exitY=0.5;exitDx=0;exitDy=0;entryX=1;entryY=0.5;entryDx=0;entryDy=0;" edge="1" parent="1" source="uB74LkE4q_bYTzbur5KE-646" target="uB74LkE4q_bYTzbur5KE-644">
          <mxGeometry relative="1" as="geometry" />
        </mxCell>
        <mxCell id="uB74LkE4q_bYTzbur5KE-646" value="O4&lt;br&gt;G_SURVIVAL" style="rounded=0;whiteSpace=wrap;html=1;" vertex="1" parent="1">
          <mxGeometry x="490" y="7210" width="100" height="60" as="geometry" />
        </mxCell>
        <mxCell id="uB74LkE4q_bYTzbur5KE-647" style="edgeStyle=orthogonalEdgeStyle;rounded=0;orthogonalLoop=1;jettySize=auto;html=1;exitX=0;exitY=0.5;exitDx=0;exitDy=0;entryX=1;entryY=0.5;entryDx=0;entryDy=0;" edge="1" parent="1" source="uB74LkE4q_bYTzbur5KE-648" target="uB74LkE4q_bYTzbur5KE-646">
          <mxGeometry relative="1" as="geometry" />
        </mxCell>
        <mxCell id="uB74LkE4q_bYTzbur5KE-648" value="O5&lt;br&gt;G_OLD1" style="rounded=0;whiteSpace=wrap;html=1;fillColor=#647687;fontColor=#ffffff;strokeColor=#314354;" vertex="1" parent="1">
          <mxGeometry x="640" y="7210" width="100" height="60" as="geometry" />
        </mxCell>
        <mxCell id="uB74LkE4q_bYTzbur5KE-649" style="edgeStyle=orthogonalEdgeStyle;rounded=0;orthogonalLoop=1;jettySize=auto;html=1;exitX=0;exitY=0.5;exitDx=0;exitDy=0;" edge="1" parent="1" source="uB74LkE4q_bYTzbur5KE-650" target="uB74LkE4q_bYTzbur5KE-648">
          <mxGeometry relative="1" as="geometry" />
        </mxCell>
        <mxCell id="uB74LkE4q_bYTzbur5KE-650" value="O6&lt;br&gt;G_OLD1" style="rounded=0;whiteSpace=wrap;html=1;fillColor=#647687;fontColor=#ffffff;strokeColor=#314354;" vertex="1" parent="1">
          <mxGeometry x="790" y="7210" width="100" height="60" as="geometry" />
        </mxCell>
        <mxCell id="uB74LkE4q_bYTzbur5KE-651" style="edgeStyle=orthogonalEdgeStyle;rounded=0;orthogonalLoop=1;jettySize=auto;html=1;exitX=0;exitY=0.5;exitDx=0;exitDy=0;" edge="1" parent="1" source="uB74LkE4q_bYTzbur5KE-652" target="uB74LkE4q_bYTzbur5KE-650">
          <mxGeometry relative="1" as="geometry" />
        </mxCell>
        <mxCell id="uB74LkE4q_bYTzbur5KE-652" value="O7&lt;br&gt;G_SURVIVAL" style="rounded=0;whiteSpace=wrap;html=1;" vertex="1" parent="1">
          <mxGeometry x="940" y="7210" width="100" height="60" as="geometry" />
        </mxCell>
        <mxCell id="uB74LkE4q_bYTzbur5KE-653" style="edgeStyle=orthogonalEdgeStyle;rounded=0;orthogonalLoop=1;jettySize=auto;html=1;exitX=0.5;exitY=0;exitDx=0;exitDy=0;entryX=0.5;entryY=0;entryDx=0;entryDy=0;curved=1;fillColor=#f8cecc;gradientColor=#ea6b66;strokeColor=#b85450;" edge="1" parent="1" source="uB74LkE4q_bYTzbur5KE-655" target="uB74LkE4q_bYTzbur5KE-676">
          <mxGeometry relative="1" as="geometry">
            <Array as="points">
              <mxPoint x="90" y="7460" />
              <mxPoint x="840" y="7460" />
            </Array>
          </mxGeometry>
        </mxCell>
        <mxCell id="uB74LkE4q_bYTzbur5KE-654" style="edgeStyle=orthogonalEdgeStyle;rounded=0;orthogonalLoop=1;jettySize=auto;html=1;exitX=0.5;exitY=0;exitDx=0;exitDy=0;entryX=0.5;entryY=0;entryDx=0;entryDy=0;curved=1;fillColor=#f8cecc;gradientColor=#ea6b66;strokeColor=#b85450;" edge="1" parent="1" source="uB74LkE4q_bYTzbur5KE-655" target="uB74LkE4q_bYTzbur5KE-674">
          <mxGeometry relative="1" as="geometry">
            <Array as="points">
              <mxPoint x="90" y="7520" />
              <mxPoint x="690" y="7520" />
            </Array>
          </mxGeometry>
        </mxCell>
        <mxCell id="uB74LkE4q_bYTzbur5KE-655" value="O1&lt;br&gt;G_OLD" style="rounded=0;whiteSpace=wrap;html=1;fillColor=#647687;fontColor=#ffffff;strokeColor=#314354;" vertex="1" parent="1">
          <mxGeometry x="40" y="7600" width="100" height="60" as="geometry" />
        </mxCell>
        <mxCell id="uB74LkE4q_bYTzbur5KE-656" style="edgeStyle=orthogonalEdgeStyle;rounded=0;orthogonalLoop=1;jettySize=auto;html=1;exitX=0;exitY=0.5;exitDx=0;exitDy=0;" edge="1" parent="1" source="uB74LkE4q_bYTzbur5KE-660" target="uB74LkE4q_bYTzbur5KE-655">
          <mxGeometry relative="1" as="geometry" />
        </mxCell>
        <mxCell id="uB74LkE4q_bYTzbur5KE-658" style="edgeStyle=orthogonalEdgeStyle;rounded=0;orthogonalLoop=1;jettySize=auto;html=1;exitX=0.5;exitY=0;exitDx=0;exitDy=0;entryX=0.5;entryY=0;entryDx=0;entryDy=0;curved=1;fillColor=#f8cecc;gradientColor=#ea6b66;strokeColor=#b85450;" edge="1" parent="1" source="uB74LkE4q_bYTzbur5KE-660" target="uB74LkE4q_bYTzbur5KE-670">
          <mxGeometry relative="1" as="geometry" />
        </mxCell>
        <mxCell id="uB74LkE4q_bYTzbur5KE-660" value="O2&lt;br&gt;G_TOUCHED2" style="rounded=0;whiteSpace=wrap;html=1;fillColor=#f5f5f5;strokeColor=#666666;gradientColor=#b3b3b3;" vertex="1" parent="1">
          <mxGeometry x="190" y="7600" width="100" height="60" as="geometry" />
        </mxCell>
        <mxCell id="uB74LkE4q_bYTzbur5KE-708" style="edgeStyle=orthogonalEdgeStyle;rounded=0;orthogonalLoop=1;jettySize=auto;html=1;exitX=0.5;exitY=1;exitDx=0;exitDy=0;" edge="1" parent="1" source="uB74LkE4q_bYTzbur5KE-662" target="uB74LkE4q_bYTzbur5KE-706">
          <mxGeometry relative="1" as="geometry" />
        </mxCell>
        <mxCell id="uB74LkE4q_bYTzbur5KE-662" value="&lt;font style=&quot;font-size: 16px;&quot;&gt;g-&amp;gt;allgc&lt;/font&gt;" style="rounded=1;whiteSpace=wrap;html=1;" vertex="1" parent="1">
          <mxGeometry x="1080" y="7480" width="120" height="60" as="geometry" />
        </mxCell>
        <mxCell id="uB74LkE4q_bYTzbur5KE-663" style="edgeStyle=orthogonalEdgeStyle;rounded=0;orthogonalLoop=1;jettySize=auto;html=1;exitX=0.5;exitY=0;exitDx=0;exitDy=0;entryX=0.5;entryY=1;entryDx=0;entryDy=0;" edge="1" parent="1" source="uB74LkE4q_bYTzbur5KE-664" target="uB74LkE4q_bYTzbur5KE-678">
          <mxGeometry relative="1" as="geometry" />
        </mxCell>
        <mxCell id="uB74LkE4q_bYTzbur5KE-664" value="g-&amp;gt;survival" style="rounded=1;whiteSpace=wrap;html=1;" vertex="1" parent="1">
          <mxGeometry x="290" y="7710" width="80" height="30" as="geometry" />
        </mxCell>
        <mxCell id="uB74LkE4q_bYTzbur5KE-665" style="edgeStyle=orthogonalEdgeStyle;rounded=0;orthogonalLoop=1;jettySize=auto;html=1;exitX=0.5;exitY=0;exitDx=0;exitDy=0;entryX=0.5;entryY=1;entryDx=0;entryDy=0;" edge="1" parent="1" source="uB74LkE4q_bYTzbur5KE-666" target="uB74LkE4q_bYTzbur5KE-660">
          <mxGeometry relative="1" as="geometry" />
        </mxCell>
        <mxCell id="uB74LkE4q_bYTzbur5KE-666" value="g-&amp;gt;old1" style="rounded=1;whiteSpace=wrap;html=1;" vertex="1" parent="1">
          <mxGeometry x="200" y="7710" width="80" height="30" as="geometry" />
        </mxCell>
        <mxCell id="uB74LkE4q_bYTzbur5KE-667" style="edgeStyle=orthogonalEdgeStyle;rounded=0;orthogonalLoop=1;jettySize=auto;html=1;exitX=0.5;exitY=0;exitDx=0;exitDy=0;entryX=0.25;entryY=1;entryDx=0;entryDy=0;" edge="1" parent="1" source="uB74LkE4q_bYTzbur5KE-668" target="uB74LkE4q_bYTzbur5KE-660">
          <mxGeometry relative="1" as="geometry" />
        </mxCell>
        <mxCell id="uB74LkE4q_bYTzbur5KE-668" value="g-&amp;gt;reallyold" style="rounded=1;whiteSpace=wrap;html=1;" vertex="1" parent="1">
          <mxGeometry x="110" y="7710" width="80" height="30" as="geometry" />
        </mxCell>
        <mxCell id="uB74LkE4q_bYTzbur5KE-669" style="edgeStyle=orthogonalEdgeStyle;rounded=0;orthogonalLoop=1;jettySize=auto;html=1;exitX=0;exitY=0.5;exitDx=0;exitDy=0;" edge="1" parent="1" source="uB74LkE4q_bYTzbur5KE-670" target="uB74LkE4q_bYTzbur5KE-660">
          <mxGeometry relative="1" as="geometry" />
        </mxCell>
        <mxCell id="uB74LkE4q_bYTzbur5KE-670" value="O3&lt;br&gt;G_SURVIVAL" style="rounded=0;whiteSpace=wrap;html=1;" vertex="1" parent="1">
          <mxGeometry x="340" y="7600" width="100" height="60" as="geometry" />
        </mxCell>
        <mxCell id="uB74LkE4q_bYTzbur5KE-671" style="edgeStyle=orthogonalEdgeStyle;rounded=0;orthogonalLoop=1;jettySize=auto;html=1;exitX=0;exitY=0.5;exitDx=0;exitDy=0;entryX=1;entryY=0.5;entryDx=0;entryDy=0;" edge="1" parent="1" source="uB74LkE4q_bYTzbur5KE-672" target="uB74LkE4q_bYTzbur5KE-670">
          <mxGeometry relative="1" as="geometry" />
        </mxCell>
        <mxCell id="uB74LkE4q_bYTzbur5KE-672" value="O4&lt;br&gt;G_SURVIVAL" style="rounded=0;whiteSpace=wrap;html=1;" vertex="1" parent="1">
          <mxGeometry x="490" y="7600" width="100" height="60" as="geometry" />
        </mxCell>
        <mxCell id="uB74LkE4q_bYTzbur5KE-673" style="edgeStyle=orthogonalEdgeStyle;rounded=0;orthogonalLoop=1;jettySize=auto;html=1;exitX=0;exitY=0.5;exitDx=0;exitDy=0;entryX=1;entryY=0.5;entryDx=0;entryDy=0;" edge="1" parent="1" source="uB74LkE4q_bYTzbur5KE-674" target="uB74LkE4q_bYTzbur5KE-672">
          <mxGeometry relative="1" as="geometry" />
        </mxCell>
        <mxCell id="uB74LkE4q_bYTzbur5KE-674" value="O5&lt;br&gt;G_OLD1" style="rounded=0;whiteSpace=wrap;html=1;fillColor=#647687;strokeColor=#314354;fontColor=#ffffff;" vertex="1" parent="1">
          <mxGeometry x="640" y="7600" width="100" height="60" as="geometry" />
        </mxCell>
        <mxCell id="uB74LkE4q_bYTzbur5KE-675" style="edgeStyle=orthogonalEdgeStyle;rounded=0;orthogonalLoop=1;jettySize=auto;html=1;exitX=0;exitY=0.5;exitDx=0;exitDy=0;" edge="1" parent="1" source="uB74LkE4q_bYTzbur5KE-676" target="uB74LkE4q_bYTzbur5KE-674">
          <mxGeometry relative="1" as="geometry" />
        </mxCell>
        <mxCell id="uB74LkE4q_bYTzbur5KE-676" value="O6&lt;br&gt;G_OLD1" style="rounded=0;whiteSpace=wrap;html=1;fillColor=#647687;strokeColor=#314354;fontColor=#ffffff;" vertex="1" parent="1">
          <mxGeometry x="790" y="7600" width="100" height="60" as="geometry" />
        </mxCell>
        <mxCell id="uB74LkE4q_bYTzbur5KE-677" style="edgeStyle=orthogonalEdgeStyle;rounded=0;orthogonalLoop=1;jettySize=auto;html=1;exitX=0;exitY=0.5;exitDx=0;exitDy=0;" edge="1" parent="1" source="uB74LkE4q_bYTzbur5KE-678" target="uB74LkE4q_bYTzbur5KE-676">
          <mxGeometry relative="1" as="geometry" />
        </mxCell>
        <mxCell id="uB74LkE4q_bYTzbur5KE-678" value="O7&lt;br&gt;G_SURVIVAL" style="rounded=0;whiteSpace=wrap;html=1;" vertex="1" parent="1">
          <mxGeometry x="940" y="7600" width="100" height="60" as="geometry" />
        </mxCell>
        <mxCell id="uB74LkE4q_bYTzbur5KE-679" value="" style="endArrow=none;html=1;rounded=0;" edge="1" parent="1">
          <mxGeometry width="50" height="50" relative="1" as="geometry">
            <mxPoint y="7420" as="sourcePoint" />
            <mxPoint x="1000" y="7420" as="targetPoint" />
          </mxGeometry>
        </mxCell>
        <mxCell id="uB74LkE4q_bYTzbur5KE-680" style="edgeStyle=orthogonalEdgeStyle;rounded=0;orthogonalLoop=1;jettySize=auto;html=1;exitX=0.5;exitY=0;exitDx=0;exitDy=0;entryX=0.5;entryY=0;entryDx=0;entryDy=0;curved=1;fillColor=#f8cecc;gradientColor=#ea6b66;strokeColor=#b85450;" edge="1" parent="1" source="uB74LkE4q_bYTzbur5KE-682" target="uB74LkE4q_bYTzbur5KE-703">
          <mxGeometry relative="1" as="geometry">
            <Array as="points">
              <mxPoint x="90" y="7820" />
              <mxPoint x="840" y="7820" />
            </Array>
          </mxGeometry>
        </mxCell>
        <mxCell id="uB74LkE4q_bYTzbur5KE-681" style="edgeStyle=orthogonalEdgeStyle;rounded=0;orthogonalLoop=1;jettySize=auto;html=1;exitX=0.5;exitY=0;exitDx=0;exitDy=0;entryX=0.5;entryY=0;entryDx=0;entryDy=0;curved=1;fillColor=#f8cecc;gradientColor=#ea6b66;strokeColor=#b85450;" edge="1" parent="1" source="uB74LkE4q_bYTzbur5KE-682" target="uB74LkE4q_bYTzbur5KE-701">
          <mxGeometry relative="1" as="geometry">
            <Array as="points">
              <mxPoint x="90" y="7880" />
              <mxPoint x="690" y="7880" />
            </Array>
          </mxGeometry>
        </mxCell>
        <mxCell id="uB74LkE4q_bYTzbur5KE-682" value="O1&lt;br&gt;G_OLD" style="rounded=0;whiteSpace=wrap;html=1;fillColor=#647687;fontColor=#ffffff;strokeColor=#314354;" vertex="1" parent="1">
          <mxGeometry x="40" y="7960" width="100" height="60" as="geometry" />
        </mxCell>
        <mxCell id="uB74LkE4q_bYTzbur5KE-683" style="edgeStyle=orthogonalEdgeStyle;rounded=0;orthogonalLoop=1;jettySize=auto;html=1;exitX=0;exitY=0.5;exitDx=0;exitDy=0;" edge="1" parent="1" source="uB74LkE4q_bYTzbur5KE-687" target="uB74LkE4q_bYTzbur5KE-682">
          <mxGeometry relative="1" as="geometry" />
        </mxCell>
        <mxCell id="uB74LkE4q_bYTzbur5KE-685" style="edgeStyle=orthogonalEdgeStyle;rounded=0;orthogonalLoop=1;jettySize=auto;html=1;exitX=0.5;exitY=0;exitDx=0;exitDy=0;entryX=0.5;entryY=0;entryDx=0;entryDy=0;curved=1;fillColor=#f8cecc;gradientColor=#ea6b66;strokeColor=#b85450;" edge="1" parent="1" source="uB74LkE4q_bYTzbur5KE-687" target="uB74LkE4q_bYTzbur5KE-697">
          <mxGeometry relative="1" as="geometry" />
        </mxCell>
        <mxCell id="uB74LkE4q_bYTzbur5KE-687" value="O2&lt;br&gt;G_TOUCHED2" style="rounded=0;whiteSpace=wrap;html=1;fillColor=#f5f5f5;strokeColor=#666666;gradientColor=#b3b3b3;" vertex="1" parent="1">
          <mxGeometry x="190" y="7960" width="100" height="60" as="geometry" />
        </mxCell>
        <mxCell id="uB74LkE4q_bYTzbur5KE-711" style="edgeStyle=orthogonalEdgeStyle;rounded=0;orthogonalLoop=1;jettySize=auto;html=1;exitX=0.5;exitY=1;exitDx=0;exitDy=0;entryX=0.5;entryY=0;entryDx=0;entryDy=0;" edge="1" parent="1" source="uB74LkE4q_bYTzbur5KE-689" target="uB74LkE4q_bYTzbur5KE-709">
          <mxGeometry relative="1" as="geometry" />
        </mxCell>
        <mxCell id="uB74LkE4q_bYTzbur5KE-689" value="&lt;font style=&quot;font-size: 16px;&quot;&gt;g-&amp;gt;allgc&lt;/font&gt;" style="rounded=1;whiteSpace=wrap;html=1;" vertex="1" parent="1">
          <mxGeometry x="1080" y="7850" width="120" height="60" as="geometry" />
        </mxCell>
        <mxCell id="uB74LkE4q_bYTzbur5KE-690" style="edgeStyle=orthogonalEdgeStyle;rounded=0;orthogonalLoop=1;jettySize=auto;html=1;exitX=0.5;exitY=0;exitDx=0;exitDy=0;entryX=0.5;entryY=1;entryDx=0;entryDy=0;" edge="1" parent="1" source="uB74LkE4q_bYTzbur5KE-691" target="uB74LkE4q_bYTzbur5KE-705">
          <mxGeometry relative="1" as="geometry" />
        </mxCell>
        <mxCell id="uB74LkE4q_bYTzbur5KE-691" value="g-&amp;gt;survival" style="rounded=1;whiteSpace=wrap;html=1;" vertex="1" parent="1">
          <mxGeometry x="290" y="8070" width="80" height="30" as="geometry" />
        </mxCell>
        <mxCell id="uB74LkE4q_bYTzbur5KE-692" style="edgeStyle=orthogonalEdgeStyle;rounded=0;orthogonalLoop=1;jettySize=auto;html=1;exitX=0.5;exitY=0;exitDx=0;exitDy=0;entryX=0.5;entryY=1;entryDx=0;entryDy=0;" edge="1" parent="1" source="uB74LkE4q_bYTzbur5KE-693" target="uB74LkE4q_bYTzbur5KE-687">
          <mxGeometry relative="1" as="geometry" />
        </mxCell>
        <mxCell id="uB74LkE4q_bYTzbur5KE-693" value="g-&amp;gt;old1" style="rounded=1;whiteSpace=wrap;html=1;" vertex="1" parent="1">
          <mxGeometry x="200" y="8070" width="80" height="30" as="geometry" />
        </mxCell>
        <mxCell id="uB74LkE4q_bYTzbur5KE-694" style="edgeStyle=orthogonalEdgeStyle;rounded=0;orthogonalLoop=1;jettySize=auto;html=1;exitX=0.5;exitY=0;exitDx=0;exitDy=0;entryX=0.25;entryY=1;entryDx=0;entryDy=0;" edge="1" parent="1" source="uB74LkE4q_bYTzbur5KE-695" target="uB74LkE4q_bYTzbur5KE-687">
          <mxGeometry relative="1" as="geometry" />
        </mxCell>
        <mxCell id="uB74LkE4q_bYTzbur5KE-695" value="g-&amp;gt;reallyold" style="rounded=1;whiteSpace=wrap;html=1;" vertex="1" parent="1">
          <mxGeometry x="110" y="8070" width="80" height="30" as="geometry" />
        </mxCell>
        <mxCell id="uB74LkE4q_bYTzbur5KE-696" style="edgeStyle=orthogonalEdgeStyle;rounded=0;orthogonalLoop=1;jettySize=auto;html=1;exitX=0;exitY=0.5;exitDx=0;exitDy=0;" edge="1" parent="1" source="uB74LkE4q_bYTzbur5KE-697" target="uB74LkE4q_bYTzbur5KE-687">
          <mxGeometry relative="1" as="geometry" />
        </mxCell>
        <mxCell id="uB74LkE4q_bYTzbur5KE-697" value="O3&lt;br&gt;G_SURVIVAL" style="rounded=0;whiteSpace=wrap;html=1;" vertex="1" parent="1">
          <mxGeometry x="340" y="7960" width="100" height="60" as="geometry" />
        </mxCell>
        <mxCell id="uB74LkE4q_bYTzbur5KE-698" style="edgeStyle=orthogonalEdgeStyle;rounded=0;orthogonalLoop=1;jettySize=auto;html=1;exitX=0;exitY=0.5;exitDx=0;exitDy=0;entryX=1;entryY=0.5;entryDx=0;entryDy=0;" edge="1" parent="1" source="uB74LkE4q_bYTzbur5KE-699" target="uB74LkE4q_bYTzbur5KE-697">
          <mxGeometry relative="1" as="geometry" />
        </mxCell>
        <mxCell id="uB74LkE4q_bYTzbur5KE-699" value="O4&lt;br&gt;G_SURVIVAL" style="rounded=0;whiteSpace=wrap;html=1;" vertex="1" parent="1">
          <mxGeometry x="490" y="7960" width="100" height="60" as="geometry" />
        </mxCell>
        <mxCell id="uB74LkE4q_bYTzbur5KE-700" style="edgeStyle=orthogonalEdgeStyle;rounded=0;orthogonalLoop=1;jettySize=auto;html=1;exitX=0;exitY=0.5;exitDx=0;exitDy=0;entryX=1;entryY=0.5;entryDx=0;entryDy=0;" edge="1" parent="1" source="uB74LkE4q_bYTzbur5KE-701" target="uB74LkE4q_bYTzbur5KE-699">
          <mxGeometry relative="1" as="geometry" />
        </mxCell>
        <mxCell id="uB74LkE4q_bYTzbur5KE-701" value="O5&lt;br&gt;G_OLD" style="rounded=0;whiteSpace=wrap;html=1;fillColor=#647687;strokeColor=#314354;fontColor=#ffffff;" vertex="1" parent="1">
          <mxGeometry x="640" y="7960" width="100" height="60" as="geometry" />
        </mxCell>
        <mxCell id="uB74LkE4q_bYTzbur5KE-702" style="edgeStyle=orthogonalEdgeStyle;rounded=0;orthogonalLoop=1;jettySize=auto;html=1;exitX=0;exitY=0.5;exitDx=0;exitDy=0;" edge="1" parent="1" source="uB74LkE4q_bYTzbur5KE-703" target="uB74LkE4q_bYTzbur5KE-701">
          <mxGeometry relative="1" as="geometry" />
        </mxCell>
        <mxCell id="uB74LkE4q_bYTzbur5KE-703" value="O6&lt;br&gt;G_OLD" style="rounded=0;whiteSpace=wrap;html=1;fillColor=#647687;strokeColor=#314354;fontColor=#ffffff;" vertex="1" parent="1">
          <mxGeometry x="790" y="7960" width="100" height="60" as="geometry" />
        </mxCell>
        <mxCell id="uB74LkE4q_bYTzbur5KE-704" style="edgeStyle=orthogonalEdgeStyle;rounded=0;orthogonalLoop=1;jettySize=auto;html=1;exitX=0;exitY=0.5;exitDx=0;exitDy=0;" edge="1" parent="1" source="uB74LkE4q_bYTzbur5KE-705" target="uB74LkE4q_bYTzbur5KE-703">
          <mxGeometry relative="1" as="geometry" />
        </mxCell>
        <mxCell id="uB74LkE4q_bYTzbur5KE-705" value="O7&lt;br&gt;G_SURVIVAL" style="rounded=0;whiteSpace=wrap;html=1;" vertex="1" parent="1">
          <mxGeometry x="940" y="7960" width="100" height="60" as="geometry" />
        </mxCell>
        <mxCell id="uB74LkE4q_bYTzbur5KE-707" style="edgeStyle=orthogonalEdgeStyle;rounded=0;orthogonalLoop=1;jettySize=auto;html=1;exitX=0;exitY=0.5;exitDx=0;exitDy=0;entryX=1;entryY=0.5;entryDx=0;entryDy=0;" edge="1" parent="1" source="uB74LkE4q_bYTzbur5KE-706" target="uB74LkE4q_bYTzbur5KE-678">
          <mxGeometry relative="1" as="geometry" />
        </mxCell>
        <mxCell id="uB74LkE4q_bYTzbur5KE-706" value="O8&lt;br&gt;G_NEW" style="rounded=0;whiteSpace=wrap;html=1;" vertex="1" parent="1">
          <mxGeometry x="1090" y="7600" width="100" height="60" as="geometry" />
        </mxCell>
        <mxCell id="uB74LkE4q_bYTzbur5KE-710" style="edgeStyle=orthogonalEdgeStyle;rounded=0;orthogonalLoop=1;jettySize=auto;html=1;exitX=0;exitY=0.5;exitDx=0;exitDy=0;entryX=1;entryY=0.5;entryDx=0;entryDy=0;" edge="1" parent="1" source="uB74LkE4q_bYTzbur5KE-709" target="uB74LkE4q_bYTzbur5KE-705">
          <mxGeometry relative="1" as="geometry" />
        </mxCell>
        <mxCell id="uB74LkE4q_bYTzbur5KE-709" value="O8&lt;br&gt;G_NEW" style="rounded=0;whiteSpace=wrap;html=1;" vertex="1" parent="1">
          <mxGeometry x="1090" y="7960" width="100" height="60" as="geometry" />
        </mxCell>
        <mxCell id="uB74LkE4q_bYTzbur5KE-713" style="edgeStyle=orthogonalEdgeStyle;rounded=0;orthogonalLoop=1;jettySize=auto;html=1;exitX=0.5;exitY=0;exitDx=0;exitDy=0;entryX=0.5;entryY=0;entryDx=0;entryDy=0;curved=1;fillColor=#f8cecc;gradientColor=#ea6b66;strokeColor=#b85450;" edge="1" parent="1" source="uB74LkE4q_bYTzbur5KE-715" target="uB74LkE4q_bYTzbur5KE-734">
          <mxGeometry relative="1" as="geometry">
            <Array as="points">
              <mxPoint x="90" y="8200" />
              <mxPoint x="840" y="8200" />
            </Array>
          </mxGeometry>
        </mxCell>
        <mxCell id="uB74LkE4q_bYTzbur5KE-714" style="edgeStyle=orthogonalEdgeStyle;rounded=0;orthogonalLoop=1;jettySize=auto;html=1;exitX=0.5;exitY=0;exitDx=0;exitDy=0;entryX=0.5;entryY=0;entryDx=0;entryDy=0;curved=1;fillColor=#f8cecc;gradientColor=#ea6b66;strokeColor=#b85450;" edge="1" parent="1" source="uB74LkE4q_bYTzbur5KE-715" target="uB74LkE4q_bYTzbur5KE-732">
          <mxGeometry relative="1" as="geometry">
            <Array as="points">
              <mxPoint x="90" y="8260" />
              <mxPoint x="690" y="8260" />
            </Array>
          </mxGeometry>
        </mxCell>
        <mxCell id="uB74LkE4q_bYTzbur5KE-715" value="O1&lt;br&gt;G_OLD" style="rounded=0;whiteSpace=wrap;html=1;fillColor=#647687;fontColor=#ffffff;strokeColor=#314354;" vertex="1" parent="1">
          <mxGeometry x="40" y="8340" width="100" height="60" as="geometry" />
        </mxCell>
        <mxCell id="uB74LkE4q_bYTzbur5KE-716" style="edgeStyle=orthogonalEdgeStyle;rounded=0;orthogonalLoop=1;jettySize=auto;html=1;exitX=0;exitY=0.5;exitDx=0;exitDy=0;" edge="1" parent="1" source="uB74LkE4q_bYTzbur5KE-718" target="uB74LkE4q_bYTzbur5KE-715">
          <mxGeometry relative="1" as="geometry" />
        </mxCell>
        <mxCell id="uB74LkE4q_bYTzbur5KE-717" style="edgeStyle=orthogonalEdgeStyle;rounded=0;orthogonalLoop=1;jettySize=auto;html=1;exitX=0.5;exitY=0;exitDx=0;exitDy=0;entryX=0.5;entryY=0;entryDx=0;entryDy=0;curved=1;fillColor=#f8cecc;gradientColor=#ea6b66;strokeColor=#b85450;" edge="1" parent="1" source="uB74LkE4q_bYTzbur5KE-718" target="uB74LkE4q_bYTzbur5KE-728">
          <mxGeometry relative="1" as="geometry" />
        </mxCell>
        <mxCell id="uB74LkE4q_bYTzbur5KE-718" value="O2&lt;br&gt;G_TOUCHED2" style="rounded=0;whiteSpace=wrap;html=1;fillColor=#f5f5f5;strokeColor=#666666;gradientColor=#b3b3b3;" vertex="1" parent="1">
          <mxGeometry x="190" y="8340" width="100" height="60" as="geometry" />
        </mxCell>
        <mxCell id="uB74LkE4q_bYTzbur5KE-739" style="edgeStyle=orthogonalEdgeStyle;rounded=0;orthogonalLoop=1;jettySize=auto;html=1;exitX=0.5;exitY=1;exitDx=0;exitDy=0;entryX=0.5;entryY=0;entryDx=0;entryDy=0;" edge="1" parent="1" source="uB74LkE4q_bYTzbur5KE-720" target="uB74LkE4q_bYTzbur5KE-736">
          <mxGeometry relative="1" as="geometry" />
        </mxCell>
        <mxCell id="uB74LkE4q_bYTzbur5KE-720" value="&lt;font style=&quot;font-size: 16px;&quot;&gt;g-&amp;gt;allgc&lt;/font&gt;" style="rounded=1;whiteSpace=wrap;html=1;" vertex="1" parent="1">
          <mxGeometry x="930" y="8230" width="120" height="60" as="geometry" />
        </mxCell>
        <mxCell id="uB74LkE4q_bYTzbur5KE-721" style="edgeStyle=orthogonalEdgeStyle;rounded=0;orthogonalLoop=1;jettySize=auto;html=1;exitX=0.5;exitY=0;exitDx=0;exitDy=0;entryX=0.5;entryY=1;entryDx=0;entryDy=0;" edge="1" parent="1" source="uB74LkE4q_bYTzbur5KE-722" target="uB74LkE4q_bYTzbur5KE-736">
          <mxGeometry relative="1" as="geometry" />
        </mxCell>
        <mxCell id="uB74LkE4q_bYTzbur5KE-722" value="g-&amp;gt;survival" style="rounded=1;whiteSpace=wrap;html=1;" vertex="1" parent="1">
          <mxGeometry x="290" y="8450" width="80" height="30" as="geometry" />
        </mxCell>
        <mxCell id="uB74LkE4q_bYTzbur5KE-723" style="edgeStyle=orthogonalEdgeStyle;rounded=0;orthogonalLoop=1;jettySize=auto;html=1;exitX=0.5;exitY=0;exitDx=0;exitDy=0;entryX=0.5;entryY=1;entryDx=0;entryDy=0;" edge="1" parent="1" source="uB74LkE4q_bYTzbur5KE-724" target="uB74LkE4q_bYTzbur5KE-718">
          <mxGeometry relative="1" as="geometry" />
        </mxCell>
        <mxCell id="uB74LkE4q_bYTzbur5KE-724" value="g-&amp;gt;old1" style="rounded=1;whiteSpace=wrap;html=1;" vertex="1" parent="1">
          <mxGeometry x="200" y="8450" width="80" height="30" as="geometry" />
        </mxCell>
        <mxCell id="uB74LkE4q_bYTzbur5KE-725" style="edgeStyle=orthogonalEdgeStyle;rounded=0;orthogonalLoop=1;jettySize=auto;html=1;exitX=0.5;exitY=0;exitDx=0;exitDy=0;entryX=0.25;entryY=1;entryDx=0;entryDy=0;" edge="1" parent="1" source="uB74LkE4q_bYTzbur5KE-726" target="uB74LkE4q_bYTzbur5KE-718">
          <mxGeometry relative="1" as="geometry" />
        </mxCell>
        <mxCell id="uB74LkE4q_bYTzbur5KE-726" value="g-&amp;gt;reallyold" style="rounded=1;whiteSpace=wrap;html=1;" vertex="1" parent="1">
          <mxGeometry x="110" y="8450" width="80" height="30" as="geometry" />
        </mxCell>
        <mxCell id="uB74LkE4q_bYTzbur5KE-727" style="edgeStyle=orthogonalEdgeStyle;rounded=0;orthogonalLoop=1;jettySize=auto;html=1;exitX=0;exitY=0.5;exitDx=0;exitDy=0;" edge="1" parent="1" source="uB74LkE4q_bYTzbur5KE-728" target="uB74LkE4q_bYTzbur5KE-718">
          <mxGeometry relative="1" as="geometry" />
        </mxCell>
        <mxCell id="uB74LkE4q_bYTzbur5KE-728" value="O3&lt;br&gt;G_SURVIVAL" style="rounded=0;whiteSpace=wrap;html=1;" vertex="1" parent="1">
          <mxGeometry x="340" y="8340" width="100" height="60" as="geometry" />
        </mxCell>
        <mxCell id="uB74LkE4q_bYTzbur5KE-729" style="edgeStyle=orthogonalEdgeStyle;rounded=0;orthogonalLoop=1;jettySize=auto;html=1;exitX=0;exitY=0.5;exitDx=0;exitDy=0;entryX=1;entryY=0.5;entryDx=0;entryDy=0;" edge="1" parent="1" source="uB74LkE4q_bYTzbur5KE-730" target="uB74LkE4q_bYTzbur5KE-728">
          <mxGeometry relative="1" as="geometry" />
        </mxCell>
        <mxCell id="uB74LkE4q_bYTzbur5KE-730" value="O4&lt;br&gt;G_SURVIVAL" style="rounded=0;whiteSpace=wrap;html=1;" vertex="1" parent="1">
          <mxGeometry x="490" y="8340" width="100" height="60" as="geometry" />
        </mxCell>
        <mxCell id="uB74LkE4q_bYTzbur5KE-731" style="edgeStyle=orthogonalEdgeStyle;rounded=0;orthogonalLoop=1;jettySize=auto;html=1;exitX=0;exitY=0.5;exitDx=0;exitDy=0;entryX=1;entryY=0.5;entryDx=0;entryDy=0;" edge="1" parent="1" source="uB74LkE4q_bYTzbur5KE-732" target="uB74LkE4q_bYTzbur5KE-730">
          <mxGeometry relative="1" as="geometry" />
        </mxCell>
        <mxCell id="uB74LkE4q_bYTzbur5KE-732" value="O5&lt;br&gt;G_OLD" style="rounded=0;whiteSpace=wrap;html=1;fillColor=#647687;strokeColor=#314354;fontColor=#ffffff;" vertex="1" parent="1">
          <mxGeometry x="640" y="8340" width="100" height="60" as="geometry" />
        </mxCell>
        <mxCell id="uB74LkE4q_bYTzbur5KE-733" style="edgeStyle=orthogonalEdgeStyle;rounded=0;orthogonalLoop=1;jettySize=auto;html=1;exitX=0;exitY=0.5;exitDx=0;exitDy=0;" edge="1" parent="1" source="uB74LkE4q_bYTzbur5KE-734" target="uB74LkE4q_bYTzbur5KE-732">
          <mxGeometry relative="1" as="geometry" />
        </mxCell>
        <mxCell id="uB74LkE4q_bYTzbur5KE-734" value="O6&lt;br&gt;G_OLD" style="rounded=0;whiteSpace=wrap;html=1;fillColor=#647687;strokeColor=#314354;fontColor=#ffffff;" vertex="1" parent="1">
          <mxGeometry x="790" y="8340" width="100" height="60" as="geometry" />
        </mxCell>
        <mxCell id="uB74LkE4q_bYTzbur5KE-735" style="edgeStyle=orthogonalEdgeStyle;rounded=0;orthogonalLoop=1;jettySize=auto;html=1;exitX=0;exitY=0.5;exitDx=0;exitDy=0;" edge="1" parent="1" source="uB74LkE4q_bYTzbur5KE-736" target="uB74LkE4q_bYTzbur5KE-734">
          <mxGeometry relative="1" as="geometry" />
        </mxCell>
        <mxCell id="uB74LkE4q_bYTzbur5KE-736" value="O7&lt;br&gt;G_SURVIVAL" style="rounded=0;whiteSpace=wrap;html=1;" vertex="1" parent="1">
          <mxGeometry x="940" y="8340" width="100" height="60" as="geometry" />
        </mxCell>
        <mxCell id="uB74LkE4q_bYTzbur5KE-740" style="edgeStyle=orthogonalEdgeStyle;rounded=0;orthogonalLoop=1;jettySize=auto;html=1;exitX=0.5;exitY=0;exitDx=0;exitDy=0;entryX=0.5;entryY=0;entryDx=0;entryDy=0;curved=1;fillColor=#f8cecc;gradientColor=#ea6b66;strokeColor=#b85450;" edge="1" parent="1" source="uB74LkE4q_bYTzbur5KE-742" target="uB74LkE4q_bYTzbur5KE-761">
          <mxGeometry relative="1" as="geometry">
            <Array as="points">
              <mxPoint x="90" y="8560" />
              <mxPoint x="840" y="8560" />
            </Array>
          </mxGeometry>
        </mxCell>
        <mxCell id="uB74LkE4q_bYTzbur5KE-741" style="edgeStyle=orthogonalEdgeStyle;rounded=0;orthogonalLoop=1;jettySize=auto;html=1;exitX=0.5;exitY=0;exitDx=0;exitDy=0;entryX=0.5;entryY=0;entryDx=0;entryDy=0;curved=1;fillColor=#f8cecc;gradientColor=#ea6b66;strokeColor=#b85450;" edge="1" parent="1" source="uB74LkE4q_bYTzbur5KE-742" target="uB74LkE4q_bYTzbur5KE-759">
          <mxGeometry relative="1" as="geometry">
            <Array as="points">
              <mxPoint x="90" y="8620" />
              <mxPoint x="690" y="8620" />
            </Array>
          </mxGeometry>
        </mxCell>
        <mxCell id="uB74LkE4q_bYTzbur5KE-742" value="O1&lt;br&gt;G_OLD" style="rounded=0;whiteSpace=wrap;html=1;fillColor=#647687;fontColor=#ffffff;strokeColor=#314354;" vertex="1" parent="1">
          <mxGeometry x="40" y="8700" width="100" height="60" as="geometry" />
        </mxCell>
        <mxCell id="uB74LkE4q_bYTzbur5KE-743" style="edgeStyle=orthogonalEdgeStyle;rounded=0;orthogonalLoop=1;jettySize=auto;html=1;exitX=0;exitY=0.5;exitDx=0;exitDy=0;" edge="1" parent="1" source="uB74LkE4q_bYTzbur5KE-745" target="uB74LkE4q_bYTzbur5KE-742">
          <mxGeometry relative="1" as="geometry" />
        </mxCell>
        <mxCell id="uB74LkE4q_bYTzbur5KE-744" style="edgeStyle=orthogonalEdgeStyle;rounded=0;orthogonalLoop=1;jettySize=auto;html=1;exitX=0.5;exitY=0;exitDx=0;exitDy=0;entryX=0.5;entryY=0;entryDx=0;entryDy=0;curved=1;fillColor=#f8cecc;gradientColor=#ea6b66;strokeColor=#b85450;" edge="1" parent="1" source="uB74LkE4q_bYTzbur5KE-745" target="uB74LkE4q_bYTzbur5KE-755">
          <mxGeometry relative="1" as="geometry" />
        </mxCell>
        <mxCell id="uB74LkE4q_bYTzbur5KE-745" value="O2&lt;br&gt;G_TOUCHED2" style="rounded=0;whiteSpace=wrap;html=1;fillColor=#647687;strokeColor=#314354;fontColor=#ffffff;" vertex="1" parent="1">
          <mxGeometry x="190" y="8700" width="100" height="60" as="geometry" />
        </mxCell>
        <mxCell id="uB74LkE4q_bYTzbur5KE-764" style="edgeStyle=orthogonalEdgeStyle;rounded=0;orthogonalLoop=1;jettySize=auto;html=1;exitX=0.5;exitY=1;exitDx=0;exitDy=0;entryX=0.5;entryY=0;entryDx=0;entryDy=0;" edge="1" parent="1" source="uB74LkE4q_bYTzbur5KE-747" target="uB74LkE4q_bYTzbur5KE-761">
          <mxGeometry relative="1" as="geometry" />
        </mxCell>
        <mxCell id="uB74LkE4q_bYTzbur5KE-747" value="&lt;font style=&quot;font-size: 16px;&quot;&gt;g-&amp;gt;allgc&lt;/font&gt;" style="rounded=1;whiteSpace=wrap;html=1;" vertex="1" parent="1">
          <mxGeometry x="930" y="8590" width="120" height="60" as="geometry" />
        </mxCell>
        <mxCell id="uB74LkE4q_bYTzbur5KE-766" style="edgeStyle=orthogonalEdgeStyle;rounded=0;orthogonalLoop=1;jettySize=auto;html=1;exitX=0.5;exitY=0;exitDx=0;exitDy=0;entryX=0.5;entryY=1;entryDx=0;entryDy=0;" edge="1" parent="1" source="uB74LkE4q_bYTzbur5KE-749" target="uB74LkE4q_bYTzbur5KE-761">
          <mxGeometry relative="1" as="geometry" />
        </mxCell>
        <mxCell id="uB74LkE4q_bYTzbur5KE-749" value="g-&amp;gt;survival" style="rounded=1;whiteSpace=wrap;html=1;" vertex="1" parent="1">
          <mxGeometry x="290" y="8810" width="80" height="30" as="geometry" />
        </mxCell>
        <mxCell id="uB74LkE4q_bYTzbur5KE-750" style="edgeStyle=orthogonalEdgeStyle;rounded=0;orthogonalLoop=1;jettySize=auto;html=1;exitX=0.5;exitY=0;exitDx=0;exitDy=0;entryX=0.5;entryY=1;entryDx=0;entryDy=0;" edge="1" parent="1" source="uB74LkE4q_bYTzbur5KE-751" target="uB74LkE4q_bYTzbur5KE-745">
          <mxGeometry relative="1" as="geometry" />
        </mxCell>
        <mxCell id="uB74LkE4q_bYTzbur5KE-751" value="g-&amp;gt;old1" style="rounded=1;whiteSpace=wrap;html=1;" vertex="1" parent="1">
          <mxGeometry x="200" y="8810" width="80" height="30" as="geometry" />
        </mxCell>
        <mxCell id="uB74LkE4q_bYTzbur5KE-752" style="edgeStyle=orthogonalEdgeStyle;rounded=0;orthogonalLoop=1;jettySize=auto;html=1;exitX=0.5;exitY=0;exitDx=0;exitDy=0;entryX=0.25;entryY=1;entryDx=0;entryDy=0;" edge="1" parent="1" source="uB74LkE4q_bYTzbur5KE-753" target="uB74LkE4q_bYTzbur5KE-745">
          <mxGeometry relative="1" as="geometry" />
        </mxCell>
        <mxCell id="uB74LkE4q_bYTzbur5KE-753" value="g-&amp;gt;reallyold" style="rounded=1;whiteSpace=wrap;html=1;" vertex="1" parent="1">
          <mxGeometry x="110" y="8810" width="80" height="30" as="geometry" />
        </mxCell>
        <mxCell id="uB74LkE4q_bYTzbur5KE-754" style="edgeStyle=orthogonalEdgeStyle;rounded=0;orthogonalLoop=1;jettySize=auto;html=1;exitX=0;exitY=0.5;exitDx=0;exitDy=0;" edge="1" parent="1" source="uB74LkE4q_bYTzbur5KE-755" target="uB74LkE4q_bYTzbur5KE-745">
          <mxGeometry relative="1" as="geometry" />
        </mxCell>
        <mxCell id="uB74LkE4q_bYTzbur5KE-755" value="O3&lt;br&gt;G_OLD1" style="rounded=0;whiteSpace=wrap;html=1;fillColor=#647687;fontColor=#ffffff;strokeColor=#314354;" vertex="1" parent="1">
          <mxGeometry x="340" y="8700" width="100" height="60" as="geometry" />
        </mxCell>
        <mxCell id="uB74LkE4q_bYTzbur5KE-765" style="edgeStyle=orthogonalEdgeStyle;rounded=0;orthogonalLoop=1;jettySize=auto;html=1;exitX=0;exitY=0.5;exitDx=0;exitDy=0;entryX=1;entryY=0.5;entryDx=0;entryDy=0;" edge="1" parent="1" source="uB74LkE4q_bYTzbur5KE-759" target="uB74LkE4q_bYTzbur5KE-755">
          <mxGeometry relative="1" as="geometry" />
        </mxCell>
        <mxCell id="uB74LkE4q_bYTzbur5KE-759" value="O5&lt;br&gt;G_OLD" style="rounded=0;whiteSpace=wrap;html=1;fillColor=#647687;strokeColor=#314354;fontColor=#ffffff;" vertex="1" parent="1">
          <mxGeometry x="640" y="8700" width="100" height="60" as="geometry" />
        </mxCell>
        <mxCell id="uB74LkE4q_bYTzbur5KE-760" style="edgeStyle=orthogonalEdgeStyle;rounded=0;orthogonalLoop=1;jettySize=auto;html=1;exitX=0;exitY=0.5;exitDx=0;exitDy=0;" edge="1" parent="1" source="uB74LkE4q_bYTzbur5KE-761" target="uB74LkE4q_bYTzbur5KE-759">
          <mxGeometry relative="1" as="geometry" />
        </mxCell>
        <mxCell id="uB74LkE4q_bYTzbur5KE-761" value="O6&lt;br&gt;G_OLD" style="rounded=0;whiteSpace=wrap;html=1;fillColor=#647687;strokeColor=#314354;fontColor=#ffffff;" vertex="1" parent="1">
          <mxGeometry x="790" y="8700" width="100" height="60" as="geometry" />
        </mxCell>
        <mxCell id="uB74LkE4q_bYTzbur5KE-767" style="edgeStyle=orthogonalEdgeStyle;rounded=0;orthogonalLoop=1;jettySize=auto;html=1;exitX=0.5;exitY=0;exitDx=0;exitDy=0;entryX=0.5;entryY=0;entryDx=0;entryDy=0;curved=1;fillColor=#f8cecc;gradientColor=#ea6b66;strokeColor=#b85450;" edge="1" parent="1" source="uB74LkE4q_bYTzbur5KE-769" target="uB74LkE4q_bYTzbur5KE-786">
          <mxGeometry relative="1" as="geometry">
            <Array as="points">
              <mxPoint x="90" y="8920" />
              <mxPoint x="560" y="8920" />
              <mxPoint x="560" y="9000" />
              <mxPoint x="690" y="9000" />
            </Array>
          </mxGeometry>
        </mxCell>
        <mxCell id="uB74LkE4q_bYTzbur5KE-768" style="edgeStyle=orthogonalEdgeStyle;rounded=0;orthogonalLoop=1;jettySize=auto;html=1;exitX=0.5;exitY=0;exitDx=0;exitDy=0;entryX=0.5;entryY=0;entryDx=0;entryDy=0;curved=1;fillColor=#f8cecc;gradientColor=#ea6b66;strokeColor=#b85450;" edge="1" parent="1" source="uB74LkE4q_bYTzbur5KE-769" target="uB74LkE4q_bYTzbur5KE-784">
          <mxGeometry relative="1" as="geometry">
            <Array as="points">
              <mxPoint x="90" y="8980" />
              <mxPoint x="440" y="8980" />
              <mxPoint x="440" y="9020" />
              <mxPoint x="540" y="9020" />
            </Array>
          </mxGeometry>
        </mxCell>
        <mxCell id="uB74LkE4q_bYTzbur5KE-769" value="O1&lt;br&gt;G_OLD" style="rounded=0;whiteSpace=wrap;html=1;fillColor=#647687;fontColor=#ffffff;strokeColor=#314354;" vertex="1" parent="1">
          <mxGeometry x="40" y="9060" width="100" height="60" as="geometry" />
        </mxCell>
        <mxCell id="uB74LkE4q_bYTzbur5KE-770" style="edgeStyle=orthogonalEdgeStyle;rounded=0;orthogonalLoop=1;jettySize=auto;html=1;exitX=0;exitY=0.5;exitDx=0;exitDy=0;" edge="1" parent="1" source="uB74LkE4q_bYTzbur5KE-772" target="uB74LkE4q_bYTzbur5KE-769">
          <mxGeometry relative="1" as="geometry" />
        </mxCell>
        <mxCell id="uB74LkE4q_bYTzbur5KE-771" style="edgeStyle=orthogonalEdgeStyle;rounded=0;orthogonalLoop=1;jettySize=auto;html=1;exitX=0.5;exitY=0;exitDx=0;exitDy=0;entryX=0.5;entryY=0;entryDx=0;entryDy=0;curved=1;fillColor=#f8cecc;gradientColor=#ea6b66;strokeColor=#b85450;" edge="1" parent="1" source="uB74LkE4q_bYTzbur5KE-772" target="uB74LkE4q_bYTzbur5KE-782">
          <mxGeometry relative="1" as="geometry" />
        </mxCell>
        <mxCell id="uB74LkE4q_bYTzbur5KE-772" value="O2&lt;br&gt;G_TOUCHED2" style="rounded=0;whiteSpace=wrap;html=1;fillColor=#647687;strokeColor=#314354;fontColor=#ffffff;" vertex="1" parent="1">
          <mxGeometry x="190" y="9060" width="100" height="60" as="geometry" />
        </mxCell>
        <mxCell id="uB74LkE4q_bYTzbur5KE-789" style="edgeStyle=orthogonalEdgeStyle;rounded=0;orthogonalLoop=1;jettySize=auto;html=1;exitX=0.5;exitY=1;exitDx=0;exitDy=0;entryX=0.5;entryY=0;entryDx=0;entryDy=0;" edge="1" parent="1" source="uB74LkE4q_bYTzbur5KE-774" target="uB74LkE4q_bYTzbur5KE-787">
          <mxGeometry relative="1" as="geometry" />
        </mxCell>
        <mxCell id="uB74LkE4q_bYTzbur5KE-774" value="&lt;font style=&quot;font-size: 16px;&quot;&gt;g-&amp;gt;allgc&lt;/font&gt;" style="rounded=1;whiteSpace=wrap;html=1;" vertex="1" parent="1">
          <mxGeometry x="930" y="8950" width="120" height="60" as="geometry" />
        </mxCell>
        <mxCell id="uB74LkE4q_bYTzbur5KE-775" style="edgeStyle=orthogonalEdgeStyle;rounded=0;orthogonalLoop=1;jettySize=auto;html=1;exitX=0.5;exitY=0;exitDx=0;exitDy=0;entryX=0.5;entryY=1;entryDx=0;entryDy=0;" edge="1" parent="1" source="uB74LkE4q_bYTzbur5KE-776" target="uB74LkE4q_bYTzbur5KE-786">
          <mxGeometry relative="1" as="geometry" />
        </mxCell>
        <mxCell id="uB74LkE4q_bYTzbur5KE-776" value="g-&amp;gt;survival" style="rounded=1;whiteSpace=wrap;html=1;" vertex="1" parent="1">
          <mxGeometry x="290" y="9170" width="80" height="30" as="geometry" />
        </mxCell>
        <mxCell id="uB74LkE4q_bYTzbur5KE-777" style="edgeStyle=orthogonalEdgeStyle;rounded=0;orthogonalLoop=1;jettySize=auto;html=1;exitX=0.5;exitY=0;exitDx=0;exitDy=0;entryX=0.5;entryY=1;entryDx=0;entryDy=0;" edge="1" parent="1" source="uB74LkE4q_bYTzbur5KE-778" target="uB74LkE4q_bYTzbur5KE-772">
          <mxGeometry relative="1" as="geometry" />
        </mxCell>
        <mxCell id="uB74LkE4q_bYTzbur5KE-778" value="g-&amp;gt;old1" style="rounded=1;whiteSpace=wrap;html=1;" vertex="1" parent="1">
          <mxGeometry x="200" y="9170" width="80" height="30" as="geometry" />
        </mxCell>
        <mxCell id="uB74LkE4q_bYTzbur5KE-779" style="edgeStyle=orthogonalEdgeStyle;rounded=0;orthogonalLoop=1;jettySize=auto;html=1;exitX=0.5;exitY=0;exitDx=0;exitDy=0;entryX=0.25;entryY=1;entryDx=0;entryDy=0;" edge="1" parent="1" source="uB74LkE4q_bYTzbur5KE-780" target="uB74LkE4q_bYTzbur5KE-772">
          <mxGeometry relative="1" as="geometry" />
        </mxCell>
        <mxCell id="uB74LkE4q_bYTzbur5KE-780" value="g-&amp;gt;reallyold" style="rounded=1;whiteSpace=wrap;html=1;" vertex="1" parent="1">
          <mxGeometry x="110" y="9170" width="80" height="30" as="geometry" />
        </mxCell>
        <mxCell id="uB74LkE4q_bYTzbur5KE-781" style="edgeStyle=orthogonalEdgeStyle;rounded=0;orthogonalLoop=1;jettySize=auto;html=1;exitX=0;exitY=0.5;exitDx=0;exitDy=0;" edge="1" parent="1" source="uB74LkE4q_bYTzbur5KE-782" target="uB74LkE4q_bYTzbur5KE-772">
          <mxGeometry relative="1" as="geometry" />
        </mxCell>
        <mxCell id="uB74LkE4q_bYTzbur5KE-782" value="O3&lt;br&gt;G_OLD1" style="rounded=0;whiteSpace=wrap;html=1;fillColor=#647687;fontColor=#ffffff;strokeColor=#314354;" vertex="1" parent="1">
          <mxGeometry x="340" y="9060" width="100" height="60" as="geometry" />
        </mxCell>
        <mxCell id="uB74LkE4q_bYTzbur5KE-783" style="edgeStyle=orthogonalEdgeStyle;rounded=0;orthogonalLoop=1;jettySize=auto;html=1;exitX=0;exitY=0.5;exitDx=0;exitDy=0;entryX=1;entryY=0.5;entryDx=0;entryDy=0;" edge="1" parent="1" source="uB74LkE4q_bYTzbur5KE-784" target="uB74LkE4q_bYTzbur5KE-782">
          <mxGeometry relative="1" as="geometry" />
        </mxCell>
        <mxCell id="uB74LkE4q_bYTzbur5KE-784" value="O5&lt;br&gt;G_OLD" style="rounded=0;whiteSpace=wrap;html=1;fillColor=#647687;strokeColor=#314354;fontColor=#ffffff;" vertex="1" parent="1">
          <mxGeometry x="490" y="9060" width="100" height="60" as="geometry" />
        </mxCell>
        <mxCell id="uB74LkE4q_bYTzbur5KE-785" style="edgeStyle=orthogonalEdgeStyle;rounded=0;orthogonalLoop=1;jettySize=auto;html=1;exitX=0;exitY=0.5;exitDx=0;exitDy=0;" edge="1" parent="1" source="uB74LkE4q_bYTzbur5KE-786" target="uB74LkE4q_bYTzbur5KE-784">
          <mxGeometry relative="1" as="geometry" />
        </mxCell>
        <mxCell id="uB74LkE4q_bYTzbur5KE-786" value="O6&lt;br&gt;G_OLD" style="rounded=0;whiteSpace=wrap;html=1;fillColor=#647687;strokeColor=#314354;fontColor=#ffffff;" vertex="1" parent="1">
          <mxGeometry x="640" y="9060" width="100" height="60" as="geometry" />
        </mxCell>
        <mxCell id="uB74LkE4q_bYTzbur5KE-788" style="edgeStyle=orthogonalEdgeStyle;rounded=0;orthogonalLoop=1;jettySize=auto;html=1;exitX=0;exitY=0.5;exitDx=0;exitDy=0;entryX=1;entryY=0.5;entryDx=0;entryDy=0;" edge="1" parent="1" source="uB74LkE4q_bYTzbur5KE-787" target="uB74LkE4q_bYTzbur5KE-786">
          <mxGeometry relative="1" as="geometry" />
        </mxCell>
        <mxCell id="uB74LkE4q_bYTzbur5KE-787" value="O9&lt;br&gt;G_NEW" style="rounded=0;whiteSpace=wrap;html=1;" vertex="1" parent="1">
          <mxGeometry x="790" y="9060" width="100" height="60" as="geometry" />
        </mxCell>
        <mxCell id="uB74LkE4q_bYTzbur5KE-790" value="" style="endArrow=none;html=1;rounded=0;" edge="1" parent="1">
          <mxGeometry width="50" height="50" relative="1" as="geometry">
            <mxPoint y="8890" as="sourcePoint" />
            <mxPoint x="1000" y="8890" as="targetPoint" />
          </mxGeometry>
        </mxCell>
        <mxCell id="uB74LkE4q_bYTzbur5KE-791" style="edgeStyle=orthogonalEdgeStyle;rounded=0;orthogonalLoop=1;jettySize=auto;html=1;exitX=0.5;exitY=0;exitDx=0;exitDy=0;entryX=0.5;entryY=0;entryDx=0;entryDy=0;curved=1;fillColor=#f8cecc;gradientColor=#ea6b66;strokeColor=#b85450;" edge="1" parent="1" source="uB74LkE4q_bYTzbur5KE-793" target="uB74LkE4q_bYTzbur5KE-810">
          <mxGeometry relative="1" as="geometry">
            <Array as="points">
              <mxPoint x="90" y="9310" />
              <mxPoint x="560" y="9310" />
              <mxPoint x="560" y="9390" />
              <mxPoint x="690" y="9390" />
            </Array>
          </mxGeometry>
        </mxCell>
        <mxCell id="uB74LkE4q_bYTzbur5KE-792" style="edgeStyle=orthogonalEdgeStyle;rounded=0;orthogonalLoop=1;jettySize=auto;html=1;exitX=0.5;exitY=0;exitDx=0;exitDy=0;entryX=0.5;entryY=0;entryDx=0;entryDy=0;curved=1;fillColor=#f8cecc;gradientColor=#ea6b66;strokeColor=#b85450;" edge="1" parent="1" source="uB74LkE4q_bYTzbur5KE-793" target="uB74LkE4q_bYTzbur5KE-808">
          <mxGeometry relative="1" as="geometry">
            <Array as="points">
              <mxPoint x="90" y="9370" />
              <mxPoint x="440" y="9370" />
              <mxPoint x="440" y="9410" />
              <mxPoint x="540" y="9410" />
            </Array>
          </mxGeometry>
        </mxCell>
        <mxCell id="uB74LkE4q_bYTzbur5KE-793" value="O1&lt;br&gt;G_OLD" style="rounded=0;whiteSpace=wrap;html=1;fillColor=#647687;fontColor=#ffffff;strokeColor=#314354;" vertex="1" parent="1">
          <mxGeometry x="40" y="9450" width="100" height="60" as="geometry" />
        </mxCell>
        <mxCell id="uB74LkE4q_bYTzbur5KE-794" style="edgeStyle=orthogonalEdgeStyle;rounded=0;orthogonalLoop=1;jettySize=auto;html=1;exitX=0;exitY=0.5;exitDx=0;exitDy=0;" edge="1" parent="1" source="uB74LkE4q_bYTzbur5KE-796" target="uB74LkE4q_bYTzbur5KE-793">
          <mxGeometry relative="1" as="geometry" />
        </mxCell>
        <mxCell id="uB74LkE4q_bYTzbur5KE-795" style="edgeStyle=orthogonalEdgeStyle;rounded=0;orthogonalLoop=1;jettySize=auto;html=1;exitX=0.5;exitY=0;exitDx=0;exitDy=0;entryX=0.5;entryY=0;entryDx=0;entryDy=0;curved=1;fillColor=#f8cecc;gradientColor=#ea6b66;strokeColor=#b85450;" edge="1" parent="1" source="uB74LkE4q_bYTzbur5KE-796" target="uB74LkE4q_bYTzbur5KE-806">
          <mxGeometry relative="1" as="geometry" />
        </mxCell>
        <mxCell id="uB74LkE4q_bYTzbur5KE-796" value="O2&lt;br&gt;G_TOUCHED2" style="rounded=0;whiteSpace=wrap;html=1;fillColor=#647687;strokeColor=#314354;fontColor=#ffffff;" vertex="1" parent="1">
          <mxGeometry x="190" y="9450" width="100" height="60" as="geometry" />
        </mxCell>
        <mxCell id="uB74LkE4q_bYTzbur5KE-797" style="edgeStyle=orthogonalEdgeStyle;rounded=0;orthogonalLoop=1;jettySize=auto;html=1;exitX=0.5;exitY=1;exitDx=0;exitDy=0;entryX=0.5;entryY=0;entryDx=0;entryDy=0;" edge="1" parent="1" source="uB74LkE4q_bYTzbur5KE-798" target="uB74LkE4q_bYTzbur5KE-812">
          <mxGeometry relative="1" as="geometry" />
        </mxCell>
        <mxCell id="uB74LkE4q_bYTzbur5KE-798" value="&lt;font style=&quot;font-size: 16px;&quot;&gt;g-&amp;gt;allgc&lt;/font&gt;" style="rounded=1;whiteSpace=wrap;html=1;" vertex="1" parent="1">
          <mxGeometry x="930" y="9340" width="120" height="60" as="geometry" />
        </mxCell>
        <mxCell id="uB74LkE4q_bYTzbur5KE-799" style="edgeStyle=orthogonalEdgeStyle;rounded=0;orthogonalLoop=1;jettySize=auto;html=1;exitX=0.5;exitY=0;exitDx=0;exitDy=0;entryX=0.5;entryY=1;entryDx=0;entryDy=0;" edge="1" parent="1" source="uB74LkE4q_bYTzbur5KE-800" target="uB74LkE4q_bYTzbur5KE-810">
          <mxGeometry relative="1" as="geometry" />
        </mxCell>
        <mxCell id="uB74LkE4q_bYTzbur5KE-800" value="g-&amp;gt;survival" style="rounded=1;whiteSpace=wrap;html=1;" vertex="1" parent="1">
          <mxGeometry x="290" y="9560" width="80" height="30" as="geometry" />
        </mxCell>
        <mxCell id="uB74LkE4q_bYTzbur5KE-801" style="edgeStyle=orthogonalEdgeStyle;rounded=0;orthogonalLoop=1;jettySize=auto;html=1;exitX=0.5;exitY=0;exitDx=0;exitDy=0;entryX=0.5;entryY=1;entryDx=0;entryDy=0;" edge="1" parent="1" source="uB74LkE4q_bYTzbur5KE-802" target="uB74LkE4q_bYTzbur5KE-796">
          <mxGeometry relative="1" as="geometry" />
        </mxCell>
        <mxCell id="uB74LkE4q_bYTzbur5KE-802" value="g-&amp;gt;old1" style="rounded=1;whiteSpace=wrap;html=1;" vertex="1" parent="1">
          <mxGeometry x="200" y="9560" width="80" height="30" as="geometry" />
        </mxCell>
        <mxCell id="uB74LkE4q_bYTzbur5KE-803" style="edgeStyle=orthogonalEdgeStyle;rounded=0;orthogonalLoop=1;jettySize=auto;html=1;exitX=0.5;exitY=0;exitDx=0;exitDy=0;entryX=0.25;entryY=1;entryDx=0;entryDy=0;" edge="1" parent="1" source="uB74LkE4q_bYTzbur5KE-804" target="uB74LkE4q_bYTzbur5KE-796">
          <mxGeometry relative="1" as="geometry" />
        </mxCell>
        <mxCell id="uB74LkE4q_bYTzbur5KE-804" value="g-&amp;gt;reallyold" style="rounded=1;whiteSpace=wrap;html=1;" vertex="1" parent="1">
          <mxGeometry x="110" y="9560" width="80" height="30" as="geometry" />
        </mxCell>
        <mxCell id="uB74LkE4q_bYTzbur5KE-805" style="edgeStyle=orthogonalEdgeStyle;rounded=0;orthogonalLoop=1;jettySize=auto;html=1;exitX=0;exitY=0.5;exitDx=0;exitDy=0;" edge="1" parent="1" source="uB74LkE4q_bYTzbur5KE-806" target="uB74LkE4q_bYTzbur5KE-796">
          <mxGeometry relative="1" as="geometry" />
        </mxCell>
        <mxCell id="uB74LkE4q_bYTzbur5KE-806" value="O3&lt;br&gt;G_OLD" style="rounded=0;whiteSpace=wrap;html=1;fillColor=#647687;fontColor=#ffffff;strokeColor=#314354;" vertex="1" parent="1">
          <mxGeometry x="340" y="9450" width="100" height="60" as="geometry" />
        </mxCell>
        <mxCell id="uB74LkE4q_bYTzbur5KE-807" style="edgeStyle=orthogonalEdgeStyle;rounded=0;orthogonalLoop=1;jettySize=auto;html=1;exitX=0;exitY=0.5;exitDx=0;exitDy=0;entryX=1;entryY=0.5;entryDx=0;entryDy=0;" edge="1" parent="1" source="uB74LkE4q_bYTzbur5KE-808" target="uB74LkE4q_bYTzbur5KE-806">
          <mxGeometry relative="1" as="geometry" />
        </mxCell>
        <mxCell id="uB74LkE4q_bYTzbur5KE-808" value="O5&lt;br&gt;G_OLD" style="rounded=0;whiteSpace=wrap;html=1;fillColor=#647687;strokeColor=#314354;fontColor=#ffffff;" vertex="1" parent="1">
          <mxGeometry x="490" y="9450" width="100" height="60" as="geometry" />
        </mxCell>
        <mxCell id="uB74LkE4q_bYTzbur5KE-809" style="edgeStyle=orthogonalEdgeStyle;rounded=0;orthogonalLoop=1;jettySize=auto;html=1;exitX=0;exitY=0.5;exitDx=0;exitDy=0;" edge="1" parent="1" source="uB74LkE4q_bYTzbur5KE-810" target="uB74LkE4q_bYTzbur5KE-808">
          <mxGeometry relative="1" as="geometry" />
        </mxCell>
        <mxCell id="uB74LkE4q_bYTzbur5KE-810" value="O6&lt;br&gt;G_OLD" style="rounded=0;whiteSpace=wrap;html=1;fillColor=#647687;strokeColor=#314354;fontColor=#ffffff;" vertex="1" parent="1">
          <mxGeometry x="640" y="9450" width="100" height="60" as="geometry" />
        </mxCell>
        <mxCell id="uB74LkE4q_bYTzbur5KE-811" style="edgeStyle=orthogonalEdgeStyle;rounded=0;orthogonalLoop=1;jettySize=auto;html=1;exitX=0;exitY=0.5;exitDx=0;exitDy=0;entryX=1;entryY=0.5;entryDx=0;entryDy=0;" edge="1" parent="1" source="uB74LkE4q_bYTzbur5KE-812" target="uB74LkE4q_bYTzbur5KE-810">
          <mxGeometry relative="1" as="geometry" />
        </mxCell>
        <mxCell id="uB74LkE4q_bYTzbur5KE-812" value="O9&lt;br&gt;G_NEW" style="rounded=0;whiteSpace=wrap;html=1;" vertex="1" parent="1">
          <mxGeometry x="790" y="9450" width="100" height="60" as="geometry" />
        </mxCell>
        <mxCell id="uB74LkE4q_bYTzbur5KE-813" style="edgeStyle=orthogonalEdgeStyle;rounded=0;orthogonalLoop=1;jettySize=auto;html=1;exitX=0.5;exitY=0;exitDx=0;exitDy=0;entryX=0.5;entryY=0;entryDx=0;entryDy=0;curved=1;fillColor=#f8cecc;gradientColor=#ea6b66;strokeColor=#b85450;" edge="1" parent="1" source="uB74LkE4q_bYTzbur5KE-815" target="uB74LkE4q_bYTzbur5KE-832">
          <mxGeometry relative="1" as="geometry">
            <Array as="points">
              <mxPoint x="90" y="9680" />
              <mxPoint x="560" y="9680" />
              <mxPoint x="560" y="9760" />
              <mxPoint x="690" y="9760" />
            </Array>
          </mxGeometry>
        </mxCell>
        <mxCell id="uB74LkE4q_bYTzbur5KE-814" style="edgeStyle=orthogonalEdgeStyle;rounded=0;orthogonalLoop=1;jettySize=auto;html=1;exitX=0.5;exitY=0;exitDx=0;exitDy=0;entryX=0.5;entryY=0;entryDx=0;entryDy=0;curved=1;fillColor=#f8cecc;gradientColor=#ea6b66;strokeColor=#b85450;" edge="1" parent="1" source="uB74LkE4q_bYTzbur5KE-815" target="uB74LkE4q_bYTzbur5KE-830">
          <mxGeometry relative="1" as="geometry">
            <Array as="points">
              <mxPoint x="90" y="9740" />
              <mxPoint x="440" y="9740" />
              <mxPoint x="440" y="9780" />
              <mxPoint x="540" y="9780" />
            </Array>
          </mxGeometry>
        </mxCell>
        <mxCell id="uB74LkE4q_bYTzbur5KE-815" value="O1&lt;br&gt;G_OLD" style="rounded=0;whiteSpace=wrap;html=1;fillColor=#647687;fontColor=#ffffff;strokeColor=#314354;" vertex="1" parent="1">
          <mxGeometry x="40" y="9820" width="100" height="60" as="geometry" />
        </mxCell>
        <mxCell id="uB74LkE4q_bYTzbur5KE-816" style="edgeStyle=orthogonalEdgeStyle;rounded=0;orthogonalLoop=1;jettySize=auto;html=1;exitX=0;exitY=0.5;exitDx=0;exitDy=0;" edge="1" parent="1" source="uB74LkE4q_bYTzbur5KE-818" target="uB74LkE4q_bYTzbur5KE-815">
          <mxGeometry relative="1" as="geometry" />
        </mxCell>
        <mxCell id="uB74LkE4q_bYTzbur5KE-817" style="edgeStyle=orthogonalEdgeStyle;rounded=0;orthogonalLoop=1;jettySize=auto;html=1;exitX=0.5;exitY=0;exitDx=0;exitDy=0;entryX=0.5;entryY=0;entryDx=0;entryDy=0;curved=1;fillColor=#f8cecc;gradientColor=#ea6b66;strokeColor=#b85450;" edge="1" parent="1" source="uB74LkE4q_bYTzbur5KE-818" target="uB74LkE4q_bYTzbur5KE-828">
          <mxGeometry relative="1" as="geometry" />
        </mxCell>
        <mxCell id="uB74LkE4q_bYTzbur5KE-818" value="O2&lt;br&gt;G_OLD" style="rounded=0;whiteSpace=wrap;html=1;fillColor=#647687;strokeColor=#314354;fontColor=#ffffff;" vertex="1" parent="1">
          <mxGeometry x="190" y="9820" width="100" height="60" as="geometry" />
        </mxCell>
        <mxCell id="uB74LkE4q_bYTzbur5KE-835" style="edgeStyle=orthogonalEdgeStyle;rounded=0;orthogonalLoop=1;jettySize=auto;html=1;exitX=0.5;exitY=1;exitDx=0;exitDy=0;entryX=0.5;entryY=0;entryDx=0;entryDy=0;" edge="1" parent="1" source="uB74LkE4q_bYTzbur5KE-820" target="uB74LkE4q_bYTzbur5KE-832">
          <mxGeometry relative="1" as="geometry" />
        </mxCell>
        <mxCell id="uB74LkE4q_bYTzbur5KE-820" value="&lt;font style=&quot;font-size: 16px;&quot;&gt;g-&amp;gt;allgc&lt;/font&gt;" style="rounded=1;whiteSpace=wrap;html=1;" vertex="1" parent="1">
          <mxGeometry x="930" y="9710" width="120" height="60" as="geometry" />
        </mxCell>
        <mxCell id="uB74LkE4q_bYTzbur5KE-821" style="edgeStyle=orthogonalEdgeStyle;rounded=0;orthogonalLoop=1;jettySize=auto;html=1;exitX=0.5;exitY=0;exitDx=0;exitDy=0;entryX=0.5;entryY=1;entryDx=0;entryDy=0;" edge="1" parent="1" source="uB74LkE4q_bYTzbur5KE-822" target="uB74LkE4q_bYTzbur5KE-832">
          <mxGeometry relative="1" as="geometry" />
        </mxCell>
        <mxCell id="uB74LkE4q_bYTzbur5KE-822" value="g-&amp;gt;survival" style="rounded=1;whiteSpace=wrap;html=1;" vertex="1" parent="1">
          <mxGeometry x="290" y="9930" width="80" height="30" as="geometry" />
        </mxCell>
        <mxCell id="uB74LkE4q_bYTzbur5KE-836" style="edgeStyle=orthogonalEdgeStyle;rounded=0;orthogonalLoop=1;jettySize=auto;html=1;exitX=0.5;exitY=0;exitDx=0;exitDy=0;entryX=0.25;entryY=1;entryDx=0;entryDy=0;" edge="1" parent="1" source="uB74LkE4q_bYTzbur5KE-824" target="uB74LkE4q_bYTzbur5KE-832">
          <mxGeometry relative="1" as="geometry">
            <Array as="points">
              <mxPoint x="240" y="9890" />
              <mxPoint x="665" y="9890" />
            </Array>
          </mxGeometry>
        </mxCell>
        <mxCell id="uB74LkE4q_bYTzbur5KE-824" value="g-&amp;gt;old1" style="rounded=1;whiteSpace=wrap;html=1;" vertex="1" parent="1">
          <mxGeometry x="200" y="9930" width="80" height="30" as="geometry" />
        </mxCell>
        <mxCell id="uB74LkE4q_bYTzbur5KE-825" style="edgeStyle=orthogonalEdgeStyle;rounded=0;orthogonalLoop=1;jettySize=auto;html=1;exitX=0.5;exitY=0;exitDx=0;exitDy=0;entryX=0.25;entryY=1;entryDx=0;entryDy=0;" edge="1" parent="1" source="uB74LkE4q_bYTzbur5KE-826" target="uB74LkE4q_bYTzbur5KE-818">
          <mxGeometry relative="1" as="geometry" />
        </mxCell>
        <mxCell id="uB74LkE4q_bYTzbur5KE-826" value="g-&amp;gt;reallyold" style="rounded=1;whiteSpace=wrap;html=1;" vertex="1" parent="1">
          <mxGeometry x="110" y="9930" width="80" height="30" as="geometry" />
        </mxCell>
        <mxCell id="uB74LkE4q_bYTzbur5KE-827" style="edgeStyle=orthogonalEdgeStyle;rounded=0;orthogonalLoop=1;jettySize=auto;html=1;exitX=0;exitY=0.5;exitDx=0;exitDy=0;" edge="1" parent="1" source="uB74LkE4q_bYTzbur5KE-828" target="uB74LkE4q_bYTzbur5KE-818">
          <mxGeometry relative="1" as="geometry" />
        </mxCell>
        <mxCell id="uB74LkE4q_bYTzbur5KE-828" value="O3&lt;br&gt;G_OLD" style="rounded=0;whiteSpace=wrap;html=1;fillColor=#647687;fontColor=#ffffff;strokeColor=#314354;" vertex="1" parent="1">
          <mxGeometry x="340" y="9820" width="100" height="60" as="geometry" />
        </mxCell>
        <mxCell id="uB74LkE4q_bYTzbur5KE-829" style="edgeStyle=orthogonalEdgeStyle;rounded=0;orthogonalLoop=1;jettySize=auto;html=1;exitX=0;exitY=0.5;exitDx=0;exitDy=0;entryX=1;entryY=0.5;entryDx=0;entryDy=0;" edge="1" parent="1" source="uB74LkE4q_bYTzbur5KE-830" target="uB74LkE4q_bYTzbur5KE-828">
          <mxGeometry relative="1" as="geometry" />
        </mxCell>
        <mxCell id="uB74LkE4q_bYTzbur5KE-830" value="O5&lt;br&gt;G_OLD" style="rounded=0;whiteSpace=wrap;html=1;fillColor=#647687;strokeColor=#314354;fontColor=#ffffff;" vertex="1" parent="1">
          <mxGeometry x="490" y="9820" width="100" height="60" as="geometry" />
        </mxCell>
        <mxCell id="uB74LkE4q_bYTzbur5KE-831" style="edgeStyle=orthogonalEdgeStyle;rounded=0;orthogonalLoop=1;jettySize=auto;html=1;exitX=0;exitY=0.5;exitDx=0;exitDy=0;" edge="1" parent="1" source="uB74LkE4q_bYTzbur5KE-832" target="uB74LkE4q_bYTzbur5KE-830">
          <mxGeometry relative="1" as="geometry" />
        </mxCell>
        <mxCell id="uB74LkE4q_bYTzbur5KE-832" value="O6&lt;br&gt;G_OLD" style="rounded=0;whiteSpace=wrap;html=1;fillColor=#647687;strokeColor=#314354;fontColor=#ffffff;" vertex="1" parent="1">
          <mxGeometry x="640" y="9820" width="100" height="60" as="geometry" />
        </mxCell>
      </root>
    </mxGraphModel>
  </diagram>
</mxfile>
